<?xml version="1.0" encoding="utf-8"?>
<!-- Generator: Adobe Illustrator 16.0.0, SVG Export Plug-In . SVG Version: 6.00 Build 0)  -->
<!DOCTYPE svg PUBLIC "-//W3C//DTD SVG 1.1//EN" "http://www.w3.org/Graphics/SVG/1.1/DTD/svg11.dtd">
<svg version="1.1" id="Warstwa_1" xmlns="http://www.w3.org/2000/svg" xmlns:xlink="http://www.w3.org/1999/xlink" x="0px" y="0px"
	 width="352.577px" height="344.33px" viewBox="0 0 352.577 344.33" enable-background="new 0 0 352.577 344.33"
	 xml:space="preserve">
<g>
	<g>
		<path fill="#2C3B8D" d="M72.737,305.162c0,2.504,1.059,4.381,3.193,5.635c1.887,1.151,4.459,1.731,7.707,1.731
			c3.102,0,5.449-0.548,7.053-1.642c1.363-0.925,2.053-2.114,2.053-3.553c0-2.122-1.188-3.534-3.557-4.236
			c-0.354-0.097-4.637-1.038-12.838-2.84c-6.346-1.313-9.518-4.21-9.518-8.703c0-3.247,1.643-5.796,4.941-7.649
			c2.93-1.648,6.529-2.461,10.781-2.461c4.701,0,8.574,0.928,11.633,2.792c3.258,2.019,4.879,4.747,4.879,8.182h-7.529
			c-0.408-4.041-3.494-6.063-9.283-6.063c-2.086,0-3.838,0.306-5.24,0.914c-1.768,0.803-2.645,1.987-2.645,3.554
			c0,2.155,1.699,3.63,5.115,4.434c-0.402-0.097,1.465,0.282,5.607,1.15c3.613,0.769,5.879,1.269,6.807,1.492
			c2.689,0.674,4.779,1.85,6.27,3.513c1.404,1.571,2.109,3.317,2.109,5.248c0,3.589-1.785,6.345-5.367,8.275
			c-3.094,1.668-7.008,2.496-11.746,2.496c-5.227,0-9.424-0.974-12.596-2.93c-3.494-2.146-5.285-5.261-5.365-9.339H72.737
			L72.737,305.162z M102.532,286.63l11.117,23.325l-0.738,1.809c-0.791,2.169-2.309,3.263-4.537,3.263
			c-0.377,0-1.402-0.114-3.061-0.322v4.348c1.469,0.177,2.959,0.269,4.48,0.269c3.031,0,5.346-0.813,6.979-2.445
			c0.826-0.84,1.955-2.703,3.393-5.567l11.4-24.678h-6.748l-7.43,17.483h-0.109l-7.66-17.483H102.532L102.532,286.63z
			 M140.081,302.521h-6.473c0.078,2.662,1.344,4.714,3.799,6.158c2.268,1.329,5.33,1.992,9.191,1.992
			c3.514,0,6.465-0.566,8.842-1.719c2.842-1.361,4.254-3.323,4.254-5.887c0-2.087-0.98-3.695-2.945-4.843
			c-1.404-0.788-3.568-1.449-6.521-1.987c-3.738-0.642-5.916-1.045-6.523-1.23c-2-0.57-3.008-1.418-3.008-2.531
			c0-1.602,1.779-2.404,5.33-2.404c3.441,0,5.432,1.047,5.957,3.128h6.746c-0.338-2.479-1.719-4.329-4.141-5.57
			c-2.111-1.088-4.82-1.635-8.1-1.635c-3.221,0-5.93,0.485-8.119,1.453c-2.758,1.178-4.139,2.929-4.139,5.253
			c0,2.143,0.98,3.787,2.953,4.936c1.355,0.813,3.512,1.478,6.465,1.989c3.932,0.728,6.1,1.147,6.521,1.271
			c1.965,0.57,2.988,1.446,3.063,2.623c0.111,2.056-2.057,3.085-6.521,3.085C142.626,306.603,140.415,305.243,140.081,302.521
			L140.081,302.521z M161.679,286.63v3.85h4.877v13.813c0.08,2.141,0.607,3.622,1.59,4.434c1.178,1.027,3.348,1.543,6.521,1.543
			c0.902,0,2.305-0.098,4.201-0.276v-3.984c-0.609,0.122-1.512,0.183-2.723,0.183c-1.367,0-2.246-0.269-2.668-0.813
			c-0.303-0.39-0.451-1.192-0.451-2.399v-12.498h5.842v-3.85h-5.842v-7.019h-6.471v7.019H161.679L161.679,286.63z M203.591,302.616
			c-1.139,2.595-3.496,3.891-7.09,3.891c-2.57,0-4.555-0.692-5.955-2.079c-1.283-1.24-1.924-2.855-1.924-4.849h21.482
			c0.572-3.588-0.447-6.728-3.057-9.411c-2.682-2.812-6.256-4.22-10.717-4.22c-3.176,0-5.936,0.713-8.279,2.135
			c-2.23,1.327-3.852,3.118-4.879,5.384h6.242c1.354-2.291,3.668-3.438,6.916-3.438c2.084,0,3.813,0.616,5.215,1.856
			c1.246,1.18,1.951,2.623,2.105,4.352h-15.029c0-0.036,0-0.054,0-0.054h-6.295c-0.111,0.757-0.178,1.452-0.178,2.088
			c0,3.711,1.236,6.671,3.689,8.871c2.574,2.297,6.127,3.438,10.662,3.438c3.25,0,6.07-0.691,8.449-2.076
			c2.531-1.422,4.123-3.386,4.77-5.887H203.591L203.591,302.616z M215.044,286.63v23.415h6.465V296.14
			c0-1.84,0.643-3.334,1.928-4.482c1.211-1.06,2.703-1.587,4.484-1.587c1.883,0,3.234,0.409,4.025,1.226
			c0.756,0.787,1.135,2.02,1.135,3.71v15.039h6.467v-13.724c0-4.166,2.068-6.251,6.234-6.251c2.309,0,3.824,0.574,4.531,1.718
			c0.535,0.82,0.799,2.345,0.799,4.58v13.677h6.465v-16.166c0-5.255-3.271-7.886-9.807-7.886c-3.744,0-6.809,1.306-9.191,3.899
			c-1.283-2.594-4.029-3.899-8.223-3.899c-3.775,0-6.787,1.306-9.016,3.899h-0.17v-3.263H215.044L215.044,286.63z M262.794,302.521
			c0.082,2.662,1.346,4.714,3.805,6.158c2.262,1.329,5.326,1.992,9.188,1.992c3.516,0,6.459-0.566,8.85-1.719
			c2.834-1.361,4.246-3.323,4.246-5.887c0-2.087-0.986-3.695-2.945-4.843c-1.402-0.788-3.578-1.449-6.521-1.987
			c-3.746-0.642-5.924-1.045-6.521-1.23c-2.008-0.57-3.01-1.418-3.01-2.531c0-1.602,1.773-2.404,5.334-2.404
			c3.432,0,5.426,1.047,5.957,3.128h6.74c-0.336-2.479-1.719-4.329-4.141-5.57c-2.111-1.088-4.818-1.635-8.105-1.635
			c-3.211,0-5.916,0.485-8.109,1.453c-2.762,1.178-4.141,2.929-4.141,5.253c0,2.143,0.986,3.787,2.951,4.936
			c1.354,0.813,3.514,1.478,6.461,1.989c3.928,0.728,6.111,1.147,6.529,1.271c1.959,0.57,2.98,1.446,3.055,2.623
			c0.119,2.056-2.061,3.085-6.516,3.085c-4.088,0-6.301-1.359-6.643-4.081H262.794z"/>
		<path fill="#2C3B8D" d="M43.177,242.467h8.014l16.574,34.355h-8.08l-4.037-9.094h-17.17l-4.043,9.094h-7.766l6.623-13.663h20.371
			l-6.451-14.769h-0.178l-5.188,11.785h-7.164L43.177,242.467L43.177,242.467z M96.396,272.588v-23.404h-6.463v13.584
			c0,4.256-2.398,6.384-7.199,6.384c-3.74,0-5.615-1.868-5.615-5.613v-14.354h-6.467v14.85c0,6.131,3.65,9.19,10.949,9.19
			c3.816,0,6.594-1.297,8.332-3.892h0.111v3.256H96.396L96.396,272.588z M100.257,249.184v3.85h4.877v13.808
			c0.076,2.146,0.605,3.62,1.584,4.438c1.176,1.027,3.35,1.539,6.529,1.539c0.902,0,2.303-0.093,4.193-0.269v-3.99
			c-0.602,0.124-1.514,0.178-2.729,0.178c-1.354,0-2.246-0.267-2.664-0.813c-0.299-0.389-0.451-1.19-0.451-2.394v-12.498h5.844
			v-3.85h-5.844v-7.018h-6.463v7.018H100.257L100.257,249.184z M146.983,269.243c2.225-2.202,3.348-4.999,3.348-8.38
			c0-3.623-1.303-6.562-3.914-8.827c-2.686-2.324-6.311-3.494-10.891-3.494c-4.568,0-8.199,1.17-10.887,3.494
			c-2.611,2.266-3.912,5.204-3.912,8.827c0,3.687,1.301,6.644,3.912,8.877c2.688,2.325,6.318,3.483,10.887,3.483
			c3.521,0,6.508-0.706,8.957-2.125l-4.076-3.267c-1.359,0.88-2.988,1.319-4.881,1.319c-2.715,0-4.834-0.876-6.342-2.629
			c-1.328-1.507-1.988-3.394-1.988-5.659c0-2.232,0.66-4.108,1.988-5.613c1.508-1.752,3.627-2.625,6.342-2.625
			c2.723,0,4.844,0.873,6.354,2.625c1.324,1.505,1.99,3.381,1.99,5.613c0,1.812-0.463,3.412-1.365,4.798L146.983,269.243
			L146.983,269.243z M155.716,249.184v23.404h6.471v-13.896c0-1.845,0.643-3.335,1.926-4.486c1.209-1.053,2.701-1.58,4.482-1.58
			c1.885,0,3.232,0.408,4.021,1.228c0.756,0.78,1.135,2.016,1.135,3.706v15.029h6.469v-13.713c0-4.171,2.076-6.25,6.238-6.25
			c2.307,0,3.82,0.57,4.535,1.719c0.529,0.817,0.791,2.34,0.791,4.572v13.672h6.467v-16.156c0-5.258-3.271-7.89-9.811-7.89
			c-3.734,0-6.805,1.306-9.184,3.901c-1.287-2.596-4.029-3.901-8.227-3.901c-3.779,0-6.785,1.306-9.02,3.901h-0.176v-3.26H155.716
			L155.716,249.184z M229.954,269.243c2.229-2.202,3.348-4.999,3.348-8.38c0-3.623-1.309-6.562-3.912-8.827
			c-2.688-2.324-6.318-3.494-10.889-3.494c-4.574,0-8.211,1.17-10.893,3.494c-2.611,2.266-3.912,5.204-3.912,8.827
			c0,3.687,1.301,6.644,3.912,8.877c2.682,2.325,6.318,3.483,10.893,3.483c3.516,0,6.492-0.706,8.951-2.125l-4.078-3.267
			c-1.357,0.88-2.982,1.319-4.873,1.319c-2.725,0-4.852-0.876-6.357-2.629c-1.326-1.507-1.982-3.394-1.982-5.659
			c0-2.232,0.656-4.108,1.982-5.613c1.506-1.752,3.633-2.625,6.357-2.625c2.719,0,4.832,0.873,6.348,2.625
			c1.324,1.505,1.986,3.381,1.986,5.613c0,1.812-0.455,3.412-1.363,4.798L229.954,269.243L229.954,269.243z M235.741,249.184v3.85
			h4.873v13.808c0.076,2.146,0.602,3.62,1.588,4.438c1.172,1.027,3.342,1.539,6.527,1.539c0.896,0,2.297-0.093,4.191-0.269v-3.99
			c-0.605,0.124-1.512,0.178-2.727,0.178c-1.357,0-2.25-0.267-2.658-0.813c-0.305-0.389-0.459-1.19-0.459-2.394v-12.498h5.844v-3.85
			h-5.844v-7.018h-6.463v7.018H235.741L235.741,249.184z M257.735,249.184v23.404h6.467v-23.404H257.735L257.735,249.184z
			 M268.341,249.184l10.664,23.404h7.256l10.502-23.404h-6.701l-7.143,17.974h-0.115l-7.424-17.974H268.341L268.341,249.184z
			 M320.743,265.164c-1.133,2.602-3.496,3.89-7.088,3.89c-2.572,0-4.559-0.688-5.949-2.071c-1.291-1.243-1.932-2.859-1.932-4.853
			h21.49c0.564-3.589-0.447-6.729-3.057-9.418c-2.689-2.804-6.262-4.212-10.721-4.212c-3.174,0-5.936,0.717-8.277,2.129
			c-2.236,1.333-3.863,3.13-4.885,5.395h6.244c1.355-2.303,3.668-3.446,6.918-3.446c2.082,0,3.814,0.618,5.207,1.857
			c1.252,1.173,1.947,2.625,2.107,4.349h-15.027c0-0.028,0-0.046,0-0.046h-6.295c-0.113,0.756-0.168,1.445-0.168,2.084
			c0,3.712,1.225,6.671,3.684,8.875c2.576,2.287,6.123,3.438,10.66,3.438c3.252,0,6.064-0.691,8.447-2.081
			c2.537-1.42,4.119-3.382,4.766-5.889H320.743L320.743,265.164z"/>
		<path fill="#2C3B8D" d="M89.88,202.379h8.016l16.574,34.348h-8.08l-4.037-9.09h-17.17l-4.043,9.09h-7.773l6.625-13.665h20.371
			l-6.443-14.769h-0.184l-5.18,11.791h-7.174L89.88,202.379L89.88,202.379z M117.526,202.379v32.326h6.465v-32.326H117.526
			L117.526,202.379z M131.2,202.379v32.326h6.461v-32.326H131.2L131.2,202.379z M144.86,202.379v4.888h6.469v-4.888H144.86
			L144.86,202.379z M144.86,211.293v23.412h6.469v-23.412H144.86L144.86,211.293z M166.804,235.386c4.35,0,7.734-0.95,10.158-2.852
			c0.451,1.901,2.139,2.852,5.041,2.852c1.33,0,2.684-0.2,4.088-0.588v-3.583c-0.447,0.061-0.754,0.093-0.906,0.093h-0.684
			c-0.602,0-1.02-0.133-1.25-0.404c-0.189-0.274-0.279-0.721-0.279-1.361v-6.428c-1.625,1.11-3.797,2.098-6.525,2.94v0.772
			c0,1.479-0.846,2.637-2.545,3.481c-1.396,0.666-2.977,0.999-4.711,0.999c-1.473,0-2.758-0.215-3.855-0.637
			c-1.441-0.536-2.15-1.339-2.15-2.393c0-2.146,1.771-3.44,5.324-3.9c3.779-0.297,6.422-0.732,7.938-1.312
			c1.367-0.391,2.703-1.024,4.031-1.895c1.471-1.028,2.301-2.033,2.494-2.996v-0.724c0-2.325-1.248-4.091-3.746-5.3
			c-2.111-1.022-4.801-1.54-8.057-1.54c-3.738,0-6.725,0.547-8.953,1.634c-2.725,1.327-4.201,3.398-4.426,6.201h6.463
			c0.307-2.501,2.48-3.759,6.521-3.759c4.049,0,6.068,1.077,6.068,3.214c0,1.301-0.867,2.146-2.611,2.541
			c-0.607,0.119-1.545,0.246-2.828,0.355c-1.553,0.155-2.67,0.291-3.344,0.41c-3.555,0.333-6.129,0.876-7.717,1.628
			c-2.418,1.18-3.633,3.068-3.633,5.663c0,2.203,1.023,3.926,3.064,5.16C161.63,234.809,163.966,235.386,166.804,235.386
			L166.804,235.386z M189.892,211.293v23.412h6.465v-13.812c0-1.755,0.646-3.214,1.922-4.385c1.328-1.183,3.053-1.774,5.164-1.774
			c3.668,0,5.578,1.748,5.73,5.253v14.718h6.463v-16.079c0-2.59-0.926-4.583-2.779-5.971c-1.818-1.333-4.35-1.989-7.594-1.989
			c-3.975,0-7.021,1.387-9.133,4.158l-0.119-0.09v-3.441H189.892L189.892,211.293z M242.233,219.129h6.459
			c-0.303-2.751-1.736-4.876-4.307-6.384c-2.344-1.387-5.313-2.079-8.906-2.079c-4.646,0-8.258,1.206-10.83,3.622
			c-2.416,2.26-3.629,5.249-3.629,8.958c0,3.563,1.23,6.431,3.688,8.602c2.57,2.329,6.09,3.489,10.545,3.489
			c7.748,0,12.232-3.14,13.439-9.422h-6.459c-0.645,3.566-2.969,5.349-6.98,5.349c-2.598,0-4.605-0.849-6.008-2.535
			c-1.17-1.451-1.756-3.275-1.756-5.482c0-3.166,0.932-5.474,2.773-6.925c1.367-1.055,3.125-1.587,5.279-1.587
			C239.472,214.734,241.7,216.201,242.233,219.129L242.233,219.129z M274.038,227.277c-1.123,2.603-3.486,3.897-7.078,3.897
			c-2.572,0-4.559-0.699-5.963-2.086c-1.283-1.233-1.92-2.85-1.92-4.844h21.49c0.566-3.594-0.455-6.732-3.061-9.421
			c-2.688-2.803-6.256-4.212-10.723-4.212c-3.176,0-5.938,0.71-8.277,2.133c-2.23,1.33-3.857,3.124-4.877,5.391h6.244
			c1.359-2.3,3.662-3.447,6.91-3.447c2.084,0,3.818,0.622,5.221,1.859c1.25,1.182,1.941,2.623,2.1,4.346h-15.027
			c0-0.027,0-0.045,0-0.045h-6.301c-0.111,0.752-0.168,1.448-0.168,2.077c0,3.719,1.232,6.677,3.688,8.884
			c2.564,2.291,6.121,3.438,10.664,3.438c3.248,0,6.061-0.698,8.447-2.084c2.531-1.412,4.117-3.379,4.762-5.886H274.038
			L274.038,227.277z"/>
	</g>
	<polygon fill="none" points="127.599,164.676 122.929,175.121 122.94,175.133 127.606,164.682 	"/>
	<polygon fill="none" points="128.829,161.923 128.835,161.93 134.056,150.235 	"/>
	
		<rect x="223.054" y="165.125" transform="matrix(-0.407 -0.9134 0.9134 -0.407 171.128 441.3587)" fill="none" width="11.561" height="0.008"/>
	<path fill="none" d="M122.397,176.076l-3.543,7.697h0.023l3.533-7.801C122.407,175.969,122.403,176.08,122.397,176.076z"/>
	<polygon fill="none" points="225.78,158.281 225.782,158.278 222.194,150.235 	"/>
	<path fill="#C1292E" d="M210.157,172.85c-5.039,2.913-9.309,4.604-12.248,5.61c-1.459,0.549-2.621,0.834-3.387,1.08
		c-0.77,0.229-1.17,0.349-1.17,0.349s-0.402,0.104-1.182,0.301c-0.781,0.183-1.916,0.533-3.455,0.813
		c-3.047,0.647-7.576,1.39-13.404,1.488c-5.807,0.054-12.971-0.422-20.814-2.751c-7.809-2.292-16.371-6.261-24.199-12.704
		c-0.91-0.75-1.807-1.537-2.691-2.354l-4.666,10.451c0.816,0.738,1.645,1.23,2.492,1.926c3.156,2.586,6.506,4.715,9.992,6.715
		h77.664c3.389-1,6.584-3.748,9.549-6.018c3.096-2.369,5.924-4.808,8.547-7.459l-4.705-10.502
		C220.997,165.787,215.14,169.923,210.157,172.85z"/>
	<path fill="#C1292E" d="M224.798,180.803c-1.264,0.992-2.586,1.701-3.924,2.643c-0.293,0.182-0.584,0.328-0.875,0.328h16.543
		c0.191,0,0.393-0.092,0.582-0.26l-4.453-9.878C230.257,176.104,227.634,178.585,224.798,180.803z"/>
	<path fill="#C1292E" d="M134.056,149.773l-5.221,11.925c1.059,1.062,2.129,2.209,3.223,3.183
		c7.301,6.428,15.338,10.835,22.889,13.404c3.777,1.294,7.43,2.221,10.857,2.76c3.426,0.541,6.617,0.859,9.506,0.837
		c5.779,0.092,10.305-0.634,13.326-1.253c1.521-0.264,2.67-0.604,3.451-0.779c0.779-0.193,1.57-0.411,2.336-0.648
		c0.758-0.253,1.91-0.548,3.354-1.108c2.91-1.03,7.156-2.737,12.051-5.792c2.479-1.467,5.049-3.37,7.693-5.597
		c2.65-2.224,5.305-4.871,7.857-7.921c0.137-0.162,0.268-0.568,0.402-0.732l-3.586-8.277H134.056z"/>
	<path fill="#C1292E" d="M124.659,178.002c-0.76-0.623-1.51-1.377-2.248-2.029l-3.533,7.801h14.121
		C130.112,182.773,127.319,180.188,124.659,178.002z"/>
	<path fill="#C1292E" d="M228.601,71.381c8.211,9.722,13.199,21.429,14.957,32.889c0.477,3.157,0.75,6.297,0.813,9.389l8.287,17.18
		c0.371-1.76,0.686-3.492,0.908-5.166c0.545-4.036,0.814-7.791,0.705-11.179c-0.055-6.786-1.047-12.077-1.865-15.604
		c-0.354-1.78-2.543-8.979-3.246-10.657c-1.299-3.387-3.445-8.32-7.191-13.977c-1.805-2.869-4.129-5.831-6.836-8.872
		c-2.701-3.046-5.906-6.086-9.582-8.996c-3.734-2.964-8.012-5.755-12.76-8.193l6.957,14.424
		C222.987,65.291,225.96,68.228,228.601,71.381z"/>
	<path fill="#C1292E" d="M239.253,100.793c-0.18-0.694-0.359-1.39-0.541-2.088l-0.273-1.049l-0.303-0.969
		c-0.209-0.675-0.418-1.353-0.629-2.032c-0.217-0.677-0.48-1.34-0.719-2.014c-0.459-1.356-1.057-2.667-1.613-4.001
		c-1.205-2.627-2.521-5.249-4.107-7.743c-0.746-1.276-1.625-2.475-2.447-3.719l-1.342-1.798c-0.439-0.607-0.908-1.195-1.398-1.768
		c-0.609-0.748-1.244-1.478-1.891-2.201l16.025,33.22C239.808,103.34,239.513,102.088,239.253,100.793z"/>
	<path fill="#C1292E" d="M226.704,54.997c7.277,6.283,12.281,13.07,15.895,18.854c3.584,5.832,5.701,10.795,6.975,14.218
		c0.689,1.695,1.787,5.776,2.043,6.683c0.238,0.913,0.764,2.236,1.139,4.032c0.852,3.558,1.896,8.854,2.178,15.692
		c0.176,5.292-0.004,11.562-1.273,18.439l7.947,16.476c4.59-11.031,7.127-23.129,7.127-35.821c0-42.663-28.625-78.639-67.715-89.773
		l9.824,20.364C216.931,47.34,222.231,51.105,226.704,54.997z"/>
	<path fill="#C1292E" d="M178.407,48.999l-27.045,61.774h-36.826l25.121-52.135c-0.127,0.078-0.26,0.264-0.387,0.343
		c-2.758,1.742-5.428,3.682-7.898,5.792c-2.455,2.125-4.787,4.412-6.9,6.849c-4.221,4.873-7.699,10.333-10.242,16.1
		c-2.561,5.76-4.199,11.825-4.961,17.864c-0.113,0.752-0.197,1.511-0.25,2.267l-0.184,2.26c-0.041,1.507-0.145,3.004-0.09,4.496
		c-0.004,2.983,0.293,5.697,0.686,8.583c0.162,0.943,0.32,2.582,0.494,2.582h102.051L178.407,48.999z"/>
	<path fill="#C1292E" d="M99.462,142.679c-0.318-0.887-0.625-1.778-0.912-2.678c-1.143-3.674-2.152-7.587-2.803-11.468
		c-0.617-3.9-1.045-7.839-1.102-11.79c-0.02-3.947,0.164-7.897,0.709-11.797c0.557-3.894,1.318-7.757,2.414-11.517
		c4.338-15.067,13.141-28.496,24.408-38.341c7.986-7.033,17.203-12.181,26.701-15.437l8.461-17.637
		c-42.902,8.414-75.271,46.202-75.271,91.568c0,15.615,3.84,30.204,10.619,43.138l0.002-0.003c-0.002-0.001-0.002-0.002-0.002-0.003
		L99.462,142.679z"/>
	<path fill="#C1292E" d="M106.946,123.739c-0.301-3.009-0.494-6.064-0.379-9.146c0-1.541,0.162-3.083,0.264-4.631
		c0.094-0.771,0.186-1.543,0.277-2.317c0.084-0.775,0.199-1.547,0.346-2.316c2.061-12.34,7.637-24.456,16.23-34.352
		c4.82-5.563,10.582-10.408,17.004-14.257l5.521-11.512c-1.285,0.515-2.547,1.107-3.826,1.673c-3.07,1.49-6.129,3.108-9.033,5.041
		c-1.486,0.913-2.879,1.978-4.326,2.979l-2.086,1.626l-1.043,0.819l-1.006,0.872c-10.824,9.194-19.35,21.886-23.746,36.22
		c-1.131,3.572-1.941,7.254-2.563,10.978c-0.609,3.729-0.871,7.52-0.941,11.319c-0.072,3.803,0.207,7.615,0.672,11.409
		c0.51,3.809,1.314,7.476,2.348,11.271c0.047,0.157,0.102,0.316,0.15,0.474l6.5-13.463
		C107.181,125.532,107.065,124.638,106.946,123.739z"/>
	<path fill="#A41B5C" d="M219.747,62.619l-6.957-14.424c-0.006-0.003-0.012-0.005-0.018-0.008l6.957,14.418
		C219.735,62.609,219.741,62.613,219.747,62.619z"/>
	<path fill="#A41B5C" d="M140.702,56.712l5.523-11.509c-0.006,0.002-0.01,0.004-0.016,0.006l-5.521,11.512
		C140.692,56.718,140.698,56.715,140.702,56.712z"/>
	<polygon fill="#A41B5C" points="139.671,58.862 139.657,58.869 114.536,111.235 	"/>
	<path fill="#A41B5C" d="M148.894,39.645l8.463-17.636c-0.006,0.001-0.012,0.003-0.018,0.004l-8.461,17.637
		C148.882,39.648,148.888,39.646,148.894,39.645z"/>
	<path fill="#FFFFFF" d="M122.94,175.133c-0.004-0.004-0.008-0.008-0.012-0.012l-0.531,1.187c0.006,0.004,0.01,0.008,0.014,0.012
		L122.94,175.133z"/>
	<polygon fill="#FFFFFF" points="231.185,170.412 232.671,173.751 232.679,173.743 231.19,170.406 	"/>
	<path fill="#FFFFFF" d="M222.638,177.756c-2.965,2.27-6.16,5.018-9.549,6.018h6.91c0.291,0,0.582-0.146,0.875-0.328
		c1.338-0.941,2.66-1.766,3.924-2.758c2.836-2.218,5.459-4.525,7.873-6.994l-1.486-3.426
		C228.562,172.919,225.733,175.387,222.638,177.756z"/>
	<path fill="#FFFFFF" d="M125.433,177.059c-0.848-0.695-1.676-1.304-2.492-2.041l-0.529,1.244c0.738,0.652,1.488,1.088,2.248,1.711
		c2.66,2.186,5.453,4.801,8.34,5.801h2.426C131.938,181.773,128.589,179.645,125.433,177.059z"/>
	<path fill="#FFFFFF" d="M225.55,56.388c3.676,2.91,6.881,5.95,9.582,8.996c2.707,3.041,5.031,6.003,6.836,8.872
		c3.746,5.657,5.893,10.59,7.191,13.977c0.703,1.678,2.893,8.877,3.246,10.657c0.818,3.527,1.811,8.818,1.865,15.604
		c0.109,3.389-0.16,7.144-0.705,11.179c-0.223,1.674-0.537,3.406-0.908,5.166l1.002,2.076c1.27-6.877,1.449-13.147,1.273-18.439
		c-0.281-6.838-1.326-12.134-2.178-15.692c-0.375-1.796-0.9-3.119-1.139-4.032c-0.256-0.907-1.354-4.988-2.043-6.683
		c-1.273-3.423-3.391-8.386-6.975-14.218c-3.613-5.784-8.617-12.571-15.895-18.854c-4.473-3.891-9.773-7.657-15.861-10.836
		l1.947,4.034C217.538,50.632,221.815,53.423,225.55,56.388z"/>
	<path fill="#FFFFFF" d="M100.659,139.415c-1.033-3.795-1.838-7.462-2.348-11.271c-0.465-3.793-0.744-7.605-0.672-11.409
		c0.07-3.799,0.332-7.59,0.941-11.319c0.621-3.724,1.432-7.406,2.563-10.978c4.396-14.334,12.922-27.026,23.746-36.22l1.006-0.872
		l1.043-0.819l2.086-1.626c1.447-1.001,2.84-2.066,4.326-2.979c2.904-1.933,5.963-3.551,9.033-5.041
		c1.279-0.566,2.541-1.158,3.826-1.673l2.668-5.559c-9.498,3.256-18.715,8.404-26.701,15.437
		c-11.268,9.845-20.07,23.274-24.408,38.341c-1.096,3.76-1.857,7.623-2.414,11.517c-0.545,3.9-0.729,7.851-0.709,11.797
		c0.057,3.951,0.484,7.89,1.102,11.79c0.65,3.881,1.66,7.794,2.803,11.468c0.287,0.899,0.594,1.791,0.912,2.678l1.348-2.79
		C100.761,139.731,100.706,139.572,100.659,139.415z"/>
	<path fill="#FFFFFF" d="M212.79,48.194l-1.947-4.034c-0.006-0.003-0.012-0.007-0.018-0.01l1.947,4.036
		C212.778,48.189,212.784,48.191,212.79,48.194z"/>
	<path fill="#FFFFFF" d="M146.226,45.203l2.668-5.558c-0.006,0.001-0.012,0.003-0.016,0.005l-2.668,5.559
		C146.216,45.207,146.22,45.205,146.226,45.203z"/>
	<polygon fill="#FFFFFF" points="128.829,161.923 127.599,164.676 127.606,164.682 128.835,161.93 	"/>
	
		<rect x="225.271" y="159.064" transform="matrix(-0.4068 -0.9135 0.9135 -0.4068 172.8032 430.346)" fill="#FFFFFF" width="1.719" height="0.003"/>
	<path fill="#FFFFFF" d="M225.378,158.783c-2.553,3.05-5.207,5.697-7.857,7.921c-2.645,2.227-5.215,4.13-7.693,5.598
		c-4.895,3.054-9.141,4.762-12.051,5.792c-1.443,0.561-2.596,0.856-3.354,1.109c-0.766,0.237-1.557,0.457-2.336,0.649
		c-0.781,0.176-1.93,0.52-3.451,0.783c-3.021,0.62-7.547,1.353-13.326,1.261c-2.889,0.022-6.08-0.281-9.506-0.823
		c-3.428-0.538-7.08-1.437-10.857-2.73c-7.551-2.569-15.588-6.919-22.889-13.347c-1.094-0.973-2.164-2.006-3.223-3.066l-1.229,2.752
		c0.885,0.816,1.781,1.604,2.691,2.354c7.828,6.443,16.391,10.412,24.199,12.704c7.844,2.329,15.008,2.805,20.814,2.751
		c5.828-0.099,10.357-0.841,13.404-1.488c1.539-0.279,2.674-0.63,3.455-0.813c0.779-0.197,1.182-0.301,1.182-0.301
		s0.4-0.119,1.17-0.349c0.766-0.246,1.928-0.531,3.387-1.08c2.939-1.007,7.209-2.697,12.248-5.61
		c4.982-2.927,10.84-7.004,16.322-12.998l-0.699-1.57C225.646,158.445,225.515,158.621,225.378,158.783z"/>
	<path fill="#FFFFFF" d="M228.601,71.381c-2.641-3.153-5.613-6.091-8.854-8.763l4.242,8.793c0.646,0.723,1.281,1.453,1.891,2.201
		c0.49,0.572,0.959,1.16,1.398,1.768l1.342,1.798c0.822,1.244,1.701,2.443,2.447,3.719c1.586,2.494,2.902,5.115,4.107,7.743
		c0.557,1.335,1.154,2.646,1.613,4.001c0.238,0.674,0.502,1.337,0.719,2.014c0.211,0.679,0.42,1.356,0.629,2.032l0.303,0.969
		l0.273,1.049c0.182,0.698,0.361,1.395,0.541,2.088c0.26,1.294,0.555,2.546,0.762,3.838l4.355,9.027
		c-0.063-3.092-0.336-6.232-0.813-9.389C241.8,92.811,236.812,81.104,228.601,71.381z"/>
	<path fill="#FFFFFF" d="M109.925,125.773c-0.174,0-0.332-1.638-0.494-2.581c-0.393-2.886-0.689-5.715-0.686-8.697
		c-0.055-1.492,0.049-2.931,0.09-4.438l0.184-2.229c0.053-0.756,0.137-1.497,0.25-2.249c0.762-6.039,2.4-12.089,4.961-17.849
		c2.543-5.767,6.021-11.209,10.242-16.082c2.113-2.438,4.445-4.694,6.9-6.819c2.471-2.11,5.141-3.991,7.898-5.733
		c0.127-0.079,0.26-0.149,0.387-0.227l1.031-2.148c-6.422,3.849-12.184,8.694-17.004,14.257c-8.594,9.896-14.17,22.012-16.23,34.352
		c-0.146,0.769-0.262,1.541-0.346,2.316c-0.092,0.774-0.184,1.547-0.277,2.317c-0.102,1.548-0.264,3.09-0.264,4.631
		c-0.115,3.081,0.078,6.137,0.379,9.146c0.119,0.898,0.234,1.562,0.363,2.456l0.092-0.421H109.925z"/>
	<polygon fill="#FFFFFF" points="139.671,58.862 140.702,56.712 140.688,56.721 139.657,58.869 	"/>
	<g>
		<path fill="#FFFFFF" d="M201.019,23.796l-0.018-0.039c-11.871-2.147-25.809-3.428-43.645-1.782l-0.018,0.037
			c0.006-0.001,0.012-0.234,0.018-0.235l-42.82,88.996h36.826l27.041-61.535c-0.006,0-0.014,0.114-0.021,0.114
			c0.008-0.002,0.018,0.047,0.025,0.051c0.008,0.003,0.014,0.035,0.021,0.039c-0.006,0-0.012-0.218-0.018-0.218l33.564,76.549
			H107.401c-0.232,1-8.999,17.159-8.999,17.159v0.116l-6.127,13.379c5.467,10.43,13.269,20.346,22.097,27.346h4.482l7.548-19.066
			v-0.115l7.653-14.818h88.139l8.996,20.402l0,0l1.488,3.452l4.445,10.025c10.557-9.316,18.992-21.093,24.482-34.292L201.019,23.796
			z"/>
	</g>
</g>
</svg>
