<?xml version="1.0" encoding="utf-8"?>
<!-- Generator: Adobe Illustrator 16.0.0, SVG Export Plug-In . SVG Version: 6.00 Build 0)  -->
<!DOCTYPE svg PUBLIC "-//W3C//DTD SVG 1.1//EN" "http://www.w3.org/Graphics/SVG/1.1/DTD/svg11.dtd">
<svg version="1.1" id="Warstwa_1" xmlns="http://www.w3.org/2000/svg" xmlns:xlink="http://www.w3.org/1999/xlink" x="0px" y="0px"
	 width="255.656px" height="40.564px" viewBox="0 0 255.656 40.564" enable-background="new 0 0 255.656 40.564"
	 xml:space="preserve">
<g>
	<g>
		<path fill="#282727" d="M69.627,3.364h-3.019l-6.699,15.334h2.267c0.229,0,0.443-0.038,0.665-0.101
			c0.222-0.07,0.431-0.165,0.62-0.292c0.196-0.126,0.367-0.267,0.52-0.431c0.158-0.165,0.271-0.349,0.359-0.538l0.729-1.703h6.098
			l0.747,1.703c0.095,0.216,0.215,0.405,0.368,0.576c0.145,0.165,0.316,0.304,0.5,0.424c0.184,0.121,0.386,0.209,0.608,0.267
			c0.215,0.063,0.442,0.095,0.677,0.095h2.254L69.627,3.364z M66.469,12.462l1.349-3.209c0.057-0.146,0.107-0.278,0.146-0.404
			c0.039-0.134,0.07-0.247,0.089-0.349c0.031-0.121,0.051-0.228,0.063-0.33c0.006,0.103,0.024,0.209,0.057,0.323
			c0.02,0.103,0.052,0.216,0.082,0.342c0.039,0.126,0.09,0.267,0.152,0.418l1.336,3.209H66.469z"/>
		<path fill="#282727" d="M81.309,15.425V3.364h-3.501v15.334h9.554v-3.273H81.309z"/>
		<path fill="#282727" d="M93.16,15.425V3.364h-3.5v15.334h9.554v-3.273H93.16z"/>
		<path fill="#282727" d="M101.898,3.364v15.334h3.514V3.364H101.898z"/>
		<path fill="#282727" d="M116.985,3.364h-3.021l-6.698,15.334h2.267c0.221,0,0.443-0.038,0.665-0.101
			c0.222-0.07,0.431-0.165,0.621-0.292c0.196-0.126,0.367-0.267,0.519-0.431c0.152-0.165,0.272-0.349,0.361-0.538l0.729-1.703h6.097
			l0.747,1.703c0.095,0.216,0.215,0.405,0.367,0.576c0.146,0.165,0.316,0.304,0.5,0.424c0.184,0.121,0.386,0.209,0.606,0.267
			c0.215,0.063,0.443,0.095,0.678,0.095h2.255L116.985,3.364z M113.827,12.462l1.348-3.209c0.058-0.146,0.108-0.278,0.146-0.404
			c0.039-0.134,0.07-0.247,0.089-0.349c0.032-0.121,0.051-0.228,0.063-0.33c0.006,0.103,0.024,0.209,0.057,0.323
			c0.02,0.103,0.051,0.216,0.083,0.342c0.039,0.126,0.089,0.267,0.152,0.418l1.336,3.209H113.827z"/>
		<path fill="#282727" d="M135.992,3.364v9.681c0-0.019-0.014-0.069-0.032-0.157c-0.019-0.083-0.05-0.185-0.095-0.305
			s-0.096-0.241-0.152-0.38c-0.057-0.133-0.126-0.26-0.201-0.374l-5.363-7.851c-0.14-0.209-0.342-0.361-0.607-0.462
			c-0.266-0.102-0.563-0.152-0.904-0.152h-3.444v15.334h3.481V8.094l7.331,10.604h3.478V3.364H135.992z"/>
		<path fill="#282727" d="M154.872,14.355c-0.26-0.114-0.583-0.171-0.95-0.171c-0.48,0-0.904,0.127-1.284,0.38
			c-0.349,0.24-0.729,0.424-1.128,0.563c-0.404,0.14-0.836,0.208-1.292,0.208c-0.595,0-1.151-0.113-1.677-0.335
			s-0.995-0.531-1.394-0.924c-0.399-0.392-0.715-0.854-0.949-1.374c-0.234-0.525-0.355-1.083-0.355-1.678
			c0-0.589,0.121-1.152,0.355-1.671c0.234-0.525,0.551-0.981,0.949-1.374c0.397-0.388,0.867-0.697,1.394-0.924
			c0.524-0.229,1.082-0.343,1.677-0.343c0.449,0,0.882,0.07,1.279,0.203c0.405,0.141,0.785,0.329,1.141,0.57
			c0.386,0.266,0.815,0.393,1.284,0.393c0.35,0,0.665-0.057,0.938-0.184c0.285-0.127,0.525-0.298,0.741-0.506l0.912-0.912
			c-0.443-0.468-0.912-0.894-1.413-1.272c-0.493-0.38-1.007-0.695-1.537-0.962c-0.532-0.266-1.077-0.468-1.642-0.606
			c-0.563-0.146-1.133-0.215-1.703-0.215c-0.722,0-1.41,0.088-2.083,0.277c-0.671,0.185-1.298,0.443-1.886,0.785
			c-0.583,0.335-1.115,0.747-1.597,1.215c-0.476,0.476-0.886,1-1.229,1.583c-0.342,0.576-0.606,1.197-0.798,1.868
			c-0.189,0.665-0.277,1.355-0.277,2.077s0.088,1.412,0.277,2.083c0.19,0.665,0.456,1.292,0.798,1.868
			c0.343,0.576,0.754,1.102,1.229,1.577c0.48,0.475,1.014,0.88,1.597,1.222c0.588,0.336,1.215,0.595,1.886,0.785
			c0.673,0.184,1.361,0.278,2.083,0.278c0.57,0,1.141-0.075,1.703-0.215c0.563-0.146,1.108-0.348,1.642-0.613
			c0.53-0.261,1.044-0.583,1.537-0.963c0.501-0.373,0.97-0.798,1.413-1.266l-0.912-0.912
			C155.378,14.646,155.138,14.476,154.872,14.355z"/>
		<path fill="#282727" d="M169.478,6.644v-3.28h-10.206v15.334h10.206v-3.273h-6.711v-2.823h5.458V9.328h-5.458V6.644H169.478z"/>
		<path fill="#282727" d="M193.055,3.364c-0.234,0-0.463,0.032-0.689,0.095c-0.229,0.058-0.438,0.146-0.627,0.26
			c-0.196,0.113-0.367,0.26-0.513,0.431c-0.152,0.171-0.267,0.361-0.336,0.576l-2.665,7.673c-0.045,0.106-0.089,0.241-0.121,0.386
			c-0.031,0.146-0.058,0.285-0.083,0.412c-0.024,0.152-0.043,0.304-0.05,0.462c-0.02-0.165-0.044-0.323-0.076-0.468
			c-0.025-0.133-0.058-0.267-0.088-0.412c-0.031-0.139-0.07-0.272-0.104-0.38l-2.684-7.673c-0.075-0.196-0.185-0.387-0.322-0.552
			c-0.146-0.165-0.311-0.31-0.501-0.431c-0.189-0.114-0.393-0.209-0.627-0.279c-0.229-0.063-0.462-0.101-0.702-0.101h-3.83v15.334
			h3.501V8.467l3.933,10.231h3.031l3.862-10.231v10.231h3.495V3.364H193.055z"/>
		<path fill="#282727" d="M210.776,6.644v-3.28H200.57v15.334h10.206v-3.273h-6.705v-2.823h5.451V9.328h-5.451V6.644H210.776z"/>
		<path fill="#282727" d="M227.561,8.999c-0.185-0.651-0.443-1.26-0.779-1.83c-0.335-0.569-0.741-1.083-1.216-1.551
			c-0.476-0.469-0.993-0.867-1.563-1.203c-0.577-0.335-1.189-0.595-1.849-0.771c-0.658-0.185-1.342-0.279-2.045-0.279h-6.344v15.334
			h6.344c0.703,0,1.387-0.095,2.045-0.271c0.658-0.185,1.271-0.443,1.849-0.772c0.57-0.329,1.089-0.728,1.563-1.197
			c0.475-0.468,0.881-0.987,1.216-1.551c0.336-0.57,0.596-1.178,0.779-1.83c0.188-0.652,0.277-1.335,0.277-2.039
			C227.839,10.329,227.75,9.651,227.561,8.999z M223.989,12.652c-0.228,0.506-0.538,0.943-0.924,1.323
			c-0.394,0.374-0.842,0.671-1.351,0.887c-0.512,0.215-1.044,0.329-1.606,0.329h-2.85V6.878h2.85c0.563,0,1.096,0.108,1.606,0.323
			c0.509,0.215,0.957,0.513,1.351,0.894c0.386,0.38,0.696,0.822,0.924,1.329c0.228,0.508,0.342,1.045,0.342,1.614
			C224.331,11.608,224.217,12.146,223.989,12.652z"/>
		<path fill="#282727" d="M231.049,3.364v15.334h3.508V3.364H231.049z"/>
		<path fill="#282727" d="M246.136,3.364h-3.021l-6.698,15.334h2.268c0.221,0,0.441-0.038,0.664-0.101
			c0.221-0.07,0.431-0.165,0.62-0.292c0.196-0.126,0.366-0.267,0.52-0.431c0.158-0.165,0.272-0.349,0.361-0.538l0.728-1.703h6.097
			l0.748,1.703c0.096,0.216,0.216,0.405,0.367,0.576c0.146,0.165,0.316,0.304,0.5,0.424c0.185,0.121,0.386,0.209,0.602,0.267
			c0.223,0.063,0.449,0.095,0.685,0.095h2.254L246.136,3.364z M242.977,12.462l1.349-3.209c0.058-0.146,0.103-0.278,0.146-0.404
			c0.037-0.134,0.069-0.247,0.089-0.349c0.031-0.121,0.051-0.228,0.063-0.33c0.006,0.103,0.025,0.209,0.058,0.323
			c0.02,0.103,0.051,0.216,0.082,0.342c0.039,0.126,0.089,0.267,0.151,0.418l1.336,3.209H242.977z"/>
	</g>
	<path fill="#282727" d="M69.925,27.17c-0.202-0.469-0.475-0.875-0.822-1.223c-0.349-0.348-0.761-0.627-1.229-0.83
		c-0.469-0.201-0.962-0.303-1.495-0.303h-4.381v12.264h1.69V32.52h2.689c0.532,0,1.026-0.103,1.495-0.306
		c0.468-0.2,0.88-0.479,1.229-0.827c0.348-0.351,0.62-0.755,0.822-1.224c0.203-0.469,0.305-0.969,0.305-1.5
		C70.229,28.139,70.128,27.639,69.925,27.17z M68.368,29.512c-0.108,0.26-0.266,0.487-0.462,0.684
		c-0.197,0.197-0.424,0.348-0.69,0.463c-0.259,0.107-0.537,0.164-0.836,0.164H63.69v-4.311h2.689c0.299,0,0.577,0.057,0.836,0.164
		c0.267,0.112,0.494,0.266,0.69,0.461c0.196,0.196,0.354,0.432,0.462,0.69c0.114,0.26,0.171,0.545,0.171,0.836
		C68.539,28.967,68.482,29.247,68.368,29.512z"/>
	<path fill="#282727" d="M83.93,29.278c-0.146-0.531-0.354-1.031-0.634-1.494c-0.271-0.469-0.601-0.893-0.98-1.271
		c-0.374-0.382-0.798-0.703-1.268-0.978c-0.461-0.277-0.962-0.486-1.493-0.633c-0.539-0.152-1.09-0.221-1.666-0.221
		s-1.134,0.067-1.665,0.221c-0.532,0.146-1.032,0.354-1.5,0.633c-0.462,0.273-0.888,0.596-1.268,0.978
		c-0.379,0.379-0.702,0.803-0.975,1.271c-0.278,0.463-0.487,0.963-0.641,1.494c-0.145,0.531-0.221,1.09-0.221,1.666
		c0,0.867,0.165,1.678,0.495,2.438c0.329,0.761,0.778,1.425,1.341,1.988c0.57,0.568,1.234,1.021,1.995,1.349
		c0.754,0.321,1.571,0.487,2.438,0.487c0.575,0,1.127-0.069,1.666-0.223c0.531-0.146,1.031-0.361,1.493-0.633
		c0.47-0.271,0.894-0.603,1.268-0.98c0.38-0.375,0.709-0.799,0.98-1.268c0.279-0.461,0.488-0.963,0.634-1.494
		c0.151-0.531,0.222-1.088,0.222-1.664S84.082,29.809,83.93,29.278z M82.101,32.721c-0.241,0.559-0.57,1.039-0.982,1.45
		c-0.412,0.418-0.897,0.74-1.449,0.982c-0.551,0.24-1.146,0.359-1.778,0.359c-0.634,0-1.229-0.119-1.779-0.359
		c-0.557-0.242-1.038-0.564-1.45-0.982c-0.418-0.411-0.741-0.893-0.98-1.45c-0.241-0.55-0.361-1.146-0.361-1.777
		s0.12-1.229,0.361-1.779c0.24-0.559,0.563-1.039,0.98-1.449c0.412-0.418,0.894-0.741,1.45-0.981
		c0.551-0.24,1.146-0.361,1.779-0.361c0.633,0,1.229,0.121,1.778,0.361c0.551,0.24,1.038,0.563,1.449,0.981
		c0.412,0.41,0.741,0.892,0.982,1.449c0.24,0.551,0.36,1.146,0.36,1.779S82.341,32.172,82.101,32.721z"/>
	<path fill="#282727" d="M88.127,35.387V24.815h-1.695v12.264h6.989v-1.69L88.127,35.387L88.127,35.387z"/>
	<path fill="#282727" d="M100.993,30.766c-0.17-0.134-0.348-0.248-0.532-0.343c-0.188-0.096-0.386-0.188-0.576-0.271
		c-0.195-0.084-0.393-0.158-0.595-0.229c-0.203-0.069-0.406-0.146-0.602-0.229c-0.406-0.139-0.754-0.266-1.032-0.385
		c-0.285-0.121-0.513-0.248-0.69-0.381c-0.178-0.134-0.305-0.285-0.387-0.455c-0.082-0.172-0.121-0.381-0.121-0.627
		c0-0.209,0.051-0.406,0.158-0.591c0.108-0.178,0.253-0.336,0.431-0.469c0.178-0.127,0.386-0.233,0.62-0.303
		c0.24-0.076,0.494-0.115,0.761-0.115c0.202,0,0.411,0.051,0.639,0.146c0.234,0.094,0.457,0.221,0.678,0.387
		c0.209,0.133,0.45,0.195,0.722,0.195c0.312,0,0.59-0.103,0.83-0.312l0.438-0.322c-0.158-0.188-0.349-0.387-0.583-0.602
		c-0.235-0.209-0.5-0.404-0.791-0.582c-0.292-0.172-0.595-0.324-0.931-0.432c-0.33-0.113-0.665-0.17-1-0.17
		c-0.463,0-0.912,0.067-1.35,0.209c-0.442,0.146-0.835,0.348-1.178,0.62c-0.341,0.271-0.613,0.605-0.822,1
		c-0.209,0.394-0.315,0.843-0.315,1.343c0,0.545,0.095,1.006,0.291,1.373c0.189,0.366,0.442,0.678,0.76,0.932
		c0.316,0.252,0.678,0.469,1.077,0.646c0.404,0.178,0.815,0.35,1.24,0.52c0.285,0.115,0.569,0.223,0.868,0.33
		c0.291,0.106,0.558,0.24,0.797,0.393c0.235,0.158,0.432,0.343,0.577,0.558c0.146,0.215,0.223,0.494,0.223,0.823
		c0,0.341-0.076,0.646-0.234,0.904c-0.159,0.26-0.354,0.476-0.603,0.646c-0.24,0.178-0.513,0.311-0.804,0.397
		c-0.297,0.097-0.588,0.14-0.867,0.14c-0.342,0-0.646-0.052-0.911-0.15c-0.267-0.102-0.507-0.242-0.723-0.426l-0.14-0.107
		c-0.253-0.271-0.569-0.404-0.943-0.404c-0.228,0-0.456,0.063-0.67,0.195l-0.412,0.215c0.031,0.07,0.076,0.152,0.133,0.254
		c0.063,0.107,0.134,0.224,0.209,0.349c0.09,0.127,0.185,0.254,0.299,0.387c0.113,0.133,0.247,0.266,0.397,0.398
		c0.734,0.657,1.659,0.981,2.761,0.981c0.552,0,1.083-0.088,1.59-0.272c0.513-0.189,0.955-0.449,1.349-0.785
		c0.386-0.328,0.697-0.728,0.918-1.189c0.234-0.463,0.348-0.975,0.348-1.539C102.291,32.311,101.86,31.424,100.993,30.766z"/>
	<path fill="#282727" d="M104.532,24.815v12.264h1.69V24.815H104.532z M113.921,36.932l-4.387-5.92
		c-0.057-0.082-0.114-0.14-0.171-0.171c-0.05-0.038-0.075-0.057-0.088-0.069c0.013-0.006,0.039-0.025,0.088-0.063
		c0.058-0.039,0.115-0.096,0.171-0.178l4.217-5.717h-1.165c-0.33,0-0.627,0.063-0.88,0.194c-0.253,0.128-0.462,0.316-0.627,0.576
		l-3.431,4.654c-0.076,0.102-0.146,0.189-0.223,0.26c-0.069,0.063-0.133,0.119-0.195,0.158c-0.059,0.043-0.108,0.068-0.146,0.088
		c-0.044,0.021-0.069,0.025-0.069,0.025c0,0.006,0.024,0.02,0.069,0.039c0.038,0.018,0.088,0.051,0.146,0.088
		c0.063,0.037,0.126,0.096,0.195,0.158c0.076,0.069,0.146,0.146,0.223,0.246l3.71,5.002c0.171,0.26,0.373,0.45,0.633,0.582
		c0.253,0.129,0.545,0.19,0.874,0.19h1.165L113.921,36.932z"/>
	<path fill="#282727" d="M120.859,24.815h-1.651l-5.287,12.117l-0.063,0.146h0.975c0.272,0,0.514-0.07,0.734-0.215
		c0.222-0.141,0.38-0.33,0.48-0.57l0.849-1.948h6.268l0.854,1.948c0.106,0.248,0.266,0.437,0.487,0.576
		c0.216,0.139,0.456,0.209,0.723,0.209h0.98L120.859,24.815z M117.644,32.647l2.234-5.129c0.038-0.103,0.07-0.215,0.096-0.33
		c0.024-0.119,0.044-0.252,0.057-0.398c0.013,0.285,0.069,0.533,0.165,0.729l2.229,5.129L117.644,32.647L117.644,32.647z"/>
	<path fill="#282727" d="M34.801,32.125"/>
	<g>
		<path fill="#282727" d="M15.4,8.844c2.636-0.524,3.187-0.739,5.042-0.846c3.304-0.258,6.524,0.144,9.164,1.369
			c0.562,0.265,2.782,1.556,3.332,1.911c3.789,2.459,6.396,5.725,7.906,7.448c0.716,0.819,1.395,1.406,2.064,1.819
			c1.743,1.064,3.492,0.937,6.074,0.594c1.775-0.238,2.808-0.717,2.931-0.774c0.006,0,0.006-0.007,0.012-0.007
			c0,0-1.381-0.742-3.316-2.77c-1.723-1.8-3.36-3.616-5.776-6.258C40.519,8.802,32.344-1.417,18.079,5.875
			c-2.158,1.104-3.511,2.312-4.641,3.369L15.4,8.844z"/>
		<path fill="#282727" d="M31.724,32.62c3.602,0,7.307-1.026,10.727-2.621c-1.291,1.445-2.807,2.906-5.925,4.681
			c-13.522,7.707-23.727-3.582-25.01-5.156c-2.266-2.777-3.833-4.635-5.563-6.437c-1.943-2.021-3.124-2.774-3.124-2.774
			s0.006,0,0.014-0.007c0.115-0.071,1.13-0.626,2.886-0.942c2.238-0.401,3.969-0.446,5.751,0.709c0.006,0,0.012,0.006,0.019,0.013
			c0.646,0.42,1.305,1.007,1.995,1.789c1.742,1.97,5.054,6.008,9.9,8.486C25.973,31.948,28.813,32.62,31.724,32.62z"/>
		<path fill="#282727" d="M21.435,11.135c-0.483,0.31-0.96,0.664-1.438,1.084c-4.485,3.904-8.391,7.926-8.391,7.926
			c-0.04-0.021-0.071-0.039-0.111-0.06c-0.006-0.006-0.012-0.013-0.019-0.013c-1.949-1.078-3.932-1.033-5.913-0.594
			c-1.607,0.349-2.608,0.774-2.725,0.827c0.671-0.601,3.764-3.692,5.866-5.965C12.251,12.781,17.014,11.29,21.435,11.135z"/>
		<path fill="#282727" d="M51.914,20.365c-1.034,0.639-3.215,2.685-5.344,4.995c-2.504,1.316-7.896,3.795-13.51,4.021
			c0.471-0.303,0.948-0.651,1.414-1.051c4.37-3.758,8.204-7.553,8.436-7.785c0.007-0.007,0.013-0.013,0.013-0.013
			c1.711,0.949,4.675,0.833,6.313,0.484C50.855,20.674,51.804,20.397,51.914,20.365z"/>
		<circle fill="#282727" cx="27.378" cy="20.269" r="6.248"/>
	</g>
</g>
</svg>
