<?xml version="1.0" encoding="utf-8"?>
<!-- Generator: Adobe Illustrator 16.0.0, SVG Export Plug-In . SVG Version: 6.00 Build 0)  -->
<!DOCTYPE svg PUBLIC "-//W3C//DTD SVG 1.1//EN" "http://www.w3.org/Graphics/SVG/1.1/DTD/svg11.dtd">
<svg version="1.1" id="Layer_1" xmlns="http://www.w3.org/2000/svg" xmlns:xlink="http://www.w3.org/1999/xlink" x="0px" y="0px"
	 width="345.83px" height="36.851px" viewBox="0 0 345.83 36.851" enable-background="new 0 0 345.83 36.851" xml:space="preserve">
<g>
	<path fill-rule="evenodd" clip-rule="evenodd" d="M135.327,2.471l6.432,6.434c0.758,0.757,0.758,1.998,0,2.756l-6.432,6.433
		c-0.759,0.758-2,0.758-2.758,0l-6.432-6.433c-0.759-0.758-0.759-1.999,0-2.756l6.432-6.434
		C133.327,1.713,134.568,1.713,135.327,2.471"/>
	<path fill-rule="evenodd" clip-rule="evenodd" d="M146.391,13.417l6.434,6.431c0.758,0.758,0.758,1.999,0,2.758l-6.434,6.432
		c-0.758,0.758-1.997,0.758-2.756,0l-6.432-6.432c-0.758-0.759-0.758-2,0-2.758l6.432-6.431
		C144.394,12.658,145.633,12.658,146.391,13.417"/>
	<path fill-rule="evenodd" clip-rule="evenodd" d="M157.366,2.44l6.434,6.433c0.758,0.757,0.758,1.998,0,2.756l-6.434,6.433
		c-0.758,0.758-1.998,0.758-2.756,0l-6.432-6.433c-0.758-0.758-0.758-1.999,0-2.756l6.432-6.433
		C155.368,1.683,156.608,1.683,157.366,2.44"/>
	<path d="M39.596,20.879c0,0.667-0.364,1.002-1.094,1.002s-1.094-0.335-1.094-1.002V11.01c0-0.637,0.349-0.955,1.048-0.955
		c0.761,0,1.14,0.318,1.14,0.955V20.879z M60.278,18.125c0,2.421-1.798,3.632-5.395,3.632h-6.771c-3.802,0-5.704-1.163-5.704-3.492
		v-1.605c0-2.421,1.861-3.632,5.586-3.632h10.074c-0.158-1.225-1.102-1.838-2.828-1.838h-2.805c-0.554,0-0.831-0.318-0.831-0.955
		c0-0.605,0.277-0.908,0.831-0.908h2.448c3.597,0,5.395,1.241,5.395,3.725V18.125z M58.093,14.913H47.47
		c-1.805,0-2.708,0.56-2.708,1.676v1.7c0,1.055,0.967,1.581,2.899,1.581h7.626c1.871,0,2.806-0.799,2.806-2.396V14.913z
		 M79.908,20.902c0,0.668-0.394,1.002-1.181,1.002c-0.804,0-1.205-0.334-1.205-1.002v-8.17c0-1.009-1.053-1.512-3.157-1.512h-5.881
		c-2.154,0-3.23,0.503-3.23,1.512v8.17c0,0.668-0.387,1.002-1.157,1.002c-0.787,0-1.181-0.334-1.181-1.002v-8.17
		c0-2.25,2.073-3.375,6.219-3.375h4.531c4.162,0,6.242,1.126,6.242,3.375V20.902z M89.131,21.885c-4.904,0-7.356-1.225-7.356-3.678
		V13.11c0-2.438,2.229-3.655,6.688-3.655h9.949c0.854,0,1.281,0.302,1.281,0.908c0,0.637-0.428,0.956-1.281,0.956H88.1
		c-2.415,0-3.623,0.573-3.623,1.721v5.074c0,1.258,1.385,1.887,4.152,1.887h9.782c0.779,0,1.17,0.332,1.17,1
		c0,0.589-0.391,0.885-1.17,0.885H89.131z M118.554,15.72c0,0.699-0.347,1.047-1.038,1.047h-13.83v1.536
		c0,1.116,1.199,1.675,3.597,1.675h2.582c0.66,0,0.989,0.312,0.989,0.932c0,0.638-0.329,0.955-0.989,0.955h-1.979
		c-4.361,0-6.541-1.279-6.541-3.84v-4.773c0-2.545,2.155-3.817,6.468-3.817h5.312c3.619,0,5.43,1.103,5.43,3.306V15.72z
		 M103.686,14.813h12.599v-1.84c0-1.117-0.9-1.674-2.702-1.674h-6.3c-2.397,0-3.597,0.589-3.597,1.769V14.813z M20.154,17.458H7.678
		l-2.7,4.024c-0.123,0.172-0.271,0.3-0.441,0.387c-0.171,0.084-0.327,0.127-0.466,0.127c-0.325,0-0.613-0.104-0.861-0.314
		s-0.373-0.469-0.373-0.779c0-0.201,0.055-0.404,0.164-0.604l9.333-13.99c0.203-0.294,0.438-0.512,0.711-0.652
		c0.271-0.139,0.554-0.209,0.849-0.209c0.296,0,0.579,0.07,0.85,0.209c0.272,0.141,0.5,0.358,0.688,0.652l9.382,13.967
		c0.092,0.108,0.149,0.219,0.173,0.337c0.023,0.117,0.035,0.213,0.035,0.291c0,0.324-0.12,0.58-0.36,0.768s-0.523,0.279-0.85,0.279
		c-0.156,0-0.322-0.041-0.5-0.128c-0.18-0.084-0.339-0.213-0.478-0.384L20.154,17.458z M8.958,15.479h9.847l-4.865-7.775
		L8.958,15.479z M29.583,20.885c0,0.667-0.371,1-1.116,1c-0.761,0-1.142-0.333-1.142-1V6.383c0-0.667,0.373-1.001,1.118-1.001
		c0.76,0,1.14,0.334,1.14,1.001V20.885z M34.424,20.885c0,0.667-0.372,1-1.116,1c-0.762,0-1.141-0.333-1.141-1V6.383
		c0-0.667,0.372-1.001,1.117-1.001c0.761,0,1.14,0.334,1.14,1.001V20.885z M39.992,7.541c0,0.792-0.528,1.187-1.583,1.187
		c-0.994,0-1.489-0.395-1.489-1.187c0-0.792,0.495-1.187,1.489-1.187C39.464,6.354,39.992,6.75,39.992,7.541z"/>
	<path d="M202.2,15.72c0,0.699-0.344,1.048-1.029,1.048h-13.692v1.536c0,1.117,1.188,1.676,3.562,1.676h2.557
		c0.654,0,0.979,0.31,0.979,0.93c0,0.638-0.325,0.955-0.979,0.955h-1.96c-4.317,0-6.475-1.279-6.475-3.84v-4.773
		c0-2.545,2.134-3.816,6.404-3.816h5.257c3.584,0,5.377,1.102,5.377,3.305V15.72z M211.003,21.871c-4.985,0-7.478-1.227-7.478-3.679
		v-5.097c0-2.437,2.267-3.655,6.797-3.655h10.113c0.868,0,1.303,0.302,1.303,0.908c0,0.637-0.435,0.955-1.303,0.955h-10.48
		c-2.455,0-3.684,0.574-3.684,1.723V18.1c0,1.256,1.408,1.885,4.223,1.885h9.941c0.792,0,1.19,0.333,1.19,1.002
		c0,0.589-0.398,0.885-1.19,0.885H211.003z M240.973,20.887c0,0.667-0.387,1-1.162,1c-0.776,0-1.163-0.333-1.163-1v-7.566
		c0-1.412-1.298-2.118-3.894-2.118h-8.401v9.684c0,0.667-0.389,1-1.164,1c-0.758,0-1.139-0.333-1.139-1V6.385
		c0-0.667,0.381-1.001,1.139-1.001c0.775,0,1.164,0.334,1.164,1.001V9.34h7.69c4.62,0,6.93,1.312,6.93,3.934V20.887z M260.5,20.873
		c0,0.667-0.4,1.002-1.204,1.002c-0.819,0-1.229-0.335-1.229-1.002v-8.17c0-1.007-1.075-1.512-3.222-1.512h-6
		c-2.196,0-3.294,0.504-3.294,1.512v8.17c0,0.667-0.394,1.002-1.18,1.002c-0.804,0-1.204-0.335-1.204-1.002v-8.17
		c0-2.249,2.113-3.374,6.342-3.374h4.623c4.245,0,6.367,1.125,6.367,3.374V20.873z M279.681,18.094c0,2.514-2.024,3.771-6.074,3.771
		h-4.725c-4.13,0-6.194-1.258-6.194-3.771v-4.794c0-2.576,2.089-3.864,6.267-3.864h4.652c4.05,0,6.074,1.28,6.074,3.841V18.094z
		 M277.27,13.09c0-1.195-1.101-1.794-3.301-1.794h-5.352c-2.395,0-3.592,0.668-3.592,2.003v4.794c0,1.258,1.197,1.885,3.592,1.885
		h5.352c2.2,0,3.301-0.627,3.301-1.885V13.09z M284.503,20.873c0,0.667-0.373,1-1.117,1c-0.761,0-1.141-0.333-1.141-1V6.371
		c0-0.667,0.373-1.001,1.116-1.001c0.762,0,1.142,0.334,1.142,1.001V20.873z M323.439,21.66c0,2.482-2.116,3.723-6.348,3.723h-1.915
		c-0.672,0-1.007-0.302-1.007-0.906c0-0.621,0.335-0.932,1.007-0.932h2.203c2.507,0,3.76-0.513,3.76-1.535v-0.165h-8
		c-4.52,0-6.778-1.247-6.778-3.746v-4.912c0-2.514,2.06-3.771,6.18-3.771h4.168c4.486,0,6.73,1.264,6.73,3.794V21.66z
		 M321.068,19.961V13.35c0-1.381-1.238-2.071-3.713-2.071h-5.221c-2.301,0-3.449,0.62-3.449,1.862v4.934
		c0,1.257,1.332,1.886,3.999,1.886H321.068z M342.994,21.986c0,2.284-1.791,3.424-5.371,3.424h-2.963
		c-0.601,0-0.899-0.312-0.899-0.932c0-0.605,0.299-0.907,0.899-0.907h3.183c1.879,0,2.817-0.528,2.817-1.585v-0.115h-8.698
		c-4.113,0-6.172-1.201-6.172-3.607V10.21c0-0.636,0.396-0.954,1.19-0.954c0.778,0,1.167,0.318,1.167,0.954v8.054
		c0,1.148,1.125,1.723,3.378,1.723h9.135V10.21c0-0.636,0.39-0.954,1.167-0.954s1.167,0.318,1.167,0.954V21.986z M303.977,18.094
		c0,2.514-2.023,3.771-6.073,3.771h-4.725c-4.13,0-6.194-1.258-6.194-3.771v-4.794c0-2.576,2.089-3.864,6.267-3.864h4.652
		c4.05,0,6.073,1.28,6.073,3.841V18.094z M301.566,13.09c0-1.195-1.101-1.794-3.303-1.794h-5.35c-2.395,0-3.592,0.668-3.592,2.003
		v4.794c0,1.258,1.197,1.885,3.592,1.885h5.35c2.202,0,3.303-0.627,3.303-1.885V13.09z M187.479,14.813h12.475v-1.839
		c0-1.117-0.893-1.675-2.676-1.675h-6.237c-2.373,0-3.562,0.59-3.562,1.769V14.813z M182.449,7.435v13.43
		c0,0.684-0.411,1.025-1.234,1.025c-0.806,0-1.209-0.342-1.209-1.025V7.435h-6.682c-0.606,0-0.908-0.333-0.908-1
		c0-0.621,0.302-0.93,0.908-0.93h15.805c0.575,0,0.862,0.309,0.862,0.93c0,0.667-0.287,1-0.862,1H182.449z"/>
	<path d="M312.005,32.465h-6.907l-1.496,2.231c-0.068,0.094-0.15,0.164-0.244,0.212c-0.096,0.047-0.181,0.07-0.257,0.07
		c-0.182,0-0.341-0.059-0.479-0.175c-0.137-0.115-0.206-0.261-0.206-0.431c0-0.111,0.03-0.225,0.091-0.336l5.168-7.746
		c0.112-0.162,0.242-0.283,0.393-0.359c0.151-0.078,0.308-0.117,0.471-0.117s0.32,0.039,0.47,0.117
		c0.152,0.076,0.277,0.197,0.382,0.359l5.193,7.733c0.052,0.062,0.084,0.123,0.097,0.187c0.014,0.064,0.019,0.119,0.019,0.162
		c0,0.18-0.066,0.323-0.199,0.425c-0.133,0.104-0.289,0.155-0.47,0.155c-0.087,0-0.178-0.023-0.277-0.071
		c-0.099-0.047-0.187-0.118-0.264-0.212L312.005,32.465z M305.806,31.37h5.452l-2.694-4.306L305.806,31.37z M294.038,30.325
		l6.663,3.544c0.112,0.07,0.193,0.146,0.246,0.233c0.05,0.085,0.077,0.175,0.077,0.271c0,0.146-0.055,0.28-0.161,0.405
		c-0.107,0.126-0.243,0.188-0.406,0.188c-0.112,0-0.224-0.035-0.336-0.104l-7.128-3.881v3.429c0,0.38-0.214,0.568-0.644,0.568
		c-0.438,0-0.657-0.188-0.657-0.568v-8.002c0-0.379,0.224-0.566,0.67-0.566c0.422,0,0.631,0.188,0.631,0.566v3.313l6.808-3.777
		c0.059-0.043,0.116-0.07,0.173-0.084c0.057-0.012,0.114-0.018,0.174-0.018c0.172,0,0.32,0.063,0.445,0.186
		c0.124,0.125,0.187,0.264,0.187,0.418c0,0.078-0.021,0.158-0.065,0.238c-0.041,0.083-0.119,0.154-0.23,0.214L294.038,30.325z
		 M289.578,32.838c0,1.385-1.121,2.076-3.363,2.076h-5.98c-0.336,0-0.502-0.185-0.502-0.555c0-0.352,0.166-0.529,0.502-0.529h6.161
		c1.229,0,1.843-0.351,1.843-1.055v-0.774c0-0.782-0.734-1.172-2.204-1.172h-2.721c-2.345,0-3.518-0.632-3.518-1.896v-0.902
		c0-1.418,1.027-2.127,3.081-2.127h1.494c0.336,0,0.504,0.186,0.504,0.555c0,0.345-0.168,0.517-0.504,0.517h-1.701
		c-1.022,0-1.533,0.382-1.533,1.146v0.683c0,0.644,0.652,0.967,1.959,0.967h2.759c2.482,0,3.724,0.699,3.724,2.1V32.838z
		 M273.172,34.914c-2.786,0-4.178-0.77-4.178-2.307v-6.213c0-0.369,0.224-0.553,0.67-0.553c0.456,0,0.685,0.184,0.685,0.553v6.213
		c0,0.815,0.919,1.223,2.758,1.223h5.246c0.344,0,0.516,0.194,0.516,0.58c0,0.337-0.172,0.504-0.516,0.504H273.172z M266.481,32.557
		c0,1.57-1.323,2.357-3.971,2.357h-2.512c-2.638,0-3.957-0.778-3.957-2.334v-4.316c0-1.572,1.319-2.359,3.957-2.359h2.512
		c2.647,0,3.971,0.787,3.971,2.359V32.557z M265.141,28.327c0-0.901-0.73-1.352-2.191-1.352h-3.222c-1.555,0-2.333,0.45-2.333,1.352
		v4.216c0,0.859,0.778,1.287,2.333,1.287h3.146c1.511,0,2.268-0.428,2.268-1.287V28.327z M254.314,29.487
		c0,1.41-1.221,2.114-3.66,2.114h-5.749v2.809c0,0.38-0.228,0.568-0.684,0.568c-0.446,0-0.671-0.188-0.671-0.568v-8.067
		c0-0.292,0.146-0.438,0.438-0.438h6.716c2.405,0,3.609,0.672,3.609,2.012V29.487z M252.986,28.031c0-0.705-0.695-1.056-2.087-1.056
		h-5.994v3.53h5.903c1.452,0,2.178-0.365,2.178-1.095V28.031z"/>
</g>
</svg>
