<?xml version="1.0" encoding="utf-8"?>
<!-- Generator: Adobe Illustrator 16.0.0, SVG Export Plug-In . SVG Version: 6.00 Build 0)  -->
<!DOCTYPE svg PUBLIC "-//W3C//DTD SVG 1.1//EN" "http://www.w3.org/Graphics/SVG/1.1/DTD/svg11.dtd">
<svg version="1.1" id="Warstwa_2" xmlns="http://www.w3.org/2000/svg" xmlns:xlink="http://www.w3.org/1999/xlink" x="0px" y="0px"
	 width="810.092px" height="583.486px" viewBox="0 0 810.092 583.486" enable-background="new 0 0 810.092 583.486"
	 xml:space="preserve">
<path fill="#FFFFFF" d="M158.378,236.728c2.754,1.598,106.807,62.099,128.751,73.906c5.013,2.697,5.743-3.804,6.5-8.155
	c0.691-3.975,28.437-172.614,34.11-202.431c0.75-3.945,1.723-8.998-5.108-12.735c-18.643-10.198-114.557-66.87-126.252-73.095
	c-4.951-2.635-7.851-0.159-8.508,3.677c-2.884,16.84-32.614,191.84-34.832,205.834C151.956,230.565,156.399,235.582,158.378,236.728
	z"/>
<path fill="#FFFFFF" d="M303.191,327.561c2.827,1.68,109.648,65.293,132.177,77.707c5.146,2.836,5.896-4.001,6.673-8.576
	c0.71-4.179,29.193-181.49,35.019-212.841c0.77-4.148,1.769-9.46-5.245-13.39c-19.138-10.723-117.604-70.309-129.611-76.854
	c-5.083-2.77-8.06-0.167-8.734,3.866c-2.961,17.706-33.482,201.706-35.759,216.42C296.599,321.081,301.16,326.356,303.191,327.561z"
	/>
<path fill="#FFFFFF" d="M448.397,404.197c2.754,1.595,101.914,63.205,125.731,70.531c16.25,5,16.484-7.172,17.5-13.75
	c0.236-1.529,4.219-26.101,9.252-57.48c7.032-43.855,16.117-101.015,19.898-127.2c0.559-3.866,0.99-5.286,1.351-7.651
	c0.833-5.5,1.332-7.917-6.168-12.25c-20.282-11.718-103.82-59.787-126.666-71.473c-2.005-1.025-7.045-0.786-7.702,3.05
	c-0.605,3.546-30.158,184.381-34.615,211.649C446.615,401.846,446.419,403.049,448.397,404.197z"/>
<path fill="#FFFFFF" d="M166.879,142.909c0,0-108,61.333-118.667,67.333s-32.333,16.333-31.667,25s-3.333,10.333,29,26.333
	c13.937,6.896,312.667,184.667,342.667,201.333s120.999,74.166,134.333,78.833s23.668,4.5,43.001-8.167
	S767.046,417.41,783.046,406.743s15.167-19.168,1.834-25.834S481.546,203.575,481.546,203.575L166.879,142.909z"/>
<path fill="#E4EAEE" d="M164.75,154.083c0,0-113.121,65.812-126.621,74.645c-7.168,4.69-16.466,10.556,1.573,21.581
	c8.593,5.253,226.512,133.257,370.76,214.419c71.611,40.296,102.667,59,117.334,66c5.966,2.85,15.732,2.143,30.083-6.375
	c34.125-20.25,182.5-106.375,209.75-124.625c4.732-3.17,5.375-9.5-3.125-15c-3.767-2.437-16.875-9.75-16.875-9.75
	s-150.553,90.115-153.193,94.935c-2.64,4.818-5.741,12.777-20.106,6.714c-14.365-6.063-129.867-74.898-129.867-74.898
	l-155.808-90.014c0,0-60.15-34.237-105.134-60.397c-22.409-13.03-29.425-13.9-30.308-23.34c-0.375-4.013,1.417-12.625,1.417-12.625
	L164.75,154.083z"/>
<path fill="#D6DDE0" d="M602.129,487.728c0,0,0-59.332-0.4-81.332c-0.008-0.405-2.158,2-2.217,2.368
	c-2.633,16.964-3.216,22.13-10.216,55.798c-1.539,7.399-5.5,9.166-11.5,6.166c-9.198-4.599-117.5-59-117.5-59l-18.386-11.727
	L302.889,335.3c-14.663,8.265-39.759,22.411-42.887,24.21c-3.28,1.889-4.496,5.497-1.015,8.293
	c6.523,5.242,107.388,61.301,107.388,61.301s154.512,87.467,157.754,89.125c10.25,5.25,15.517,6.164,24,1.25
	C561.796,511.562,602.129,487.728,602.129,487.728z"/>
<path fill="#585271" d="M797.379,391.728c0,0-2.125,19.807-2.25,25.592s-0.67,7.601-10,13.408
	c-8.92,5.562-23.68,14.812-55.17,33.172c-23.76,13.85-99.333,57.761-134.163,77.831c-28.97,16.688-33.284,19.391-47.166,25.666
	c-12.167,5.5-19.683,3.182-35.381-5.549c-36.786-20.451-337.96-195.908-365.67-212.061c-0.01,0-0.01,0-0.01,0
	c-0.03-0.029-0.07-0.04-0.1-0.062c-0.18-0.108-0.62-0.368-1.27-0.75c-0.08-0.05-0.17-0.1-0.27-0.158
	c-0.04-0.03-0.08-0.052-0.13-0.08c-7.2-4.261-34.29-20.312-42.61-25.13c-9.62-5.592-40.75-25.944-74.56-44.882
	c-4.167-2.333-15.45-8.658-15.5-14.833c-0.042-5.125-0.643-15.514-0.792-21.958c-0.138-5.972,0.458-7.375,0.458-7.375
	s0.003,9.747,11.833,17.787c6.08,4.141,441.5,256.301,441.5,256.301l47.763,26.764l15.738,8.816c0,0,4.91,3,15.17,0
	c9.25-2.698,24.74-10.868,55.66-28.5c58.17-33.17,139.82-82.158,159.938-93.908C783.799,408.15,797.379,391.728,797.379,391.728z"/>
<g>
	<path fill="#3C3C3B" d="M538.373,547.331c-5.713,0.001-12.311-1.788-20.754-6.701c-15.813-9.197-64.017-37.127-125.043-72.487
		C256.932,389.551,51.948,270.782,35.564,260.847c-14.414-8.741-23.341-15.751-23.309-23.685
		c0.038-9.243,11.42-16.019,32.083-28.316c27.747-16.514,121.985-70.214,122.915-70.742l-1.5,8.625
		c-0.93,0.528-90.148,51.654-117.835,68.133c-16.002,9.524-28.642,17.049-28.664,22.329c-0.02,4.936,10.645,12.035,19.939,17.67
		c16.324,9.898,221.272,128.647,356.891,207.226c61.031,35.361,109.238,63.293,125.054,72.493c15.644,9.1,22.215,5.975,33.105,0.797
		c1.348-0.641,2.736-1.302,4.189-1.96c20.675-9.362,197.521-114.545,222.604-130.039c8.548-5.28,9.81-8.423,9.8-9.826
		c-0.014-2.188-3.046-5.114-9.012-8.693c-9.738-5.845-52.557-30.084-93.962-53.527c-32.023-18.132-58.804-33.489-68.862-39.349
		l1-7.625c10.021,5.838,39.307,22.762,71.312,40.882c41.444,23.465,84.303,47.729,94.114,53.616
		c6.113,3.669,12.369,8.276,12.41,14.651c0.034,5.247-4.136,10.276-13.122,15.826c-19.74,12.193-200.953,120.298-223.396,130.461
		c-1.411,0.64-2.764,1.282-4.071,1.904C551.095,544.624,545.401,547.331,538.373,547.331z"/>
</g>
<path fill="#FFFFFF" d="M347.399,382.043c-0.357,2.149-5.252,30.604-5.797,34.462c-0.291,2.062-0.671,3.599,1.401,4.817
	c2.072,1.218,56.701,32.705,58.413,33.806c3.087,1.478,3.306-1.735,3.306-1.735s6.643-35.871,6.773-38.019
	c0.132-2.146,1.383-2.646-3.867-5.646c-2.988-1.706-50.252-28.863-54.625-31.109C349.401,376.766,347.759,379.893,347.399,382.043z"
	/>
<path fill="none" d="M458.629,410.228l136,81c-41.019,24.69-37,23-48.5,29.5c-3.882,2.194-11.75,2.5-20.5-2
	c-19.986-10.277-268.125-156.5-268.125-156.5l44.75-28L458.629,410.228z"/>
<g>
	<g>
		<g>
			<path fill="#F5D342" d="M384.033,414.806c1.478-4.883-1.283-10.037-6.164-11.515c-4.882-1.478-10.064,1.309-11.524,6.196
				c-0.726,2.427-0.404,4.919,0.702,6.987c0.861,1.614,1.303,3.42,1.247,5.246l-0.084,2.854l5.794,1.754l1.431-2.293
				c0.99-1.585,2.396-2.859,4.052-3.729C381.601,419.201,383.287,417.276,384.033,414.806z"/>
			<path fill="#5A5A5C" d="M371.563,428.961l-2.823-0.854c-0.803-0.243-1.309-1.042-1.126-1.807l0.638-2.968l6.41,1.896
				l-1.162,2.854C373.226,428.82,372.363,429.203,371.563,428.961z"/>
		</g>
		<path fill="#808183" d="M373.703,426.319c-1.812-0.466-3.577-1.101-5.389-1.562c-0.159-0.042-0.22,0.194-0.063,0.246
			c1.771,0.603,3.598,1.032,5.37,1.631C373.818,426.702,373.909,426.372,373.703,426.319z"/>
		<path fill="#808183" d="M373.468,427.094c-1.811-0.464-3.576-1.099-5.387-1.561c-0.162-0.041-0.219,0.195-0.065,0.246
			c1.771,0.602,3.599,1.033,5.37,1.633C373.584,427.478,373.674,427.148,373.468,427.094z"/>
	</g>
	<g>
		<path fill="#F5D342" d="M379.95,399.015c-0.172,0.569-1.098,2.525-1.471,2.412c-0.374-0.111-0.057-2.254,0.115-2.822
			c0.173-0.567,0.615-0.939,0.989-0.825C379.959,397.891,380.123,398.447,379.95,399.015z"/>
		<path fill="#F5D342" d="M387.427,404.71c-0.544,0.241-2.374,1.396-2.215,1.752c0.158,0.357,2.243-0.218,2.787-0.457
			c0.545-0.241,0.856-0.727,0.7-1.083C388.541,404.567,387.972,404.47,387.427,404.71z"/>
		<path fill="#F5D342" d="M387.948,414.844c-0.587-0.101-2.646-0.769-2.579-1.152c0.063-0.387,2.227-0.342,2.813-0.24
			c0.587,0.1,1.011,0.491,0.945,0.877C389.063,414.711,388.534,414.944,387.948,414.844z"/>
		<path fill="#F5D342" d="M370.195,398.754c0.342,0.486,1.313,2.419,0.992,2.646c-0.317,0.225-1.808-1.347-2.149-1.831
			c-0.341-0.487-0.36-1.064-0.041-1.288C369.317,398.054,369.853,398.266,370.195,398.754z"/>
		<path fill="#F5D342" d="M363.386,405.812c0.543,0.243,2.626,0.827,2.786,0.473c0.159-0.355-1.666-1.521-2.208-1.761
			c-0.544-0.242-1.113-0.151-1.273,0.206C362.531,405.085,362.842,405.573,363.386,405.812z"/>
	</g>
	<g>
		<path fill="#FFFFFF" d="M377.646,417.786c-0.221-0.292-0.357-0.631-0.428-0.986c0.441-0.298,0.743-0.787,0.952-1.265
			c0.127-0.292,0.229-0.592,0.326-0.896c0.093-0.292,0.13-0.553-0.063-0.811c-0.172-0.23-0.512-0.173-0.729-0.065
			c-0.251,0.122-0.438,0.394-0.587,0.618c-0.307,0.455-0.465,0.994-0.523,1.535c-0.021,0.188-0.021,0.379-0.012,0.568
			c-0.154,0.06-0.32,0.095-0.492,0.097c-0.53,0.009-0.813-0.381-0.911-0.86c-0.017-0.078-0.03-0.16-0.039-0.245
			c0.068-0.09,0.136-0.181,0.2-0.271c0.313-0.439,0.558-0.925,0.754-1.426c0.164-0.415,0.33-0.919-0.004-1.299
			c-0.105-0.118-0.273-0.104-0.391-0.014c-0.851,0.649-1.148,1.76-1.108,2.8c-0.181,0.221-0.377,0.427-0.584,0.617
			c-0.228,0.214-0.635,0.526-0.967,0.37c-0.312-0.145-0.445-0.63-0.53-0.929c-0.063-0.223-0.095-0.444-0.104-0.671
			c0.071-0.098,0.145-0.193,0.213-0.293c0.271-0.396,0.482-0.824,0.657-1.269c0.146-0.37,0.317-0.897-0.041-1.207
			c-0.104-0.09-0.284-0.138-0.393-0.014c-0.609,0.7-0.948,1.564-0.978,2.496c-0.001,0.028,0,0.063-0.001,0.095
			c-0.445,0.563-1.009,1.041-1.624,1.403c-0.277,0.163-0.05,0.597,0.234,0.439c0.542-0.297,1.031-0.673,1.458-1.11
			c0.035,0.174,0.08,0.345,0.141,0.512c0.154,0.456,0.39,0.911,0.866,1.086c0.449,0.161,0.936-0.11,1.281-0.369
			c0.167-0.123,0.323-0.266,0.469-0.417c0.116,0.422,0.354,0.801,0.771,0.994c0.387,0.179,0.813,0.172,1.212,0.051
			c0.093,0.39,0.253,0.76,0.471,1.092C377.391,418.528,377.92,418.15,377.646,417.786z M375.718,413.178
			c-0.045,0.219-0.173,0.464-0.224,0.588c-0.092,0.229-0.204,0.447-0.328,0.662C375.249,413.96,375.425,413.509,375.718,413.178z
			 M377.38,415.135c0.083-0.216,0.208-0.414,0.343-0.599c0.063-0.085,0.13-0.16,0.209-0.229c0.006-0.005,0.032-0.021,0.06-0.039
			c-0.002,0.019-0.002,0.037-0.011,0.067c-0.134,0.545-0.354,1.111-0.676,1.571c-0.04,0.058-0.083,0.108-0.13,0.163
			C377.196,415.75,377.266,415.431,377.38,415.135z"/>
		<path fill="#FFFFFF" d="M378.543,416.638c-1.808,2.584-3.661,5.142-5.578,7.645c-0.229,0.301,0.229,0.665,0.457,0.363
			c1.916-2.509,3.763-5.065,5.521-7.688C379.123,416.685,378.733,416.369,378.543,416.638z"/>
		<path fill="#FFFFFF" d="M370.049,413.871c-0.135,3.151-0.324,6.301-0.595,9.445c-0.032,0.375,0.551,0.437,0.583,0.061
			c0.265-3.145,0.448-6.295,0.519-9.452C370.563,413.598,370.063,413.541,370.049,413.871z"/>
	</g>
</g>
<path fill="#585271" d="M147.569,349.789c-0.03-0.029-0.07-0.04-0.1-0.062C147.539,349.768,147.569,349.789,147.569,349.789z"/>
<path fill="#D6DDE0" d="M281.129,320.478c-1.375-3.682,1.013-12.021,1.013-12.021l-87.186-50.479l-35.55-20.651
	c-7.228-3.903-7.11-10.016-5.934-16.264c0.5-2.651,5.196-30.995,5.196-30.995l-51.779,29.731
	c-14.663,8.263-39.759,22.411-42.887,24.21c-3.28,1.887-4.496,5.497-1.015,8.293c6.525,5.241,107.388,61.3,107.388,61.3
	s68.599,39.646,71.843,41.304c3.244,1.654,5.289,2.589,8.333,0.696c3.044-1.891,38.104-23.66,38.104-23.66
	S284.308,328.989,281.129,320.478z"/>
<path fill="#706F6F" d="M213.324,78.402c-0.554,1.011-1.557,1.523-2.239,1.149l-4.248-2.325c-0.684-0.374-0.791-1.496-0.238-2.505
	l0,0c0.554-1.009,1.557-1.522,2.239-1.148l4.248,2.323C213.77,76.27,213.877,77.393,213.324,78.402L213.324,78.402z"/>
<path fill="#706F6F" d="M211.157,89.902c-0.554,1.011-1.557,1.523-2.239,1.149l-4.248-2.325c-0.684-0.374-0.791-1.496-0.238-2.505
	l0,0c0.554-1.009,1.557-1.522,2.239-1.148l4.248,2.323C211.603,87.77,211.71,88.893,211.157,89.902L211.157,89.902z"/>
<path fill="#706F6F" d="M209.49,101.402c-0.554,1.011-1.557,1.523-2.239,1.149l-4.248-2.325c-0.684-0.374-0.791-1.496-0.238-2.505
	l0,0c0.554-1.009,1.557-1.522,2.239-1.148l4.248,2.323C209.936,99.27,210.043,100.393,209.49,101.402L209.49,101.402z"/>
<path fill="#706F6F" d="M207.657,112.902c-0.554,1.011-1.557,1.523-2.239,1.149l-4.248-2.325c-0.684-0.374-0.791-1.496-0.238-2.505
	l0,0c0.554-1.009,1.557-1.522,2.239-1.148l4.248,2.323C208.102,110.77,208.209,111.893,207.657,112.902L207.657,112.902z"/>
<path fill="#706F6F" d="M205.99,124.902c-0.554,1.011-1.557,1.523-2.239,1.149l-4.248-2.325c-0.684-0.374-0.791-1.496-0.238-2.505
	l0,0c0.554-1.009,1.557-1.522,2.239-1.148l4.248,2.323C206.436,122.77,206.543,123.893,205.99,124.902L205.99,124.902z"/>
<path fill="#706F6F" d="M198.159,168.402c-0.554,1.011-1.557,1.523-2.239,1.149l-4.248-2.325c-0.684-0.374-0.791-1.496-0.238-2.505
	l0,0c0.554-1.009,1.557-1.522,2.239-1.148l4.248,2.323C198.604,166.271,198.712,167.393,198.159,168.402L198.159,168.402z"/>
<path fill="#706F6F" d="M195.992,179.902c-0.554,1.011-1.557,1.523-2.239,1.149l-4.248-2.325c-0.684-0.374-0.791-1.496-0.238-2.505
	l0,0c0.554-1.009,1.557-1.522,2.239-1.148l4.248,2.323C196.438,177.771,196.545,178.893,195.992,179.902L195.992,179.902z"/>
<path fill="#706F6F" d="M194.325,191.402c-0.554,1.011-1.557,1.523-2.239,1.149l-4.248-2.325c-0.684-0.374-0.791-1.496-0.238-2.505
	l0,0c0.554-1.009,1.557-1.522,2.239-1.148l4.248,2.323C194.771,189.271,194.878,190.393,194.325,191.402L194.325,191.402z"/>
<path fill="#706F6F" d="M192.492,202.902c-0.554,1.011-1.557,1.523-2.239,1.149l-4.248-2.325c-0.684-0.374-0.791-1.496-0.238-2.505
	l0,0c0.554-1.009,1.557-1.522,2.239-1.15l4.248,2.325C192.937,200.771,193.044,201.893,192.492,202.902L192.492,202.902z"/>
<path fill="#706F6F" d="M190.825,214.902c-0.554,1.011-1.557,1.523-2.239,1.149l-4.248-2.325c-0.684-0.374-0.791-1.496-0.238-2.505
	l0,0c0.552-1.009,1.555-1.522,2.239-1.15l4.248,2.325C191.271,212.771,191.378,213.893,190.825,214.902L190.825,214.902z"/>
<path fill="#706F6F" d="M254.826,201.069c-0.554,1.011-1.557,1.523-2.239,1.149l-4.248-2.325c-0.684-0.374-0.791-1.496-0.238-2.505
	l0,0c0.554-1.009,1.557-1.522,2.239-1.15l4.248,2.325C255.271,198.938,255.379,200.06,254.826,201.069L254.826,201.069z"/>
<path fill="#706F6F" d="M252.659,212.569c-0.554,1.011-1.557,1.523-2.239,1.149l-4.248-2.325c-0.684-0.374-0.791-1.496-0.238-2.505
	l0,0c0.554-1.009,1.557-1.522,2.239-1.15l4.248,2.325C253.104,210.438,253.212,211.56,252.659,212.569L252.659,212.569z"/>
<path fill="#706F6F" d="M250.992,224.069c-0.554,1.011-1.557,1.523-2.239,1.149l-4.248-2.325c-0.684-0.374-0.791-1.496-0.238-2.505
	l0,0c0.554-1.009,1.557-1.522,2.239-1.15l4.248,2.325C251.438,221.938,251.545,223.06,250.992,224.069L250.992,224.069z"/>
<path fill="#706F6F" d="M249.159,235.569c-0.554,1.011-1.557,1.523-2.239,1.149l-4.248-2.325c-0.684-0.374-0.791-1.496-0.238-2.505
	l0,0c0.554-1.009,1.557-1.522,2.239-1.15l4.248,2.325C249.604,233.438,249.711,234.56,249.159,235.569L249.159,235.569z"/>
<path fill="#706F6F" d="M247.492,247.569c-0.554,1.011-1.557,1.523-2.239,1.149l-4.248-2.325c-0.684-0.374-0.791-1.496-0.238-2.505
	l0,0c0.554-1.009,1.557-1.522,2.239-1.15l4.248,2.325C247.938,245.438,248.045,246.56,247.492,247.569L247.492,247.569z"/>
<path fill="#A9B1BF" d="M225.615,184.023c-0.501,0.873-1.604,1.183-2.463,0.688l-19.444-11.159c-0.859-0.493-1.149-1.6-0.649-2.473
	l0,0c0.501-0.873,1.604-1.182,2.462-0.688l19.444,11.159C225.825,182.044,226.116,183.151,225.615,184.023L225.615,184.023z"/>
<path fill="#DE5577" d="M220.523,159.33c-0.501,0.873-1.924,0.996-3.181,0.273l-28.417-16.308c-1.256-0.72-1.867-2.012-1.367-2.885
	l0,0c0.502-0.872,1.925-0.996,3.183-0.275l28.417,16.308C220.413,157.166,221.024,158.458,220.523,159.33L220.523,159.33z"/>
<path fill="#EEB311" d="M278.023,193.08c-0.501,0.873-1.924,0.996-3.181,0.273l-28.417-16.308c-1.256-0.72-1.867-2.012-1.367-2.885
	l0,0c0.502-0.872,1.925-0.996,3.183-0.275l28.417,16.308C277.913,190.916,278.524,192.208,278.023,193.08L278.023,193.08z"/>
<path fill="#A9B1BF" d="M281.262,216.367c-0.501,0.873-1.577,1.194-2.403,0.721l-18.709-10.737
	c-0.826-0.474-1.091-1.564-0.591-2.438l0,0c0.501-0.872,1.577-1.195,2.404-0.723l18.709,10.737
	C281.499,214.402,281.763,215.495,281.262,216.367L281.262,216.367z"/>
<path fill="#A9B1BF" d="M271.061,223.411c-0.501,0.873-1.321,1.341-1.838,1.046l-11.64-6.682c-0.514-0.295-0.525-1.24-0.024-2.112
	l0,0c0.501-0.872,1.324-1.341,1.838-1.046l11.642,6.68C271.551,221.591,271.562,222.539,271.061,223.411L271.061,223.411z"/>
<path fill="#A9B1BF" d="M277.362,239.137c-0.501,0.873-1.564,1.203-2.376,0.737l-18.364-10.539c-0.813-0.465-1.063-1.55-0.563-2.423
	l0,0c0.501-0.872,1.564-1.203,2.376-0.737l18.364,10.539C277.611,237.18,277.863,238.265,277.362,239.137L277.362,239.137z"/>
<path fill="#E6C825" d="M430.966,301.776c-0.478,0.887-1.451,1.292-2.176,0.897l-16.379-8.822c-0.727-0.389-0.924-1.425-0.451-2.309
	l0,0c0.479-0.887,1.453-1.288,2.179-0.898l16.38,8.823C431.242,299.857,431.443,300.889,430.966,301.776L430.966,301.776z"/>
<path fill="#6BB4E5" d="M423.23,341.09c-0.479,0.884-1.456,1.281-2.181,0.887l-16.329-8.915c-0.722-0.392-0.916-1.429-0.437-2.311
	l0,0c0.482-0.882,1.46-1.279,2.183-0.887l16.329,8.915C423.519,339.172,423.715,340.208,423.23,341.09L423.23,341.09z"/>
<path fill="#DC4A75" d="M423.48,312.531c-0.479,0.882-1.292,1.368-1.813,1.083l-11.778-6.435c-0.519-0.286-0.55-1.229-0.064-2.112
	l0,0c0.481-0.883,1.293-1.368,1.813-1.083l11.779,6.43C423.935,310.7,423.968,311.643,423.48,312.531L423.48,312.531z"/>
<path fill="#D9DBD6" d="M428.328,328.682c-0.475,0.889-1.527,1.25-2.354,0.811l-18.681-9.968c-0.823-0.44-1.109-1.52-0.637-2.406
	l0,0c0.474-0.886,1.525-1.249,2.353-0.811l18.68,9.971C428.516,326.718,428.802,327.796,428.328,328.682L428.328,328.682z"/>
<path fill="#A9B1BF" d="M278.114,252.004c-0.501,0.873-1.665,1.146-2.603,0.606l-21.168-12.146
	c-0.935-0.537-1.287-1.679-0.787-2.552l0,0c0.501-0.872,1.665-1.146,2.602-0.608l21.168,12.148
	C278.263,249.99,278.615,251.132,278.114,252.004L278.114,252.004z"/>
<path fill="#A9B1BF" d="M263.099,256.715c-0.501,0.873-1.286,1.363-1.754,1.094l-10.595-6.08c-0.468-0.269-0.441-1.192,0.059-2.064
	l0,0c0.501-0.873,1.287-1.362,1.754-1.096l10.597,6.08C263.627,254.917,263.6,255.843,263.099,256.715L263.099,256.715z"/>
<path fill="#706F6F" d="M491.945,338.207c-0.53,1.021-1.522,1.556-2.216,1.196l-4.296-2.234c-0.689-0.359-0.821-1.479-0.292-2.5l0,0
	c0.531-1.02,1.522-1.557,2.214-1.196l4.298,2.234C492.345,336.068,492.477,337.184,491.945,338.207L491.945,338.207z"/>
<path fill="#DC4A75" d="M490.022,349.75c-0.529,1.021-1.521,1.557-2.214,1.196l-4.297-2.234c-0.689-0.359-0.821-1.479-0.291-2.499
	l0,0c0.53-1.021,1.522-1.558,2.215-1.196l4.296,2.233C490.423,347.611,490.553,348.728,490.022,349.75L490.022,349.75z"/>
<path fill="#6BB4E5" d="M488.599,361.283c-0.528,1.021-1.521,1.556-2.214,1.194l-4.296-2.232c-0.691-0.36-0.822-1.479-0.291-2.5l0,0
	c0.531-1.021,1.521-1.559,2.213-1.196l4.297,2.233C488.999,359.142,489.13,360.26,488.599,361.283L488.599,361.283z"/>
<path fill="#E6C825" d="M487.009,372.82c-0.53,1.021-1.521,1.556-2.214,1.194l-4.297-2.232c-0.691-0.359-0.821-1.479-0.291-2.5l0,0
	c0.531-1.021,1.521-1.559,2.215-1.196l4.296,2.234C487.409,370.678,487.539,371.797,487.009,372.82L487.009,372.82z"/>
<path fill="#6BB4E5" d="M485.597,384.85c-0.528,1.021-1.521,1.559-2.214,1.196l-4.296-2.234c-0.691-0.357-0.822-1.479-0.291-2.497
	l0,0c0.531-1.021,1.521-1.56,2.213-1.196l4.297,2.231C485.996,382.711,486.128,383.83,485.597,384.85L485.597,384.85z"/>
<path fill="#A9B1BF" d="M518.699,352.943c-0.482,0.883-1.554,1.229-2.39,0.771l-18.932-10.34c-0.837-0.456-1.124-1.543-0.643-2.425
	l0,0c0.48-0.884,1.552-1.229,2.388-0.772l18.932,10.339C518.895,350.971,519.182,352.058,518.699,352.943L518.699,352.943z"/>
<path fill="#A9B1BF" d="M508.649,360.2c-0.48,0.884-1.295,1.368-1.813,1.084l-11.778-6.435c-0.52-0.281-0.552-1.229-0.067-2.11l0,0
	c0.48-0.883,1.295-1.369,1.813-1.085l11.778,6.432C509.101,358.37,509.132,359.317,508.649,360.2L508.649,360.2z"/>
<path fill="#A9B1BF" d="M515.281,375.79c-0.482,0.884-1.537,1.236-2.359,0.786l-18.583-10.147c-0.821-0.446-1.097-1.525-0.614-2.41
	l0,0c0.482-0.883,1.539-1.233,2.36-0.786l18.583,10.146C515.489,373.827,515.764,374.906,515.281,375.79L515.281,375.79z"/>
<path fill="#A9B1BF" d="M516.307,388.636c-0.481,0.883-1.641,1.182-2.588,0.663l-21.421-11.698c-0.945-0.516-1.322-1.648-0.84-2.531
	l0,0c0.48-0.884,1.641-1.183,2.587-0.664l21.421,11.695C516.412,386.62,516.788,387.754,516.307,388.636L516.307,388.636z"/>
<path fill="#A9B1BF" d="M501.394,393.666c-0.48,0.884-1.257,1.39-1.729,1.131l-10.722-5.854c-0.476-0.262-0.469-1.188,0.015-2.067
	l0,0c0.482-0.884,1.259-1.391,1.73-1.131l10.723,5.854C501.883,391.857,501.876,392.782,501.394,393.666L501.394,393.666z"/>
<path fill="#6BB4E5" d="M546.399,370.166c-0.528,1.021-1.521,1.556-2.214,1.196l-4.296-2.234c-0.689-0.359-0.822-1.479-0.292-2.5
	l0,0c0.531-1.02,1.522-1.557,2.214-1.196l4.297,2.234C546.799,368.027,546.931,369.143,546.399,370.166L546.399,370.166z"/>
<path fill="#E6C825" d="M544.477,381.708c-0.529,1.021-1.521,1.557-2.214,1.196l-4.297-2.234c-0.689-0.359-0.821-1.479-0.291-2.499
	l0,0c0.53-1.021,1.522-1.558,2.215-1.196l4.296,2.233C544.877,379.57,545.007,380.687,544.477,381.708L544.477,381.708z"/>
<path fill="#706F6F" d="M543.053,393.242c-0.53,1.021-1.521,1.556-2.214,1.195l-4.296-2.233c-0.691-0.36-0.822-1.479-0.291-2.5l0,0
	c0.531-1.021,1.521-1.558,2.213-1.196l4.297,2.233C543.453,391.101,543.584,392.219,543.053,393.242L543.053,393.242z"/>
<path fill="#DC4A75" d="M541.463,404.779c-0.53,1.021-1.521,1.556-2.214,1.194l-4.297-2.232c-0.691-0.359-0.821-1.479-0.291-2.5l0,0
	c0.531-1.021,1.521-1.559,2.215-1.196l4.296,2.234C541.863,402.637,541.993,403.756,541.463,404.779L541.463,404.779z"/>
<path fill="#E6C825" d="M540.051,416.809c-0.53,1.021-1.521,1.559-2.214,1.196l-4.296-2.234c-0.691-0.357-0.822-1.479-0.291-2.497
	l0,0c0.531-1.021,1.521-1.56,2.213-1.196l4.297,2.231C540.45,414.67,540.582,415.789,540.051,416.809L540.051,416.809z"/>
<path fill="#A9B1BF" d="M573.153,384.902c-0.482,0.883-1.554,1.229-2.39,0.771l-18.932-10.34c-0.837-0.456-1.124-1.543-0.645-2.425
	l0,0c0.482-0.884,1.554-1.229,2.39-0.772l18.932,10.339C573.349,382.93,573.636,384.017,573.153,384.902L573.153,384.902z"/>
<path fill="#A9B1BF" d="M563.104,392.159c-0.48,0.884-1.295,1.368-1.813,1.084l-11.778-6.435c-0.52-0.281-0.552-1.229-0.067-2.11
	l0,0c0.48-0.884,1.295-1.369,1.813-1.085l11.778,6.432C563.555,390.329,563.586,391.276,563.104,392.159L563.104,392.159z"/>
<path fill="#A9B1BF" d="M569.735,407.749c-0.482,0.884-1.537,1.236-2.359,0.786l-18.583-10.147
	c-0.821-0.446-1.097-1.525-0.614-2.408l0,0c0.482-0.885,1.539-1.235,2.36-0.788l18.583,10.146
	C569.943,405.786,570.218,406.865,569.735,407.749L569.735,407.749z"/>
<path fill="#A9B1BF" d="M570.761,420.595c-0.481,0.883-1.641,1.182-2.588,0.663l-21.421-11.698c-0.945-0.516-1.322-1.648-0.84-2.531
	l0,0c0.48-0.884,1.641-1.183,2.587-0.664l21.421,11.695C570.866,418.579,571.242,419.713,570.761,420.595L570.761,420.595z"/>
<path fill="#A9B1BF" d="M555.848,425.625c-0.48,0.884-1.257,1.39-1.729,1.131l-10.724-5.854c-0.474-0.262-0.467-1.188,0.017-2.067
	l0,0c0.481-0.884,1.259-1.391,1.729-1.131l10.724,5.854C556.337,423.816,556.33,424.741,555.848,425.625L555.848,425.625z"/>
<path fill="#A9B1BF" d="M213.497,189.624c-0.501,0.873-1.322,1.342-1.834,1.048l-11.584-6.648c-0.512-0.293-0.521-1.237-0.021-2.11
	l0,0c0.501-0.873,1.321-1.343,1.833-1.048l11.584,6.646C213.989,187.807,213.998,188.752,213.497,189.624L213.497,189.624z"/>
<path fill="#A9B1BF" d="M219.396,205.226c-0.501,0.873-1.522,1.228-2.285,0.789l-17.243-9.896c-0.765-0.438-0.975-1.499-0.475-2.372
	l0,0c0.501-0.873,1.524-1.228,2.287-0.789l17.243,9.896C219.685,203.291,219.896,204.353,219.396,205.226L219.396,205.226z"/>
<path fill="#A9B1BF" d="M221.192,219.12c-0.503,0.873-1.662,1.146-2.597,0.61l-21.09-12.104c-0.933-0.535-1.281-1.676-0.781-2.548
	l0,0c0.501-0.873,1.662-1.146,2.596-0.612l21.09,12.104C221.343,217.106,221.692,218.248,221.192,219.12L221.192,219.12z"/>
<path fill="#A9B1BF" d="M208.14,224.419c-0.501,0.873-1.311,1.349-1.81,1.063l-11.276-6.472c-0.499-0.286-0.496-1.225,0.004-2.098
	l0,0c0.501-0.873,1.312-1.35,1.811-1.063l11.274,6.474C208.643,222.607,208.641,223.547,208.14,224.419L208.14,224.419z"/>
<path fill="none" stroke="#DADADA" stroke-miterlimit="10" d="M296.379,179.228c-0.833,4.167-2.75,8.25-10.5,3.75
	c0,0-80.083-46.917-87.625-51.375c-3.275-1.936-7.05-3.041-6.125-9.208c1.125-7.5,6.361-43.221,7.167-49.333
	c1-7.583,3.157-13.168,8.833-10c7.167,4,93.333,53,93.333,53c4.5,2.667,4.333,5.333,3,13.667
	C304.462,129.728,297.212,175.061,296.379,179.228z"/>
<path fill="none" stroke="#DADADA" stroke-miterlimit="10" d="M225.629,226.561c-2,10.5-2.083,17.75-10.833,13
	c0,0-27.167-14.167-32.167-16.833s-7.333-4.167-6.5-11s8.737-52.967,8.737-52.967c0.498-3.092,2.263-6.283,7.763-3.783
	s35.75,18.75,35.75,18.75c8,4.5,5.75,7,4.25,16.75C231.203,199.747,227.136,218.65,225.629,226.561z"/>
<path fill="none" stroke="#DADADA" stroke-miterlimit="10" d="M281.629,257.728c-2,11.75-1.75,18.75-7.5,15.25l-37.5-21
	c-5-2.25-4.5-4.75-3.25-13.25l8.5-48.25c0.496-3.092,2-7.5,7.5-5s34,20,34,20c8,4.5,5.917,6.25,4.25,18
	C286.312,232.763,283.104,249.06,281.629,257.728z"/>
<path fill="none" stroke="#DADADA" stroke-miterlimit="10" d="M518.879,403.978c-0.66,4.404-1.082,9.753-7.582,6.253
	c0,0-32.417-16.709-37.167-19.334s-5.166-3.334-3.833-12.334s7.915-49.751,7.915-49.751c0.918-6.749,2.085-9.415,8.585-5.749
	c7.984,4.504,25.714,14.023,33.666,18c10,5,7.334,3.5,5.249,17.749C524.778,365.196,520.879,390.647,518.879,403.978z"/>
<path fill="none" stroke="#DADADA" stroke-miterlimit="10" d="M574.129,434.897c-0.66,4.402-3,9.166-9.5,5.666
	c0,0-31.083-16.209-35.833-18.834s-4.167-4-2.834-13c0.802-5.409,1.167-6.834,7.5-49c0.834-5.332,1.725-9.944,9.334-5.998
	c9,4.667,25.901,13.166,34,16.832c8.834,4,6.333,4,4.5,18.168C580.468,395.127,576.129,421.562,574.129,434.897z"/>
<polygon fill="none" stroke="#DADADA" stroke-miterlimit="10" points="445.129,273.395 332.129,209.395 345.161,135.014 
	345.796,131.395 349.507,133.475 458.796,194.728 "/>
<polygon fill="none" stroke="#DADADA" stroke-miterlimit="10" points="584.879,366.728 482.129,312.228 498.629,218.853 
	599.463,276.395 "/>
<polygon fill="none" stroke="#DADADA" stroke-miterlimit="10" points="428.695,364.364 316.088,299.677 329.572,225.375 
	330.229,221.761 333.928,223.865 442.843,285.781 "/>
<polyline fill="none" stroke="#E6332A" stroke-width="2" stroke-linecap="round" stroke-miterlimit="10" points="347.879,188.728 
	369.629,178.728 385.879,195.228 407.129,193.228 422.379,219.978 443.379,208.978 "/>
<polyline fill="none" stroke="#5BC5F2" stroke-width="2" stroke-linecap="round" stroke-miterlimit="10" points="349.629,180.228 
	372.129,204.478 390.129,178.978 403.879,212.228 422.129,192.478 440.879,221.728 "/>
<polyline fill="none" stroke="#FFDB7C" stroke-width="2" stroke-linecap="round" stroke-miterlimit="10" points="347.129,195.978 
	369.129,190.478 386.629,206.728 406.629,198.728 422.879,207.978 443.629,200.478 "/>
<polygon fill="#FFDB7C" points="344.504,202.853 351.504,206.728 351.129,212.353 344.004,208.603 "/>
<polygon fill="#FFDB7C" points="355.129,210.478 363.129,214.478 362.754,219.103 354.796,214.853 "/>
<polygon fill="#DC4F71" points="369.129,218.228 375.379,221.478 375.212,225.478 368.629,221.978 "/>
<polygon fill="#B2B2B2" points="392.796,231.145 398.629,233.603 398.629,238.645 392.379,235.603 "/>
<polygon fill="#36A9E1" points="416.254,244.853 422.504,247.728 422.629,252.395 416.379,249.353 "/>
<polygon fill="#36A9E1" points="427.879,252.353 434.254,255.478 434.254,258.395 428.004,255.353 "/>
<polygon fill="#B2B2B2" points="402.379,238.353 409.754,241.728 409.963,244.895 402.379,241.228 "/>
<polygon fill="#DC4F71" points="380.129,224.478 386.254,227.478 386.129,231.353 379.754,228.228 "/>
<polygon fill="#FFFFFF" points="645.713,353.064 661.296,343.813 678.213,355.542 663.88,365.978 "/>
<path fill="#76B1E1" d="M495.129,171.478c-0.26-3.18,0.017-5.753-17.083-15.333c-13.46-7.55-32.75-18-32.75-18
	c1.26,11.88,2.167,22.25,2.167,22.25s21.916,11.917,25.796,14.293c3.443,2.109,2.69,4.17,0.96,14.71
	c-1.06,6.49-34.63,207.861-34.897,209.563l-131.07-75.479l-9.041-5.202c0.354-3.645,1.917-18.89,4.796-35.923
	c3.45-20.413,8.221-47.334,12.781-73.702c4.532-26.207,8.854-51.867,11.469-70.049c2.234-15.549,5.13-33.646,5.584-36.646
	c0.552-3.644,1.624-7.395,6.333-4.398c2.064,1.313,23.208,13.921,23.208,13.921c0.678-3.585,7.197-11.826,8.323-12.676
	c1.948-1.469,1.349-2.577,0.552-3.032c-0.929-0.529-32.479-19.542-41-24.042c-2.182-1.15-4.432-0.977-5.372-0.704
	c-6.333,1.833-7.087,7.704-7.087,14.454c0,0,7.125,2.609,8.589,6.342c0.347,0.885,1.161,2.228,0.882,4.158
	c-1.823,12.656-7.263,43.875-7.263,43.875l-12.125,70.5l-6.75,39.5c0,0-7.445,47.179-8.188,52.314
	c-1.086,7.506-3.318,10.479-6.813,8.468c-3.495-2.011-6.174-3.308-6.174-3.308s-1.438,3.822-1.446,7.212
	c-0.04,7.311,1.93,11.91,7.18,16c9.94,7.75,99.82,58.57,109.94,64.311c10.12,5.762,41.88,25.262,47.88,26.762
	s9.08-0.552,12.45-3.802c3.38-3.25,4.67-6,4.67-6l-15.21-8.76c0,0,10.46-67.07,12.96-81.32s14.75-91.121,18-108.38
	c3.25-17.24,3.909-22.744,4.086-24.503c0.497-4.95,4.217-5.854,7.831-3.923c1.898,1.015,5.646,2.931,5.646,2.931
	S495.759,178.898,495.129,171.478z"/>
<path fill="#5464AC" d="M498.713,169.978c-0.91-5.5-3.734-7.858-8.544-11c-1.987-1.305-9.764-5.725-18.956-10.875
	c-9.635-5.396-19.8-11.25-25.209-14.25c-1.893-1.05-2.533-2.405-3.708-7.125c-4.667-18.75-24.417-36-54.917-33.5
	c-6.728,0.553-9.875,1.375-11.5,0.125c-1.35-1.039-32.073-18.693-36.553-21.085c-5-2.67-8.697-2.709-13.447-1.24
	c0,0,2.032-0.355,4,0.64c4.702,2.378,6.43,3.426,12.47,7.033c5.298,3.174,23.212,13.592,29.265,17.106
	c1.269,0.737,1.324,1.618,0.281,2.491c-1.802,1.507-4.656,4.287-6.834,8.24c-3.486,6.333-5.335,11.804-5.805,16.454
	c-0.68,6.68,1.29,6.485,10.624,11.485c21.055,11.279,67.332,36.813,68.75,37.417c11.334,4.833,11-15.167,10-21.833
	c-0.634-4.227-1.104-6.395-1.667-8.083c-0.729-2.188-0.146-2.914,1.667-1.917c2.162,1.188,5.455,3.249,10.22,5.876
	c8.761,4.82,17.58,10.25,24.61,14.08c7.43,4.04,11.34,7.04,11.8,13.36c0.271,3.66-0.505,14.288-0.505,14.288l3.625,2.125
	C498.379,189.791,499.663,175.718,498.713,169.978z M410.909,136.408c-4.32,1.92-9.79-0.972-12.222-6.45
	c-2.43-5.48-0.898-11.48,3.422-13.392c4.31-1.92,9.777,0.972,12.21,6.46C416.749,128.508,415.219,134.498,410.909,136.408z"/>
<polygon fill="#D28B2C" points="629.004,355.924 629.004,360.314 662.004,378.478 692.504,359.897 692.504,355.542 661.962,374.417 
	"/>
<polygon fill="#4A5BA5" points="498.254,218.103 496.504,228.728 597.963,287.563 599.754,275.853 "/>
<g>
	<polygon fill="none" stroke="#5C79BB" stroke-miterlimit="10" points="483.449,470.115 510.116,484.781 537.782,469.281 
		510.365,453.282 	"/>
	<line fill="none" stroke="#5C79BB" stroke-miterlimit="10" x1="483.449" y1="470.115" x2="483.449" y2="500.53"/>
	<line fill="none" stroke="#5C79BB" stroke-miterlimit="10" x1="483.175" y1="500.048" x2="511.074" y2="517.423"/>
	<polyline fill="none" stroke="#5C79BB" stroke-miterlimit="10" points="537.782,469.281 537.782,500.948 510.719,517.048 	"/>
	<line fill="none" stroke="#5C79BB" stroke-miterlimit="10" x1="510.116" y1="484.781" x2="510.116" y2="516.827"/>
	<g>
		<g>
			<line fill="none" stroke="#5C79BB" stroke-miterlimit="10" x1="510.116" y1="484.781" x2="509.259" y2="485.296"/>
			
				<line fill="none" stroke="#5C79BB" stroke-miterlimit="10" stroke-dasharray="1.9549,0.5865" x1="508.757" y1="485.598" x2="485.055" y2="499.863"/>
			<line fill="none" stroke="#5C79BB" stroke-miterlimit="10" x1="484.803" y1="500.012" x2="483.947" y2="500.53"/>
		</g>
	</g>
	<g>
		<g>
			<line fill="none" stroke="#5C79BB" stroke-miterlimit="10" x1="537.478" y1="500.53" x2="536.61" y2="500.031"/>
			
				<line fill="none" stroke="#5C79BB" stroke-miterlimit="10" stroke-dasharray="1.9858,0.5957" x1="536.095" y1="499.734" x2="511.74" y2="485.719"/>
			<line fill="none" stroke="#5C79BB" stroke-miterlimit="10" x1="511.481" y1="485.573" x2="510.615" y2="485.073"/>
		</g>
	</g>
	<g>
		<g>
			<line fill="none" stroke="#5C79BB" stroke-miterlimit="10" x1="510.116" y1="484.781" x2="510.124" y2="483.781"/>
			
				<line fill="none" stroke="#5C79BB" stroke-miterlimit="10" stroke-dasharray="2.0206,0.6062" x1="510.129" y1="483.174" x2="510.354" y2="454.585"/>
			<line fill="none" stroke="#5C79BB" stroke-miterlimit="10" x1="510.356" y1="454.282" x2="510.365" y2="453.282"/>
		</g>
	</g>
</g>
<path fill="#E4EAEE" d="M617.462,300.063c5.842,3.334,60.268,34.47,78.917,45.165c24.625,14.125,41.25,23.75,66,38.25
	c6.833,4.005,5.068,6.359,5.068,6.359l-6.318,2.311L615.63,309.814L617.462,300.063z"/>
<polygon fill="#D6DDE0" points="615.63,308.897 601.796,397.397 647.462,368.397 631.031,357.063 661.962,337.564 663.296,336.564 
	"/>
<path fill="#D6DDE0" d="M600.212,405.062l1.146,0.927l91.521-52.461c0,0,61.396,34.738,64.057,36.247
	c3.211,1.815,5.252,4.306,1.252,7.056c-2.163,1.488-163.56,95.149-163.56,95.149l-6.917-11.477l1.584-9.856L600.212,405.062z"/>
<g>
	<polygon fill="none" stroke="#5C79BB" stroke-miterlimit="10" points="619.228,402.112 645.895,416.778 673.561,401.278 
		646.144,385.279 	"/>
	<line fill="none" stroke="#5C79BB" stroke-miterlimit="10" x1="619.228" y1="402.112" x2="619.228" y2="432.526"/>
	<line fill="none" stroke="#5C79BB" stroke-miterlimit="10" x1="618.954" y1="432.044" x2="646.853" y2="449.419"/>
	<polyline fill="none" stroke="#5C79BB" stroke-miterlimit="10" points="673.561,401.278 673.561,432.945 646.498,449.044 	"/>
	<line fill="none" stroke="#5C79BB" stroke-miterlimit="10" x1="645.895" y1="416.778" x2="645.895" y2="448.823"/>
	<g>
		<g>
			<line fill="none" stroke="#5C79BB" stroke-miterlimit="10" x1="645.895" y1="416.778" x2="645.038" y2="417.292"/>
			
				<line fill="none" stroke="#5C79BB" stroke-miterlimit="10" stroke-dasharray="1.9549,0.5865" x1="644.535" y1="417.594" x2="620.834" y2="431.859"/>
			<line fill="none" stroke="#5C79BB" stroke-miterlimit="10" x1="620.582" y1="432.009" x2="619.726" y2="432.526"/>
		</g>
	</g>
	<g>
		<g>
			<line fill="none" stroke="#5C79BB" stroke-miterlimit="10" x1="673.257" y1="432.526" x2="672.39" y2="432.027"/>
			
				<line fill="none" stroke="#5C79BB" stroke-miterlimit="10" stroke-dasharray="1.9858,0.5957" x1="671.874" y1="431.728" x2="647.519" y2="417.716"/>
			<line fill="none" stroke="#5C79BB" stroke-miterlimit="10" x1="647.261" y1="417.569" x2="646.394" y2="417.07"/>
		</g>
	</g>
	<g>
		<g>
			<line fill="none" stroke="#5C79BB" stroke-miterlimit="10" x1="645.895" y1="416.778" x2="645.902" y2="415.778"/>
			
				<line fill="none" stroke="#5C79BB" stroke-miterlimit="10" stroke-dasharray="2.0206,0.6062" x1="645.907" y1="415.17" x2="646.133" y2="386.581"/>
			<line fill="none" stroke="#5C79BB" stroke-miterlimit="10" x1="646.136" y1="386.279" x2="646.144" y2="385.279"/>
		</g>
	</g>
</g>
<g>
	<polygon fill="none" stroke="#DB5197" stroke-miterlimit="10" points="66.292,209.313 92.959,223.979 120.625,208.479 
		93.208,192.48 	"/>
	<line fill="none" stroke="#DB5197" stroke-miterlimit="10" x1="66.292" y1="209.313" x2="66.292" y2="239.728"/>
	<line fill="none" stroke="#DB5197" stroke-miterlimit="10" x1="66.018" y1="239.247" x2="93.917" y2="256.622"/>
	<polyline fill="none" stroke="#DB5197" stroke-miterlimit="10" points="120.625,208.479 120.625,240.146 93.562,256.247 	"/>
	<line fill="none" stroke="#DB5197" stroke-miterlimit="10" x1="92.959" y1="223.979" x2="92.959" y2="256.025"/>
	<g>
		<g>
			<line fill="none" stroke="#DB5197" stroke-miterlimit="10" x1="92.959" y1="223.979" x2="92.102" y2="224.495"/>
			
				<line fill="none" stroke="#DB5197" stroke-miterlimit="10" stroke-dasharray="1.9549,0.5865" x1="91.599" y1="224.797" x2="67.898" y2="239.061"/>
			<line fill="none" stroke="#DB5197" stroke-miterlimit="10" x1="67.647" y1="239.212" x2="66.79" y2="239.728"/>
		</g>
	</g>
	<g>
		<g>
			<line fill="none" stroke="#DB5197" stroke-miterlimit="10" x1="120.321" y1="239.728" x2="119.454" y2="239.229"/>
			
				<line fill="none" stroke="#DB5197" stroke-miterlimit="10" stroke-dasharray="1.9858,0.5957" x1="118.938" y1="238.932" x2="94.583" y2="224.919"/>
			<line fill="none" stroke="#DB5197" stroke-miterlimit="10" x1="94.324" y1="224.77" x2="93.458" y2="224.271"/>
		</g>
	</g>
	<g>
		<g>
			<line fill="none" stroke="#DB5197" stroke-miterlimit="10" x1="92.959" y1="223.979" x2="92.966" y2="222.979"/>
			
				<line fill="none" stroke="#DB5197" stroke-miterlimit="10" stroke-dasharray="2.0206,0.6062" x1="92.971" y1="222.374" x2="93.197" y2="193.784"/>
			<line fill="none" stroke="#DB5197" stroke-miterlimit="10" x1="93.2" y1="193.48" x2="93.208" y2="192.48"/>
		</g>
	</g>
</g>
<path fill="#EDA91A" d="M661.337,335.644l-32.333,18v6.503l32.959,19.165l30.917-19.666v-6.118L661.337,335.644z M664.42,364.897
	l-18.25-11.75l14.584-8.419l16.75,11.195L664.42,364.897z"/>
<path fill="#FCEA10" d="M661.337,335.644l-32.333,18l32.376,18.918l31.5-19.034L661.337,335.644z M663.254,363.978l-17.084-10.831
	l14.584-8.419l16.75,11.195L663.254,363.978z"/>
<g>
	<path fill="#BE3E59" d="M207.92,282.978l-32.333,18v6.503l32.959,19.166l30.917-19.666v-6.119L207.92,282.978z M211.003,312.231
		l-18.25-11.75l14.584-8.418l16.75,11.195L211.003,312.231z"/>
	<path fill="#DB4B69" d="M207.92,282.978l-32.333,18l32.376,18.919l31.5-19.035L207.92,282.978z M209.837,311.313l-17.084-10.832
		l14.584-8.418l16.75,11.195L209.837,311.313z"/>
</g>
<path fill="none" stroke="#D6DDE0" stroke-miterlimit="10" d="M448.397,404.197c2.754,1.595,101.914,63.205,125.731,70.531
	c16.25,5,16.484-7.172,17.5-13.75c0.236-1.529,4.219-26.101,9.252-57.48c7.032-43.855,16.117-101.015,19.898-127.2
	c0.559-3.866,0.99-5.286,1.351-7.651c0.833-5.5,1.332-7.917-6.168-12.25c-20.282-11.718-103.82-59.787-126.666-71.473
	c-2.005-1.025-7.045-0.786-7.702,3.05c-0.605,3.546-30.158,184.381-34.615,211.649C446.615,401.846,446.419,403.049,448.397,404.197
	z"/>
<path fill="none" stroke="#D6DDE0" stroke-miterlimit="10" d="M158.378,236.728c2.754,1.598,106.807,62.099,128.751,73.906
	c5.013,2.697,5.743-3.804,6.5-8.155c0.691-3.975,28.437-172.614,34.11-202.431c0.75-3.945,1.723-8.998-5.108-12.735
	c-18.643-10.198-114.557-66.87-126.252-73.095c-4.951-2.635-7.851-0.159-8.508,3.677c-2.884,16.84-32.614,191.84-34.832,205.834
	C151.956,230.565,156.399,235.582,158.378,236.728z"/>
<path fill="#72A8D9" d="M291.084,99.451c-0.469,0.846-1.535,1.149-2.381,0.682l-82.109-45.507c-0.846-0.47-1.152-1.536-0.683-2.382
	l0,0c0.469-0.848,1.535-1.152,2.381-0.684l82.109,45.507C291.247,97.539,291.553,98.604,291.084,99.451L291.084,99.451z"/>
<path fill="#4F5EA7" d="M291.737,161.45c-0.621,1.071-1.759,1.576-2.539,1.126l-75.817-43.809c-0.781-0.452-0.912-1.688-0.291-2.763
	l0,0c0.621-1.074,1.757-1.579,2.539-1.127l75.817,43.808C292.227,159.139,292.358,160.374,291.737,161.45L291.737,161.45z"/>
<path fill="#4F5EA7" d="M270.98,162.299c-0.619,1.074-1.622,1.657-2.235,1.301l-59.658-34.47c-0.614-0.356-0.61-1.514,0.011-2.589
	l0,0c0.621-1.074,1.622-1.657,2.237-1.301l59.658,34.471C271.606,160.066,271.603,161.223,270.98,162.299L270.98,162.299z"/>
<path fill="#4F5EA7" d="M292.522,123.879c-0.64,1.104-1.762,1.653-2.507,1.221l-72.37-41.813c-0.743-0.434-0.833-1.679-0.191-2.783
	l0,0c0.639-1.106,1.762-1.653,2.507-1.222l72.37,41.814C293.075,121.527,293.163,122.772,292.522,123.879L292.522,123.879z"/>
<path fill="#4F5EA7" d="M281.222,130.409c-0.64,1.104-1.686,1.695-2.337,1.318l-63.244-36.542c-0.649-0.377-0.662-1.579-0.021-2.685
	l0,0c0.639-1.106,1.686-1.697,2.337-1.32l63.243,36.543C281.851,128.101,281.862,129.301,281.222,130.409L281.222,130.409z"/>
<path fill="#4F5EA7" d="M287.04,145.76c-0.641,1.105-1.744,1.663-2.468,1.244l-70.298-40.618c-0.726-0.419-0.796-1.655-0.154-2.761
	l0,0c0.639-1.106,1.745-1.663,2.469-1.244L286.887,143C287.61,143.418,287.68,144.652,287.04,145.76L287.04,145.76z"/>
<ellipse fill="#494A5A" cx="152.871" cy="172.478" rx="6.583" ry="3.917"/>
<g>
	<g>
		<g>
			<path fill="#E6C825" d="M384.426,302.537c4.313-6.598,4.75-15.846,1.388-24.834c-1.449-3.877-3.606-7.708-6.465-11.262
				c-8.877-11.026-21.836-16.028-32.104-13.337c-2.658,0.693-5.132,1.904-7.31,3.656c-8.606,6.927-9.921,20.217-4.114,32.4
				c1.34,2.812,3.058,5.563,5.151,8.167c2.997,3.724,6.458,6.766,10.126,9.044c10.003,6.234,21.532,6.881,29.285,0.643
				C381.984,305.726,383.336,304.218,384.426,302.537z M355.759,293.392c-1.694-1.065-3.291-2.477-4.677-4.197
				c-0.992-1.233-1.804-2.54-2.434-3.867c-0.044-0.088-0.085-0.177-0.127-0.266c-2.602-5.693-1.938-11.841,2.066-15.066
				c1.033-0.83,2.203-1.399,3.462-1.728c4.858-1.275,10.992,1.093,15.189,6.311c1.235,1.536,2.192,3.183,2.875,4.854
				c1.724,4.246,1.646,8.665-0.266,11.877c-0.552,0.939-1.261,1.768-2.127,2.464C366.029,296.747,360.513,296.415,355.759,293.392z"
				/>
		</g>
	</g>
	<path fill="none" d="M379.348,266.441c-11.169-13.879-28.813-18.212-39.411-9.685c-10.599,8.532-10.135,26.693,1.034,40.573
		c11.169,13.877,28.813,18.214,39.411,9.683C390.98,298.486,390.518,280.318,379.348,266.441z M351.08,289.195
		c-5.285-6.566-5.504-15.16-0.49-19.197c5.017-4.038,13.364-1.984,18.65,4.581c5.282,6.564,5.502,15.162,0.487,19.2
		C364.714,297.809,356.365,295.76,351.08,289.195z"/>
	<path fill="#DC4A75" d="M384.426,302.537l-12.576-11.225c1.911-3.214,1.987-7.633,0.266-11.879l13.698-1.73
		C389.176,286.692,388.737,295.94,384.426,302.537z"/>
	<path fill="#D9DBD6" d="M380.384,307.014c-7.753,6.238-19.281,5.594-29.285-0.643c1.417-3.957,3.115-8.682,4.66-12.979
		c4.754,3.021,10.271,3.354,13.964,0.383c0.866-0.696,1.575-1.525,2.127-2.463l12.576,11.226
		C383.336,304.218,381.984,305.726,380.384,307.014z"/>
	<path fill="#4A5BA5" d="M351.1,306.373c-3.667-2.278-7.129-5.32-10.126-9.044c-2.096-2.604-3.813-5.356-5.151-8.167l12.7-4.1
		c0.647,1.419,1.502,2.815,2.562,4.133c1.386,1.722,2.981,3.131,4.677,4.197L351.1,306.373z"/>
	<path fill="#6BB4E5" d="M348.649,285.327l-12.828,3.834c-5.807-12.186-4.493-25.475,4.114-32.4c2.178-1.752,4.65-2.963,7.31-3.656
		l6.807,15.166c-1.259,0.327-2.429,0.896-3.462,1.728c-4.007,3.227-4.668,9.373-2.066,15.066
		C348.564,285.152,348.605,285.24,348.649,285.327z"/>
</g>
<g>
	<polygon fill="#E6C825" points="400.579,280.324 399.778,287.781 407.161,292.787 407.983,285.141 	"/>
	<polygon fill="#DC4A75" points="397.956,293.014 397.155,300.472 404.538,305.476 405.358,297.833 	"/>
	<polygon fill="#D9DBD6" points="395.507,306.448 394.707,313.906 402.09,318.91 402.91,311.264 	"/>
	<polygon fill="#6BB4E5" points="393.104,319.551 392.303,327.008 399.687,332.011 400.508,324.37 	"/>
</g>
<g id="Warstwa_6">
	<polygon fill="none" stroke="#DADADA" stroke-miterlimit="10" points="576.379,352.478 493.379,305.228 503.629,242.978 
		585.129,290.478 	"/>
	<line fill="none" stroke="#DADADA" stroke-miterlimit="10" x1="514.462" y1="249.228" x2="505.296" y2="311.564"/>
	<line fill="none" stroke="#DADADA" stroke-miterlimit="10" x1="526.796" y1="256.395" x2="517.796" y2="318.564"/>
	<line fill="none" stroke="#DADADA" stroke-miterlimit="10" x1="538.796" y1="263.228" x2="529.796" y2="325.564"/>
	<line fill="none" stroke="#DADADA" stroke-miterlimit="10" x1="550.629" y1="270.561" x2="541.63" y2="333.564"/>
	<line fill="none" stroke="#DADADA" stroke-miterlimit="10" x1="573.963" y1="284.064" x2="564.962" y2="345.728"/>
	<line fill="none" stroke="#DADADA" stroke-miterlimit="10" x1="561.962" y1="276.728" x2="553.297" y2="338.731"/>
	<line fill="none" stroke="#DADADA" stroke-miterlimit="10" x1="501.796" y1="256.561" x2="582.796" y2="303.064"/>
	<line fill="none" stroke="#DADADA" stroke-miterlimit="10" x1="500.046" y1="268.561" x2="581.046" y2="315.064"/>
	<line fill="none" stroke="#DADADA" stroke-miterlimit="10" x1="497.296" y1="280.314" x2="579.629" y2="327.397"/>
	
		<line fill="none" stroke="#DADADA" stroke-width="1.0265" stroke-miterlimit="10" x1="495.796" y1="293.314" x2="578.629" y2="341.228"/>
	<polygon fill="#E6C825" points="545.463,307.563 533.463,300.897 534.963,288.563 546.963,295.228 	"/>
	<polygon fill="#E6C825" points="578.129,340.397 566.796,334.228 568.463,321.228 579.629,327.728 	"/>
	<polygon fill="#6BB1E2" points="582.962,302.894 572.212,296.977 573.879,283.977 585.045,290.477 	"/>
	<polygon fill="#6BB1E2" points="519.379,306.644 507.379,299.81 509.046,286.81 521.295,294.063 	"/>
	<polygon fill="#5A5569" points="536.546,275.977 525.213,269.81 526.88,256.81 538.046,263.31 	"/>
	<polygon fill="#5A5569" points="553.295,338.978 541.962,332.644 543.629,321.394 554.712,327.476 	"/>
	<polygon fill="#DC4A75" points="510.462,274.145 499.879,268.228 501.712,257.061 512.129,262.978 	"/>
</g>
</svg>
