<?xml version="1.0" encoding="UTF-8" standalone="no"?>
<!DOCTYPE svg PUBLIC "-//W3C//DTD SVG 1.1//EN" "http://www.w3.org/Graphics/SVG/1.1/DTD/svg11.dtd">
<svg width="100%" height="100%" viewBox="0 0 300 63" version="1.1" xmlns="http://www.w3.org/2000/svg" xmlns:xlink="http://www.w3.org/1999/xlink" xml:space="preserve" xmlns:serif="http://www.serif.com/" style="fill-rule:evenodd;clip-rule:evenodd;stroke-linejoin:round;stroke-miterlimit:2;">
    <g transform="matrix(1,0,0,1,-362,-352.925)">
        <g id="trash">
            <path d="M384.851,396.693L384.851,415.074L380.382,415.074L380.382,401.162L375.66,401.162L375.66,415.074L371.19,415.074L371.19,401.162L366.469,401.162L366.469,415.074L362,415.074L362,396.693L384.851,396.693ZM436.462,415.074L440.931,415.074L440.931,396.693L436.462,396.693L436.462,415.074ZM450.29,396.693L445.82,396.693L445.82,415.074L464.476,415.074L464.476,410.605L450.29,410.605L450.29,396.693ZM469.429,415.074L473.899,415.074L473.899,396.693L469.429,396.693L469.429,415.074ZM609.818,396.693L609.818,403.649L600.375,403.649L600.375,396.693L595.906,396.693L595.906,415.074L600.375,415.074L600.375,408.119L609.818,408.119L609.818,415.074L614.287,415.074L614.287,396.693L609.818,396.693ZM572.191,396.693L572.191,415.074L591.015,415.074L591.015,410.605L576.661,410.605L576.661,401.162L591.015,401.162L591.015,396.693L572.191,396.693ZM520.464,403.649L515.692,403.649L515.692,396.693L511.222,396.693L511.222,403.649L506.528,403.649L506.528,396.693L502.059,396.693L502.059,415.074L506.528,415.074L506.528,408.119L515.993,408.119L515.993,415.074L520.462,415.074L520.462,408.119L520.464,408.119L520.464,403.649ZM548.815,396.693L548.815,415.074L567.3,415.074L567.3,410.605L553.283,410.605L553.283,408.119L567.3,408.119L567.3,403.649L553.283,403.649L553.283,401.162L567.3,401.162L567.3,396.693L548.815,396.693ZM525.353,396.693L525.353,401.162L534.566,401.162L534.566,415.074L539.035,415.074L539.035,401.162L543.926,401.162L543.926,396.693L525.353,396.693ZM478.788,396.693L478.788,415.074L483.258,415.074L483.258,401.162L492.7,401.162L492.7,415.074L497.169,415.074L497.169,396.693L478.788,396.693ZM413.096,396.693L413.096,401.162L427.188,401.162L427.188,403.649L413.096,403.649L413.096,408.119L427.188,408.119L427.188,410.605L413.096,410.605L413.096,415.074L431.657,415.074L431.657,396.693L413.096,396.693ZM389.74,396.693L389.74,415.074L408.205,415.074L408.205,396.693L389.74,396.693ZM394.209,410.605L394.209,401.162L403.736,401.162L403.736,410.605L394.209,410.605Z" style="fill:rgb(29,29,27);fill-rule:nonzero;"/>
            <path d="M637.055,413.391L623.143,413.391L623.143,399.48L637.055,399.48L637.055,413.391ZM637.055,354.959L623.143,354.959L623.143,368.871L637.055,368.871L637.055,354.959ZM612.052,357.646L602.862,357.646L602.862,366.838L612.052,366.838L612.052,357.646ZM589.455,380.087L580.265,380.087L580.265,389.277L589.455,389.277L589.455,380.087ZM614.287,377.726L600.375,377.726L600.375,391.639L614.287,391.639L614.287,377.726ZM639.416,375.491L621.032,375.491L621.032,393.873L639.416,393.873L639.416,375.491ZM662,375.491L643.618,375.491L643.618,393.873L662,393.873L662,375.491ZM662,352.925L643.618,352.925L643.618,371.308L662,371.308L662,352.925Z" style="fill:rgb(29,29,27);fill-rule:nonzero;"/>
        </g>
    </g>
</svg>
