<?xml version="1.0" encoding="utf-8"?>
<!-- Generator: Adobe Illustrator 16.0.0, SVG Export Plug-In . SVG Version: 6.00 Build 0)  -->
<!DOCTYPE svg PUBLIC "-//W3C//DTD SVG 1.1//EN" "http://www.w3.org/Graphics/SVG/1.1/DTD/svg11.dtd">
<svg version="1.1" xmlns="http://www.w3.org/2000/svg" xmlns:xlink="http://www.w3.org/1999/xlink" x="0px" y="0px" width="300px"
	 height="62.149px" viewBox="0 0 300 62.149" enable-background="new 0 0 300 62.149" xml:space="preserve">
<g id="logo">
</g>
<g id="trash">
	<g>
		<path fill="#FFFFFF" d="M22.851,43.768v18.381h-4.469V48.237H13.66v13.912H9.19V48.237H4.47v13.912H0V43.768H22.851z
			 M74.462,62.149h4.469V43.768h-4.469V62.149z M88.29,43.768h-4.47v18.381h18.656V57.68H88.29V43.768z M107.429,62.149h4.47V43.768
			h-4.47V62.149z M247.818,43.768v6.956h-9.443v-6.956h-4.469v18.381h4.469v-6.955h9.443v6.955h4.469V43.768H247.818z
			 M210.191,43.768v18.381h18.824V57.68h-14.354v-9.443h14.354v-4.469H210.191z M153.993,50.724h-0.301v-6.956h-4.47v6.956h-4.694
			v-6.956h-4.469v18.381h4.469v-6.955h9.164h0.301v6.955h4.469v-6.955h0.002v-4.47h-0.002H153.993z M186.815,43.768v18.381h18.485
			V57.68h-14.017v-2.486h14.017v-4.47h-14.017v-2.487h14.017v-4.469H186.815z M163.353,43.768v4.469h9.213v13.912h4.469V48.237
			h4.891v-4.469H163.353z M116.788,43.768v18.381h4.47V48.237h9.442v13.912h4.469V43.768H116.788z M51.096,43.768v4.469h14.092
			v2.487H51.096v4.47h14.092v2.486H51.096v4.469h18.561V43.768H51.096z M27.74,43.768v18.381h18.465V43.768H27.74z M32.209,57.68
			v-9.443h9.527v9.443H32.209z"/>
		<path fill="#00CCFF" d="M275.055,60.465h-13.912V46.554h13.912V60.465z M275.055,2.034h-13.912v13.912h13.912V2.034z
			 M250.052,4.72h-9.19v9.192h9.19V4.72z M227.455,27.162h-9.19v9.19h9.19V27.162z M252.287,24.801h-13.912v13.913h13.912V24.801z
			 M277.416,22.565h-18.384v18.382h18.384V22.565z M300,22.565h-18.382v18.382H300V22.565z M300,0h-18.382v18.383H300V0z"/>
	</g>
</g>
</svg>
