<?xml version="1.0" encoding="utf-8"?>
<!-- Generator: Adobe Illustrator 16.0.0, SVG Export Plug-In . SVG Version: 6.00 Build 0)  -->
<!DOCTYPE svg PUBLIC "-//W3C//DTD SVG 1.1//EN" "http://www.w3.org/Graphics/SVG/1.1/DTD/svg11.dtd">
<svg version="1.1" id="OBJECTS" xmlns="http://www.w3.org/2000/svg" xmlns:xlink="http://www.w3.org/1999/xlink" x="0px" y="0px"
	 width="500px" height="500px" viewBox="0 0 500 500" enable-background="new 0 0 500 500" xml:space="preserve">
<g>
	<g opacity="0.59">
		<path fill="#D2CDEA" d="M435.105,223.548c12.344-22.522,10.447-51.393-3.583-72.928c-14.029-21.536-39.288-35.384-65.46-37.327
			c-32.233-2.394-66.73,11.606-95.86-1.981c-4.946-2.308-14.684-8.6-15.287-9.054c-10.712-8.08-63.368-51.311-132.92-4.846
			c-64.339,42.982-26.276,112.863-20.208,123.098c9.999,16.349,19.532,33.483,17.352,51.992
			c-2.088,17.718-14.642,32.522-20.346,49.478c-6.823,20.279-3.056,43.625,9.824,60.878c10.623,14.23,26.513,23.895,42.828,31.502
			c23.716,11.059,49.804,18.594,76.082,17.096l118.222-0.558c21.72-2.048,43.78-8.148,60.376-21.931s26.563-36.396,20.625-56.784
			c-4.294-14.743-15.928-26.414-21.87-40.604c-6.032-14.406-5.737-31.204,0.798-45.418
			C412.871,250.512,426.814,238.676,435.105,223.548z"/>
	</g>
	<g>
		<path opacity="0.46" fill="#BAB6DD" d="M441.236,314.165c-2.49-1.1-5.323-1.119-8.029-0.825
			c-5.989,0.65-11.814,2.765-16.825,6.108c-12.27,8.187-19.361,23.269-32.856,29.223c-0.956,0.422-2.07,0.79-3.018,0.349
			c-0.902-0.42-1.354-1.455-1.502-2.438c-0.514-3.392,1.59-6.543,2.924-9.703s1.537-7.581-1.449-9.269
			c-1.204-0.68-2.645-0.711-4.029-0.49c8.135-3.467,15.654-8.378,22.065-14.469c1.874-1.78,3.718-3.765,4.42-6.251
			c-7.676,4.206-15.946,7.323-24.488,9.23c-6.226,1.391-15.146,7.559-20.692,11.993c0.246-0.357,0.483-0.721,0.731-1.076
			c3.117-4.452,6.477-8.733,10.06-12.821c3.311-3.777,6.818-7.38,10.49-10.808c4.318-1.021,8.476-2.916,12.644-4.419
			c3.861-1.393,7.78-2.815,11.103-5.226c3.271-2.373,5.812-5.596,8.257-8.813c2.813-3.7,5.558-7.453,8.233-11.254
			c-0.698-0.512-1.667-0.317-2.505-0.1c-10.395,2.694-21.243,5.629-29.142,12.903c-4.685,4.315-8.062,10.025-9.607,16.202
			c-3.126,2.926-6.13,5.981-8.994,9.163c-1.211,1.345-2.388,2.72-3.55,4.107c3.222-6.31,5.563-13.521,7.981-19.55
			c1.925-4.801,2.901-9.92,3.867-15.001c0.741-3.903,1.483-7.807,2.225-11.71c-5.434,5.563-9.858,12.015-14.255,18.43
			c-3.446,5.03-6.972,10.239-8.178,16.217c-1.321,6.546,0.279,13.269,2.004,19.744c-0.169,0.231-0.345,0.458-0.513,0.691
			c-2.737,3.803-5.286,7.739-7.657,11.781c0.644-4.477,0.493-10.453-0.194-13.654c-1.409-6.557-5.749-12.438-5.864-19.145
			c-0.153,3.401-0.039,6.058-0.569,9.056c-0.979,5.533-1.53,11.224-0.574,16.76c0.667,3.865,2.286,7.849,5.409,10.124
			c-2.48,4.474-4.741,9.068-6.743,13.775c-0.269,0.63-0.533,1.263-0.793,1.896c-0.124,0.301,0.134,0.662,0.421,0.74
			c0.346,0.096,0.616-0.118,0.74-0.421c2.013-4.9,4.303-9.686,6.834-14.339c2.469,1.664,5.481,2.313,8.504,2.21
			c-1.416,2.638-2.668,5.376-3.905,8.104c-2.935,6.469-5.868,12.938-8.803,19.406c-0.813,1.793-1.998,3.853-3.964,3.954
			c-2.223,0.113-3.645-2.409-3.912-4.619c-0.582-4.806,1.616-9.685,0.726-14.443c-0.193-1.034-0.559-2.085-1.324-2.807
			c-2.016-1.898-5.331-0.526-7.496,1.199c-6.267,4.994-10.363,12.299-12.81,19.928c-2.447,7.63-7.631,24.711-2.938,35.619
			c16.591,7.135,36.971,8.645,52.953,9.726c4.415,0.298,12.771,0.265,17.163-0.272c4.25-0.521,6.354-2.242,7.723-4.419
			c2.047-3.254-0.185-7.606-3.137-10.068c-2.951-2.463-6.68-4.089-8.953-7.188c-0.543-0.74-1.003-1.598-0.999-2.515
			c0.009-1.986,2.05-3.276,3.872-4.067c7.936-3.449,16.724-4.917,25.35-4.236c4.627,0.366,9.267,1.338,13.871,0.751
			c4.604-0.587,9.355-3.198,10.739-7.629c1.72-5.502-2.59-11.398-7.908-13.62c-3.403-1.422-7.84-2.378-8.805-5.938
			c-0.622-2.293,0.624-4.688,2.183-6.482c3.981-4.584,9.912-6.851,15.278-9.692c5.667-3.002,11.167-7.124,13.566-13.071
			C448.989,324.762,447.104,316.755,441.236,314.165z M357.042,338.231c-1.831,0.57-4.896,1.242-7.034,1.931
			c2.102-3.814,4.377-7.532,6.803-11.148c3.914,2.333,8.868,1.786,13.374,0.44c-3.098,1.79-5.796,4.343-7.985,7.196
			c-0.046,0.06-0.088,0.123-0.134,0.184C360.536,337.207,359.137,337.579,357.042,338.231z"/>
		<g>
			<g>
				<path fill="#29ABE2" d="M409.339,266.938c-10.395,2.694-21.242,5.63-29.141,12.904c-4.685,4.314-8.063,10.024-9.608,16.202
					c-3.125,2.925-6.129,5.98-8.993,9.162c-1.211,1.345-2.389,2.72-3.551,4.107c3.222-6.31,5.563-13.52,7.981-19.55
					c1.926-4.801,2.902-9.92,3.867-15.001c0.742-3.903,1.483-7.807,2.226-11.71c-5.434,5.564-9.859,12.015-14.256,18.431
					c-3.446,5.029-6.972,10.238-8.178,16.216c-1.321,6.546,0.279,13.269,2.004,19.744c-0.169,0.231-0.345,0.459-0.513,0.691
					c-2.737,3.803-5.286,7.739-7.656,11.781c0.644-4.477,0.493-10.453-0.195-13.653c-1.409-6.558-5.748-12.439-5.863-19.145
					c-0.154,3.401-0.04,6.058-0.57,9.056c-0.978,5.532-1.529,11.223-0.574,16.759c0.667,3.865,2.286,7.849,5.409,10.124
					c-2.48,4.474-4.741,9.068-6.743,13.775c-0.269,0.63-0.532,1.263-0.793,1.896c-0.123,0.301,0.134,0.662,0.421,0.74
					c0.346,0.096,0.617-0.118,0.741-0.42c2.012-4.9,4.302-9.687,6.833-14.34c3.829,2.58,8.968,2.731,13.421,1.396
					c4.671-1.399,8.766-4.217,12.774-6.992c0.331-0.229,0.677-0.476,0.844-0.841s0.07-0.884-0.302-1.036
					c-0.19-0.079-0.406-0.047-0.61-0.012c-3.458,0.599-6.784,1.792-10.197,2.61c-3.457,0.828-5.012,1.14-8.504,2.227
					c-1.831,0.57-4.895,1.243-7.034,1.931c2.103-3.814,4.377-7.532,6.803-11.148c4.487,2.675,10.341,1.565,15.319-0.194
					c9.798-3.463,18.854-9.012,26.388-16.169c1.873-1.779,3.717-3.765,4.419-6.251c-7.675,4.206-15.946,7.324-24.488,9.23
					c-6.226,1.391-15.146,7.559-20.691,11.993c0.245-0.357,0.482-0.721,0.73-1.076c3.117-4.452,6.477-8.733,10.06-12.82
					c3.311-3.778,6.818-7.381,10.491-10.808c4.317-1.021,8.475-2.917,12.643-4.42c3.861-1.393,7.78-2.815,11.103-5.226
					c3.271-2.373,5.813-5.596,8.257-8.813c2.813-3.7,5.559-7.452,8.233-11.254C411.146,266.526,410.177,266.721,409.339,266.938z"/>
			</g>
			<g>
				<g>
					<path fill="#0E31AE" d="M306.266,403.261c-4.694-10.908,0.489-27.989,2.937-35.619c2.446-7.629,6.544-14.934,12.81-19.928
						c2.165-1.726,5.48-3.098,7.497-1.198c0.766,0.721,1.131,1.771,1.324,2.806c0.89,4.759-1.309,9.638-0.727,14.444
						c0.268,2.209,1.689,4.732,3.912,4.618c1.967-0.101,3.15-2.161,3.964-3.954c2.935-6.469,5.869-12.938,8.803-19.406
						c2.29-5.048,4.609-10.146,7.984-14.542c3.375-4.397,7.952-8.095,13.35-9.356c1.643-0.385,3.463-0.514,4.932,0.315
						c2.987,1.688,2.783,6.108,1.449,9.269s-3.437,6.312-2.924,9.703c0.149,0.984,0.6,2.019,1.502,2.438
						c0.948,0.442,2.062,0.073,3.018-0.349c13.495-5.954,20.587-21.036,32.856-29.223c5.012-3.343,10.836-5.458,16.825-6.108
						c2.707-0.294,5.539-0.274,8.03,0.825c5.866,2.591,7.753,10.597,5.354,16.544c-2.399,5.946-7.899,10.068-13.566,13.07
						c-5.366,2.842-11.296,5.108-15.278,9.692c-1.559,1.794-2.804,4.189-2.183,6.482c0.966,3.56,5.401,4.516,8.805,5.938
						c5.318,2.223,9.628,8.119,7.909,13.62c-1.385,4.431-6.136,7.042-10.74,7.629s-9.244-0.385-13.871-0.75
						c-8.626-0.682-17.414,0.787-25.35,4.235c-1.821,0.791-3.863,2.081-3.872,4.067c-0.004,0.918,0.456,1.774,0.999,2.515
						c2.274,3.1,6.002,4.725,8.953,7.188c2.952,2.463,5.185,6.814,3.138,10.068c-1.37,2.178-3.474,3.899-7.723,4.419
						c-4.393,0.537-12.749,0.571-17.164,0.272C343.235,411.906,322.855,410.396,306.266,403.261"/>
				</g>
				<path fill="#ADA0F3" d="M427.973,317.404c-7.033,6.027-14.066,12.055-21.162,18.01c-1.06,0.89-2.123,1.773-3.187,2.659
					c0.481-0.965,0.963-1.93,1.435-2.899c0.705-1.446,1.401-2.896,2.097-4.348c0.701-1.466,1.401-2.934,2.103-4.399
					c0.696-1.456,1.395-2.912,2.1-4.363c0.675-1.392,1.356-2.78,2.05-4.162c0.084-0.167,0.168-0.334,0.252-0.501
					c0.167-0.331-0.342-0.6-0.509-0.269c-0.691,1.371-1.37,2.749-2.043,4.13c-0.704,1.446-1.401,2.896-2.096,4.348
					c-0.702,1.466-1.401,2.934-2.103,4.399c-0.696,1.456-1.396,2.912-2.1,4.364c-0.676,1.391-1.357,2.779-2.051,4.161
					c-0.075,0.15-0.15,0.301-0.227,0.451c-5.675,4.719-11.394,9.385-17.189,13.954c-7.237,5.706-14.592,11.267-22.11,16.598
					c-3.973,2.817-7.995,5.565-12.064,8.241c1.574-4.224,3.069-8.476,4.471-12.759c1.454-4.442,2.813-8.915,4.078-13.415
					c0.709-2.522,1.388-5.054,2.037-7.592c0.092-0.359-0.47-0.482-0.562-0.124c-1.158,4.528-2.411,9.032-3.759,13.508
					c-1.342,4.453-2.776,8.877-4.304,13.27c-0.86,2.473-1.75,4.936-2.668,7.388c-0.024,0.063-0.029,0.131-0.019,0.193
					c-3.393,2.22-6.814,4.396-10.281,6.499c-7.762,4.712-15.718,9.103-23.833,13.177c-0.491-2.616-0.869-5.255-1.126-7.905
					c-0.264-2.73-0.402-5.475-0.415-8.219c-0.012-2.749,0.101-5.499,0.342-8.237c0.241-2.733,0.606-5.456,1.092-8.157
					c0.49-2.734,1.104-5.447,1.832-8.128c0.091-0.336,0.185-0.671,0.279-1.006c0.101-0.356-0.462-0.479-0.562-0.123
					c-0.761,2.688-1.408,5.41-1.931,8.155c-0.519,2.723-0.916,5.469-1.188,8.227c-0.271,2.749-0.419,5.511-0.438,8.273
					c-0.02,2.78,0.091,5.562,0.33,8.332c0.241,2.779,0.611,5.547,1.109,8.292c0.046,0.257,0.095,0.513,0.143,0.768
					c-0.229,0.114-0.453,0.235-0.683,0.349c-1.056,0.525-2.115,1.045-3.177,1.559c-0.332,0.161-0.02,0.645,0.31,0.484
					c1.312-0.635,2.61-1.294,3.913-1.946c0.016-0.002,0.032,0,0.047-0.004c0.05-0.016,0.087-0.044,0.116-0.077
					c2.845-1.425,5.676-2.876,8.479-4.38c1.96,0.137,3.921,0.268,5.881,0.394c1.923,0.124,3.847,0.244,5.77,0.363
					c1.905,0.117,3.81,0.233,5.715,0.351c1.919,0.118,3.838,0.237,5.757,0.36c1.957,0.125,3.914,0.254,5.871,0.389
					c0.254,0.018,0.509,0.035,0.763,0.054c0.155,0.011,0.28-0.161,0.272-0.303c-0.009-0.171-0.146-0.261-0.302-0.272
					c-1.975-0.138-3.949-0.269-5.924-0.396c-1.924-0.124-3.847-0.244-5.771-0.362c-1.904-0.118-3.809-0.233-5.714-0.351
					c-1.919-0.118-3.839-0.237-5.758-0.36c-1.876-0.12-3.752-0.245-5.627-0.374c3.975-2.147,7.909-4.368,11.795-6.674
					c7.983-4.736,15.767-9.807,23.377-15.12c3.645-2.545,7.248-5.147,10.819-7.794c0.769,0.174,1.568,0.241,2.35,0.324
					c0.967,0.104,1.935,0.194,2.902,0.286c2.786,0.266,5.575,0.508,8.365,0.728c2.791,0.219,5.584,0.414,8.378,0.586
					c2.795,0.172,5.59,0.32,8.387,0.444c2.797,0.125,5.595,0.226,8.393,0.304c0.352,0.01,0.703,0.019,1.055,0.027
					c0.369,0.01,0.339-0.564-0.03-0.574c-2.785-0.071-5.57-0.166-8.354-0.283c-2.797-0.119-5.593-0.261-8.388-0.427
					c-2.781-0.165-5.562-0.353-8.34-0.564s-5.556-0.447-8.33-0.706c-1.089-0.102-2.177-0.205-3.265-0.314
					c-0.829-0.083-1.662-0.169-2.485-0.301c3.643-2.708,7.25-5.463,10.828-8.256c6.658-5.199,13.211-10.532,19.706-15.935
					c0.027-0.015,0.052-0.035,0.074-0.062c0.575-0.479,1.154-0.954,1.729-1.435c7.08-5.911,14.093-11.902,21.097-17.903
					c0.866-0.742,1.732-1.484,2.599-2.228C428.677,317.554,428.251,317.166,427.973,317.404z"/>
			</g>
		</g>
	</g>
	<g>
		<path opacity="0.28" fill="#BAB6DD" d="M195.332,355.69c-2.447-7.63-6.544-14.935-12.81-19.929
			c-2.06-1.642-5.159-2.956-7.191-1.446c-1.015-2.043-2.07-4.065-3.176-6.061c3.123-2.275,4.742-6.259,5.409-10.124
			c0.955-5.537,0.403-11.228-0.574-16.76c-0.53-2.998-0.416-5.654-0.57-9.056c-0.116,6.706-4.455,12.588-5.864,19.145
			c-0.688,3.201-0.838,9.178-0.195,13.654c-2.371-4.042-4.919-7.979-7.657-11.781c-0.167-0.233-0.344-0.46-0.512-0.692
			c1.724-6.475,3.325-13.197,2.003-19.744c-1.206-5.977-4.731-11.186-8.178-16.216c-4.396-6.415-8.822-12.866-14.255-18.43
			c0.742,3.903,1.483,7.806,2.225,11.709c0.966,5.082,1.942,10.201,3.868,15.002c2.418,6.029,4.76,13.24,7.981,19.55
			c-1.162-1.388-2.34-2.763-3.551-4.108c-2.864-3.181-5.868-6.236-8.993-9.162c-1.546-6.177-4.924-11.887-9.608-16.202
			c-7.898-7.274-18.747-10.209-29.141-12.903c-0.838-0.218-1.807-0.412-2.505,0.1c2.675,3.801,5.42,7.554,8.233,11.254
			c2.445,3.217,4.987,6.438,8.257,8.812c3.322,2.411,7.241,3.834,11.103,5.227c4.168,1.503,8.325,3.398,12.643,4.419
			c3.672,3.428,7.18,7.03,10.491,10.808c3.583,4.088,6.942,8.368,10.059,12.821c0.249,0.355,0.486,0.719,0.731,1.075
			c-5.545-4.434-14.466-10.603-20.692-11.992c-8.542-1.907-16.813-5.024-24.488-9.23c0.703,2.486,2.546,4.471,4.419,6.251
			c2.9,2.755,6.03,5.266,9.336,7.517c-0.222,0.081-0.439,0.176-0.648,0.294c-2.987,1.688-2.784,6.107-1.449,9.268
			s3.437,6.312,2.924,9.703c-0.149,0.984-0.6,2.019-1.502,2.439c-0.948,0.441-2.062,0.072-3.018-0.35
			c-13.495-5.953-20.587-21.036-32.856-29.222c-5.011-3.344-10.836-5.459-16.825-6.109c-2.707-0.294-5.54-0.274-8.03,0.825
			c-5.866,2.591-7.753,10.597-5.354,16.544c2.399,5.946,7.899,10.068,13.566,13.07c5.366,2.843,11.296,5.108,15.279,9.692
			c1.558,1.794,2.804,4.189,2.182,6.482c-0.965,3.56-5.401,4.516-8.805,5.938c-5.318,2.223-9.628,8.119-7.909,13.62
			c1.385,4.431,6.136,7.042,10.74,7.629c4.604,0.587,9.244-0.385,13.871-0.75c8.626-0.682,17.414,0.787,25.35,4.235
			c1.822,0.792,3.863,2.081,3.872,4.067c0.003,0.719-0.281,1.398-0.664,2.016c-2.352-0.487-4.746-0.839-7.112-1.175
			c-7.7-1.096-15.445-2.193-23.218-1.948c3.378,2.091,6.756,4.183,10.135,6.273c3.196,1.979,6.413,3.962,9.789,5.601
			c-1.619,1.743-2.804,4.021-2.803,6.195c-3.337-0.777-6.791-1.059-10.206-0.77c-10.7,0.906-20.194,6.919-29.205,12.76
			c-0.727,0.471-1.525,1.053-1.62,1.913c4.61,0.598,9.231,1.109,13.86,1.537c4.023,0.372,8.116,0.676,12.075-0.131
			c4.022-0.82,7.719-2.747,11.354-4.652c2.816-1.476,5.775-2.814,8.58-4.371c1.012,0.433,2.205,0.763,3.667,0.941
			c4.392,0.537,12.749,0.571,17.164,0.272c2.034-0.138,4.14-0.282,6.298-0.444c-5.348,1.296-10.819,3.109-14.139,5.426
			c-7.178,5.008-15.065,8.997-23.353,11.812c2.308,1.163,5.017,1.146,7.594,0.967c10.367-0.716,20.576-3.641,29.75-8.522
			c4.484-2.387,9.063-5.779,10.349-10.587c0.725-0.077,1.453-0.158,2.183-0.241c3.618,0.6,7.215,1.321,10.779,2.188
			c-1.953,1.112-4.519,2.916-6.177,3.88c-3.161,1.84-4.441,2.775-7.388,4.763c-2.91,1.963-6.037,3.608-8.815,5.753
			c-0.164,0.127-0.333,0.265-0.404,0.458c-0.139,0.377,0.178,0.799,0.561,0.922c0.382,0.124,0.797,0.036,1.189-0.053
			c4.754-1.08,9.599-2.194,13.787-4.69c3.994-2.381,7.355-6.271,8.041-10.836c5.141,1.278,10.216,2.824,15.188,4.653
			c0.307,0.112,0.647,0.057,0.811-0.262c0.136-0.265,0.044-0.698-0.262-0.811c-0.643-0.237-1.288-0.469-1.933-0.697
			c-4.823-1.705-9.737-3.145-14.71-4.34c0.091-0.812,0.062-1.623-0.034-2.432c8.149-1.405,16.268-3.461,23.639-6.631
			C202.961,380.4,197.778,363.319,195.332,355.69z M174.461,335.272c-0.392,0.627-0.624,1.363-0.761,2.097
			c-0.89,4.759,1.308,9.638,0.726,14.444c-0.268,2.209-1.689,4.732-3.912,4.618c-1.966-0.101-3.15-2.161-3.964-3.954
			c-2.934-6.469-5.869-12.938-8.803-19.406c-0.349-0.769-0.7-1.538-1.054-2.307c0.52,0.195,1.045,0.379,1.58,0.539
			c4.454,1.335,9.592,1.184,13.421-1.396C172.657,331.675,173.571,333.468,174.461,335.272z M164.5,318.042
			c2.426,3.616,4.701,7.334,6.803,11.147c-2.139-0.688-5.203-1.359-7.034-1.93c-3.492-1.087-5.046-1.398-8.503-2.228
			c-0.738-0.177-1.471-0.376-2.203-0.578c-1.131-2.062-2.366-4.059-3.799-5.925c-0.171-0.224-0.348-0.443-0.525-0.663
			C154.205,319.614,160.03,320.707,164.5,318.042z M171.135,399.571c-1.026-0.221-2.055-0.427-3.084-0.627
			c0.615-0.082,1.233-0.175,1.85-0.264C170.316,398.991,170.729,399.294,171.135,399.571z"/>
		<g>
			<g>
				<path fill="#0E31AE" d="M98.521,266.938c10.395,2.694,21.243,5.63,29.141,12.904c4.685,4.314,8.062,10.024,9.608,16.202
					c3.125,2.925,6.129,5.98,8.994,9.162c1.211,1.345,2.388,2.72,3.55,4.107c-3.222-6.31-5.563-13.52-7.981-19.55
					c-1.926-4.801-2.902-9.92-3.868-15.001c-0.741-3.903-1.483-7.807-2.225-11.71c5.433,5.564,9.859,12.015,14.255,18.431
					c3.447,5.029,6.972,10.238,8.178,16.216c1.321,6.546-0.279,13.269-2.003,19.744c0.169,0.231,0.345,0.459,0.512,0.691
					c2.738,3.803,5.286,7.739,7.657,11.781c-0.644-4.477-0.493-10.453,0.195-13.653c1.409-6.558,5.749-12.439,5.864-19.145
					c0.154,3.401,0.04,6.058,0.57,9.056c0.978,5.532,1.53,11.223,0.574,16.759c-0.667,3.865-2.287,7.849-5.409,10.124
					c2.48,4.474,4.741,9.068,6.743,13.775c0.268,0.63,0.533,1.263,0.792,1.896c0.124,0.301-0.134,0.662-0.42,0.74
					c-0.346,0.096-0.617-0.118-0.741-0.42c-2.012-4.9-4.302-9.687-6.833-14.34c-3.829,2.58-8.967,2.731-13.421,1.396
					c-4.67-1.399-8.765-4.217-12.774-6.992c-0.331-0.229-0.676-0.476-0.843-0.841c-0.167-0.365-0.071-0.884,0.301-1.036
					c0.191-0.079,0.407-0.047,0.61-0.012c3.459,0.599,6.784,1.792,10.198,2.61c3.457,0.828,5.011,1.14,8.503,2.227
					c1.832,0.57,4.895,1.243,7.035,1.931c-2.103-3.814-4.377-7.532-6.803-11.148c-4.487,2.675-10.34,1.565-15.319-0.194
					c-9.798-3.463-18.853-9.012-26.387-16.169c-1.874-1.779-3.717-3.765-4.42-6.251c7.676,4.206,15.946,7.324,24.489,9.23
					c6.226,1.391,15.146,7.559,20.692,11.993c-0.246-0.357-0.483-0.721-0.731-1.076c-3.117-4.452-6.477-8.733-10.059-12.82
					c-3.311-3.778-6.818-7.381-10.491-10.808c-4.318-1.021-8.475-2.917-12.644-4.42c-3.861-1.393-7.78-2.815-11.103-5.226
					c-3.27-2.373-5.812-5.596-8.257-8.813c-2.813-3.7-5.558-7.452-8.233-11.254C96.715,266.526,97.684,266.721,98.521,266.938z"/>
			</g>
			<g>
				<path fill="#F7594F" d="M74.214,410.327c9.011-5.841,18.505-11.854,29.205-12.759c6.346-0.537,12.837,0.832,18.436,3.867
					c4.269-0.327,8.55-0.477,12.831-0.438c1.81,0.017,3.619,0.078,5.427,0.159c-6.828-1.89-13.725-5.036-19.804-7.328
					c-4.84-1.825-9.273-4.565-13.671-7.288c-3.378-2.091-6.756-4.182-10.135-6.273c7.773-0.244,15.519,0.854,23.218,1.948
					c6.037,0.858,12.258,1.78,17.479,4.931c5.718,3.45,9.592,9.174,13.199,14.82c0.285,0.032,0.571,0.056,0.856,0.09
					c4.653,0.552,9.277,1.334,13.858,2.317c-3.734-2.551-8.038-6.7-9.932-9.371c-3.881-5.47-5.284-12.643-10.148-17.26
					c2.611,2.186,4.492,4.064,7.06,5.7c4.739,3.018,9.306,6.457,12.741,10.902c2.398,3.104,4.24,6.989,3.807,10.829
					c4.973,1.194,9.888,2.634,14.71,4.339c0.646,0.229,1.291,0.461,1.933,0.697c0.306,0.112,0.398,0.546,0.262,0.811
					c-0.164,0.319-0.504,0.375-0.811,0.262c-4.972-1.828-10.047-3.375-15.188-4.653c-0.686,4.566-4.047,8.456-8.041,10.836
					c-4.188,2.497-9.032,3.611-13.787,4.69c-0.392,0.089-0.807,0.178-1.189,0.054c-0.383-0.124-0.699-0.545-0.561-0.923
					c0.071-0.193,0.241-0.331,0.404-0.457c2.779-2.146,5.906-3.79,8.816-5.753c2.947-1.988,4.227-2.923,7.388-4.763
					c1.658-0.965,4.224-2.769,6.177-3.881c-4.232-1.027-8.509-1.864-12.814-2.52c-1.061,5.115-5.834,8.68-10.497,11.16
					c-9.174,4.882-19.383,7.807-29.75,8.523c-2.578,0.178-5.287,0.195-7.595-0.967c8.288-2.815,16.175-6.805,23.354-11.813
					c5.231-3.649,15.807-6.057,22.823-7.147c-0.429-0.061-0.857-0.131-1.287-0.188c-5.389-0.712-10.814-1.128-16.249-1.25
					c-5.021-0.112-10.048,0.038-15.056,0.429c-3.67,2.493-7.877,4.276-11.802,6.332c-3.636,1.905-7.333,3.833-11.355,4.652
					c-3.959,0.807-8.052,0.503-12.075,0.131c-4.629-0.427-9.25-0.939-13.859-1.536C72.689,411.381,73.488,410.798,74.214,410.327z"
					/>
			</g>
			<g>
				<g>
					<path fill="#29ABE2" d="M192.247,396.111c4.694-10.908-0.49-27.989-2.937-35.618c-2.447-7.63-6.544-14.935-12.81-19.928
						c-2.166-1.726-5.481-3.098-7.497-1.199c-0.766,0.722-1.131,1.772-1.324,2.806c-0.89,4.76,1.308,9.638,0.727,14.444
						c-0.268,2.21-1.689,4.732-3.913,4.618c-1.966-0.101-3.15-2.16-3.964-3.953c-2.934-6.469-5.869-12.938-8.803-19.407
						c-2.29-5.047-4.609-10.145-7.984-14.542c-3.375-4.396-7.952-8.095-13.349-9.356c-1.643-0.384-3.463-0.514-4.932,0.316
						c-2.987,1.688-2.783,6.108-1.449,9.269c1.334,3.16,3.438,6.311,2.924,9.702c-0.149,0.984-0.6,2.019-1.502,2.439
						c-0.948,0.441-2.061,0.072-3.018-0.35c-13.495-5.953-20.587-21.035-32.856-29.222c-5.011-3.344-10.836-5.459-16.825-6.109
						c-2.707-0.294-5.54-0.274-8.03,0.825c-5.866,2.591-7.753,10.597-5.354,16.544c2.399,5.947,7.899,10.069,13.566,13.07
						c5.366,2.843,11.296,5.108,15.279,9.693c1.558,1.793,2.804,4.188,2.182,6.481c-0.965,3.56-5.401,4.516-8.805,5.938
						c-5.318,2.223-9.628,8.119-7.909,13.621c1.385,4.43,6.136,7.042,10.74,7.628c4.604,0.587,9.245-0.385,13.872-0.75
						c8.626-0.682,17.414,0.787,25.35,4.235c1.821,0.792,3.862,2.081,3.872,4.067c0.004,0.918-0.456,1.775-0.999,2.515
						c-2.274,3.1-6.002,4.726-8.954,7.188c-2.952,2.463-5.184,6.815-3.137,10.069c1.37,2.177,3.473,3.898,7.723,4.418
						c4.392,0.537,12.749,0.571,17.164,0.272C155.277,404.757,175.657,403.246,192.247,396.111"/>
				</g>
				<path fill="#FFFFFF" d="M70.54,310.255c7.033,6.028,14.067,12.056,21.162,18.01c1.06,0.89,2.124,1.774,3.187,2.66
					c-0.481-0.966-0.962-1.931-1.435-2.899c-0.704-1.447-1.401-2.896-2.096-4.348c-0.702-1.467-1.401-2.934-2.103-4.4
					c-0.696-1.456-1.395-2.911-2.1-4.363c-0.675-1.392-1.356-2.779-2.05-4.162c-0.083-0.167-0.167-0.334-0.252-0.501
					c-0.167-0.33,0.342-0.599,0.509-0.269c0.692,1.372,1.371,2.749,2.043,4.13c0.705,1.447,1.402,2.896,2.096,4.348
					c0.702,1.467,1.401,2.934,2.103,4.4c0.697,1.456,1.395,2.911,2.1,4.363c0.675,1.392,1.357,2.779,2.05,4.162
					c0.075,0.149,0.151,0.3,0.227,0.45c5.675,4.719,11.394,9.385,17.19,13.954c7.237,5.707,14.591,11.267,22.11,16.598
					c3.973,2.817,7.996,5.565,12.065,8.241c-1.574-4.223-3.07-8.476-4.472-12.759c-1.454-4.442-2.813-8.915-4.078-13.414
					c-0.709-2.523-1.388-5.054-2.037-7.593c-0.091-0.358,0.47-0.481,0.562-0.123c1.158,4.528,2.411,9.032,3.759,13.507
					c1.341,4.453,2.776,8.878,4.304,13.271c0.86,2.473,1.75,4.935,2.668,7.387c0.024,0.064,0.029,0.131,0.019,0.194
					c3.393,2.22,6.814,4.396,10.281,6.499c7.762,4.712,15.718,9.102,23.833,13.177c0.491-2.617,0.869-5.255,1.126-7.905
					c0.264-2.731,0.403-5.475,0.415-8.219c0.012-2.749-0.101-5.499-0.342-8.237c-0.241-2.733-0.606-5.456-1.091-8.157
					c-0.491-2.734-1.104-5.447-1.832-8.129c-0.091-0.335-0.185-0.67-0.279-1.005c-0.101-0.356,0.461-0.479,0.562-0.124
					c0.76,2.689,1.407,5.41,1.93,8.156c0.519,2.723,0.916,5.468,1.187,8.226c0.271,2.75,0.419,5.511,0.438,8.273
					c0.02,2.78-0.091,5.563-0.33,8.332c-0.241,2.779-0.611,5.548-1.109,8.293c-0.046,0.256-0.095,0.512-0.143,0.768
					c0.229,0.114,0.454,0.234,0.683,0.349c1.056,0.524,2.115,1.044,3.177,1.559c0.333,0.161,0.02,0.645-0.31,0.484
					c-1.311-0.635-2.61-1.295-3.913-1.946c-0.016-0.002-0.032,0-0.047-0.005c-0.05-0.016-0.087-0.044-0.117-0.077
					c-2.844-1.425-5.675-2.876-8.479-4.38c-1.96,0.137-3.92,0.268-5.881,0.395c-1.923,0.124-3.846,0.244-5.77,0.362
					c-1.905,0.118-3.81,0.233-5.714,0.351c-1.919,0.118-3.838,0.237-5.757,0.36c-1.958,0.125-3.914,0.255-5.871,0.39
					c-0.254,0.018-0.509,0.035-0.763,0.053c-0.155,0.011-0.28-0.16-0.272-0.302c0.009-0.171,0.147-0.262,0.302-0.272
					c1.974-0.138,3.949-0.27,5.924-0.396c1.923-0.125,3.847-0.245,5.77-0.363c1.904-0.117,3.809-0.233,5.714-0.351
					c1.919-0.118,3.838-0.237,5.758-0.36c1.876-0.12,3.751-0.244,5.627-0.373c-3.975-2.148-7.91-4.368-11.795-6.674
					c-7.983-4.736-15.766-9.807-23.377-15.121c-3.645-2.544-7.248-5.147-10.819-7.794c-0.769,0.174-1.569,0.241-2.35,0.325
					c-0.966,0.103-1.935,0.193-2.902,0.286c-2.787,0.266-5.575,0.508-8.366,0.727c-2.791,0.219-5.584,0.414-8.378,0.586
					c-2.794,0.172-5.59,0.32-8.387,0.445c-2.796,0.124-5.594,0.226-8.393,0.303c-0.352,0.01-0.703,0.019-1.054,0.028
					c-0.37,0.009-0.339-0.565,0.03-0.575c2.786-0.071,5.571-0.165,8.354-0.283c2.797-0.118,5.593-0.261,8.388-0.426
					c2.781-0.165,5.562-0.354,8.34-0.565c2.779-0.212,5.556-0.447,8.331-0.706c1.088-0.102,2.177-0.205,3.264-0.314
					c0.83-0.083,1.662-0.169,2.486-0.301c-3.643-2.708-7.25-5.462-10.828-8.256c-6.659-5.199-13.211-10.532-19.707-15.934
					c-0.027-0.015-0.052-0.035-0.074-0.062c-0.576-0.479-1.154-0.955-1.729-1.435c-7.08-5.912-14.092-11.903-21.096-17.904
					c-0.867-0.742-1.733-1.484-2.599-2.227C69.836,310.404,70.262,310.018,70.54,310.255z"/>
			</g>
		</g>
	</g>
	<g>
		<path fill="#D2CDEA" d="M137.054,215.015c-0.137-0.108-0.283-0.203-0.435-0.286c-0.812-0.443-1.811-0.521-2.722-0.118
			l-40.462,17.88c-0.689,0.305-1.211,0.832-1.519,1.46c-0.078,0.157-0.141,0.321-0.19,0.49c-0.198,0.674-0.17,1.419,0.137,2.112
			l10.579,23.939c0.688,1.556,2.506,2.26,4.062,1.572l40.462-17.88c1.556-0.688,2.26-2.506,1.572-4.062l-10.579-23.939
			C137.749,215.709,137.434,215.315,137.054,215.015z"/>
		<g>
			<path fill="#ADA0F3" d="M124.915,235.767c-0.246,0.434-0.615,0.759-1.045,0.949c-0.429,0.19-0.919,0.244-1.405,0.134
				l-28.766-6.486c-0.198,0.674-0.17,1.419,0.136,2.112l10.579,23.939c0.688,1.556,2.506,2.26,4.062,1.572l40.462-17.881
				c1.556-0.688,2.26-2.506,1.572-4.062l-10.579-23.939c-0.209-0.474-0.525-0.867-0.905-1.168L124.915,235.767z"/>
			<path fill="#ADA0F3" d="M124.464,235.51l14.128-24.858c-0.811-0.443-1.811-0.521-2.722-0.118l-40.463,17.88
				c-0.689,0.305-1.21,0.832-1.519,1.46l28.69,6.469C123.328,236.512,124.084,236.177,124.464,235.51z"/>
			<path fill="#FFFFFF" d="M123.87,236.715c0.43-0.189,0.799-0.515,1.045-0.949l14.112-24.829c-0.137-0.108-0.283-0.203-0.435-0.286
				l-14.128,24.858c-0.379,0.667-1.136,1.001-1.885,0.833l-28.69-6.469c-0.077,0.157-0.141,0.321-0.19,0.489l28.766,6.486
				C122.951,236.959,123.441,236.905,123.87,236.715z"/>
		</g>
	</g>
	<g>
		<g>
			<path fill="#D2CDEA" d="M452.791,198.434c-0.089-0.324-0.209-0.637-0.35-0.939c-0.756-1.613-2.221-2.872-4.095-3.284
				l-83.223-18.311c-1.418-0.312-2.829-0.086-4.022,0.538c-0.299,0.157-0.584,0.339-0.853,0.544
				c-1.076,0.822-1.88,2.011-2.194,3.438l-10.833,49.238c-0.704,3.2,1.319,6.365,4.52,7.069l83.223,18.311
				c3.2,0.704,6.365-1.319,7.069-4.519l10.833-49.238C453.08,200.304,453.039,199.334,452.791,198.434z"/>
			<g>
				<path fill="#ADA0F3" d="M410.298,216.846c-0.876,0.393-1.82,0.478-2.704,0.283c-0.883-0.194-1.705-0.668-2.335-1.392
					l-37.3-42.841c-1.076,0.821-1.88,2.011-2.194,3.437l-10.833,49.238c-0.704,3.2,1.319,6.365,4.52,7.069l83.223,18.311
					c3.2,0.704,6.364-1.319,7.068-4.52l10.834-49.238c0.214-0.975,0.173-1.945-0.075-2.845L410.298,216.846z"/>
				<path fill="#ADA0F3" d="M409.889,215.933l50.262-22.524c-0.755-1.613-2.22-2.873-4.094-3.285l-83.223-18.311
					c-1.419-0.313-2.829-0.086-4.022,0.538l37.201,42.729C406.983,216.194,408.54,216.537,409.889,215.933z"/>
				<path fill="#FFFFFF" d="M407.594,217.129c0.884,0.194,1.828,0.109,2.704-0.283l50.203-22.498
					c-0.09-0.324-0.209-0.637-0.351-0.939l-50.262,22.524c-1.349,0.604-2.905,0.262-3.876-0.853l-37.201-42.729
					c-0.299,0.157-0.584,0.339-0.853,0.544l37.3,42.841C405.889,216.461,406.711,216.935,407.594,217.129z"/>
			</g>
		</g>
		<g>
			<path fill="#29ABE2" d="M453.005,148.356c-11.021,0-19.954,8.934-19.954,19.954c0,4.284,1.354,8.248,3.651,11.499l-3.014,13.497
				l10.579-7.053c2.64,1.288,5.604,2.012,8.737,2.012c11.021,0,19.954-8.934,19.954-19.954
				C472.959,157.291,464.025,148.356,453.005,148.356z"/>
			<g>
				<path fill="#FFFFFF" d="M439.176,162.917l-2.121,1.243c-0.063,0.042-0.172,0.086-0.257,0.086c-0.193,0-0.364-0.107-0.45-0.257
					c-0.15-0.279-0.064-0.579,0.192-0.707l2.893-1.757c0.236-0.129,0.579-0.043,0.708,0.192c0.063,0.129,0.085,0.257,0.063,0.386
					v13.777c0,0.279-0.214,0.514-0.514,0.514c-0.278,0-0.515-0.235-0.515-0.514V162.917z"/>
				<path fill="#FFFFFF" d="M444.128,168.895c0-2.014,0.513-3.856,1.435-5.249c0.922-1.329,2.229-2.25,3.75-2.25
					s2.828,0.921,3.749,2.25c0.899,1.393,1.457,3.235,1.457,5.249s-0.558,3.856-1.457,5.228c-0.921,1.35-2.228,2.271-3.749,2.271
					s-2.828-0.921-3.75-2.271C444.641,172.751,444.128,170.909,444.128,168.895z M445.178,168.895c0,1.843,0.492,3.493,1.264,4.65
					c0.771,1.135,1.8,1.8,2.871,1.8s2.078-0.665,2.871-1.8c0.771-1.157,1.285-2.807,1.285-4.65c0-1.842-0.515-3.492-1.285-4.649
					c-0.793-1.179-1.8-1.8-2.871-1.8s-2.1,0.622-2.871,1.8C445.67,165.402,445.178,167.052,445.178,168.895z"/>
				<path fill="#FFFFFF" d="M459.345,168.895c0-2.014,0.514-3.856,1.435-5.249c0.922-1.329,2.229-2.25,3.75-2.25
					s2.828,0.921,3.749,2.25c0.9,1.393,1.457,3.235,1.457,5.249s-0.557,3.856-1.457,5.228c-0.921,1.35-2.228,2.271-3.749,2.271
					s-2.828-0.921-3.75-2.271C459.858,172.751,459.345,170.909,459.345,168.895z M460.395,168.895c0,1.843,0.492,3.493,1.264,4.65
					c0.771,1.135,1.8,1.8,2.871,1.8s2.078-0.665,2.871-1.8c0.771-1.157,1.285-2.807,1.285-4.65c0-1.842-0.515-3.492-1.285-4.649
					c-0.793-1.179-1.8-1.8-2.871-1.8s-2.1,0.622-2.871,1.8C460.887,165.402,460.395,167.052,460.395,168.895z"/>
			</g>
		</g>
	</g>
	<g opacity="0.59">
		<path fill="#D2CDEA" d="M304.911,66.198l3.36-10.707c0,0,3.561,1.081,6.049-2.707c2.489-3.788,3.21-1.671,3.008-1.062
			c-1.378,4.155-3.593,4.704-2.89,5.185s5.065,1.255,5.104,2.196s-0.593,2.01-1.423,1.933c0,0,2.021,2.081-0.713,2.746
			c0,0,1.511,1.811-0.828,2.637c0,0,0.786,1.992-0.582,2.566C314.628,69.558,304.911,66.198,304.911,66.198z"/>
		
			<rect x="301.593" y="54.397" transform="matrix(0.9541 0.2994 -0.2994 0.9541 31.8977 -88.2068)" fill="#D2CDEA" width="4.395" height="11.18"/>
	</g>
	<g opacity="0.59">
		<path fill="#D2CDEA" d="M71.752,284.265l-7.394-8.441c0,0,2.775-2.479,0.836-6.574c-1.939-4.097,0.244-3.61,0.659-3.121
			c2.83,3.339,2.146,5.517,2.923,5.166c0.777-0.351,3.708-3.673,4.532-3.216c0.824,0.456,1.407,1.553,0.909,2.221
			c0,0,2.829-0.643,1.974,2.038c0,0,2.333-0.348,1.821,2.079c0,0,2.11,0.366,1.888,1.833S71.752,284.265,71.752,284.265z"/>
		
			<rect x="63.668" y="276.4" transform="matrix(0.7522 -0.6589 0.6589 0.7522 -169.4832 113.2662)" fill="#D2CDEA" width="4.394" height="11.18"/>
	</g>
	<g opacity="0.59">
		<path fill="#D2CDEA" d="M427.464,289.541l4.505-10.277c0,0,3.422,1.461,6.308-2.033c2.887-3.494,3.373-1.312,3.105-0.729
			c-1.821,3.98-4.084,4.285-3.437,4.84c0.646,0.555,4.899,1.799,4.836,2.738s-0.809,1.934-1.626,1.767c0,0,1.783,2.288-1.007,2.651
			c0,0,1.305,1.965-1.11,2.532c0,0,0.565,2.065-0.857,2.487C436.758,293.938,427.464,289.541,427.464,289.541z"/>
		
			<rect x="424.828" y="277.655" transform="matrix(0.9159 0.4014 -0.4014 0.9159 149.6015 -147.5847)" fill="#D2CDEA" width="4.394" height="11.181"/>
	</g>
	<g>
		<circle opacity="0.59" fill="#D2CDEA" cx="98.894" cy="131.682" r="24.446"/>
		<g>
			<circle fill="#29ABE2" cx="100.343" cy="126.195" r="24.446"/>
			<g>
				<path fill="#FFFFFF" d="M93.76,106.232c0.595-0.213,1.279,0.11,1.493,0.706l0.656,1.832c3.396-0.906,6.171-0.66,9.3,0.286
					c0.527,0.172,0.854,0.365,1.018,0.823c0.229,0.641-0.139,1.342-0.78,1.571c-0.275,0.099-0.52,0.135-0.939-0.025
					c-2.884-0.982-5.41-1.111-7.936-0.516l4.594,12.822c7.485-1.028,11.351,0.532,12.959,5.02c1.739,4.854-1.106,9.749-6.765,11.982
					l1.28,3.572c0.213,0.595-0.11,1.279-0.705,1.493s-1.279-0.11-1.493-0.706l-1.296-3.618c-4.099,1.107-7.875,0.807-11.895-0.75
					c-0.418-0.16-0.7-0.37-0.848-0.782c-0.213-0.595,0.14-1.341,0.735-1.555c0.412-0.147,0.752-0.063,0.939,0.025
					c3.417,1.463,6.719,1.882,10.422,0.968l-4.675-13.051c-7.41,0.95-11.152-0.552-12.792-5.131
					c-1.657-4.625,1.11-9.594,6.647-11.733l-0.624-1.74C92.841,107.129,93.165,106.445,93.76,106.232z M98.986,123.994
					l-4.479-12.501c-4.409,1.683-6.388,5.389-5.207,8.686C90.417,123.292,92.571,124.691,98.986,123.994z M102.002,126.065
					l4.528,12.639c4.546-1.732,6.571-5.454,5.325-8.934C110.723,126.61,108.431,125.261,102.002,126.065z"/>
			</g>
		</g>
	</g>
	<g>
		<path fill="#29ABE2" d="M54.214,202.331c0.486-0.482,1.306-0.479,1.79,0.007l1.485,1.497c2.917-2.45,5.754-3.484,9.26-3.994
			c0.596-0.072,1.006-0.034,1.378,0.341c0.52,0.523,0.479,1.38-0.044,1.901c-0.225,0.223-0.449,0.371-0.933,0.407
			c-3.282,0.361-5.821,1.396-8.026,3.14l10.401,10.475c6.875-4.449,11.387-4.694,15.027-1.028
			c3.938,3.965,3.394,10.077-1.134,14.871l2.897,2.917c0.483,0.487,0.48,1.307-0.006,1.79s-1.307,0.48-1.79-0.006l-2.935-2.956
			c-3.515,2.97-7.359,4.41-12.021,4.729c-0.484,0.036-0.857-0.04-1.191-0.377c-0.483-0.486-0.479-1.381,0.006-1.864
			c0.337-0.334,0.71-0.408,0.934-0.407c4.026-0.135,7.46-1.241,10.675-3.839l-10.586-10.662c-6.837,4.337-11.2,4.583-14.915,0.841
			c-3.752-3.778-3.32-9.928,1.133-14.572l-1.412-1.422C53.725,203.634,53.728,202.814,54.214,202.331z M67.507,217.365
			l-10.141-10.213c-3.554,3.678-3.794,8.225-1.12,10.919C58.772,220.614,61.529,220.997,67.507,217.365z M71.419,218.012
			l10.252,10.325c3.667-3.79,3.944-8.374,1.121-11.217C80.229,214.54,77.359,214.268,71.419,218.012z"/>
	</g>
	<g>
		<path fill="#29ABE2" d="M197.771,63.636c0.334-0.106,0.708,0.087,0.814,0.421l0.327,1.029c1.902-0.435,3.436-0.242,5.152,0.345
			c0.289,0.106,0.467,0.22,0.548,0.478c0.115,0.36-0.104,0.741-0.464,0.855c-0.154,0.049-0.291,0.064-0.521-0.033
			c-1.58-0.603-2.978-0.725-4.391-0.446l2.29,7.204c4.172-0.419,6.285,0.524,7.086,3.045c0.867,2.727-0.81,5.385-3.993,6.51
			l0.638,2.007c0.106,0.334-0.087,0.708-0.421,0.814c-0.334,0.106-0.708-0.087-0.813-0.421l-0.646-2.033
			c-2.296,0.531-4.384,0.289-6.583-0.656c-0.229-0.097-0.381-0.219-0.455-0.45c-0.106-0.335,0.104-0.742,0.438-0.848
			c0.232-0.074,0.419-0.02,0.521,0.033c1.866,0.88,3.689,1.179,5.761,0.747l-2.33-7.333c-4.129,0.377-6.174-0.531-6.992-3.104
			c-0.826-2.599,0.809-5.299,3.923-6.374l-0.311-0.978C197.243,64.116,197.436,63.743,197.771,63.636z M200.312,73.593l-2.232-7.024
			c-2.479,0.844-3.652,2.86-3.063,4.713C195.572,73.031,196.739,73.851,200.312,73.593z M201.943,74.803l2.257,7.101
			c2.557-0.869,3.754-2.893,3.133-4.848C206.769,75.281,205.524,74.486,201.943,74.803z"/>
	</g>
	<g>
		<path opacity="0.59" fill="#D2CDEA" d="M382.903,75.726c-14.495,0-26.246,11.751-26.246,26.247c0,5.634,1.781,10.849,4.803,15.125
			l-3.964,17.752l13.916-9.277c3.471,1.693,7.369,2.646,11.491,2.646c14.496,0,26.247-11.751,26.247-26.246
			C409.15,87.477,397.399,75.726,382.903,75.726z"/>
		<g>
			<path fill="#F7594F" d="M388.234,74.06c-14.495,0-26.246,11.751-26.246,26.247c0,5.634,1.781,10.849,4.803,15.125l-3.964,17.753
				l13.916-9.277c3.471,1.693,7.37,2.646,11.491,2.646c14.496,0,26.247-11.751,26.247-26.247S402.73,74.06,388.234,74.06z"/>
			<path fill="#FFFFFF" d="M380.879,111.593c14.456-7.528,12.302-18.281,6.899-19.669c-3.609-0.927-7.446,2.164-7.446,5.513
				c-0.639-3.349-4.369-6.087-7.863-4.926c-5.294,1.76-6.696,12.639,8.256,19.146l0.002,0.018c0.006-0.003,0.011-0.006,0.017-0.009
				c0.045,0.02,0.086,0.04,0.131,0.06L380.879,111.593z"/>
			<g>
				<path fill="#FFFFFF" d="M396.611,108.283l8.225-7.42c0.981-0.905,1.51-2.112,1.51-3.37c0-1.082-0.401-2.164-1.182-3.019
					c-0.881-0.981-2.113-1.484-3.347-1.484c-1.105,0-2.188,0.377-3.067,1.157l-0.854,0.779c-0.252,0.252-0.655,0.227-0.856-0.024
					c-0.252-0.252-0.227-0.654,0.025-0.856l0.855-0.805c1.106-0.981,2.516-1.484,3.897-1.484c1.536,0,3.095,0.604,4.228,1.886
					c1.029,1.107,1.509,2.491,1.509,3.849c0,1.559-0.629,3.118-1.888,4.275l-7.041,6.363h8.324c0.326,0,0.604,0.277,0.604,0.629
					c0,0.327-0.278,0.604-0.604,0.604h-9.81h-0.101c-0.176,0-0.352-0.05-0.452-0.176
					C396.359,108.912,396.359,108.534,396.611,108.283z"/>
			</g>
		</g>
	</g>
	<g>
		<path fill="#FFFFFF" d="M138.638,75.121c-0.002-0.033-0.004-0.056-0.004-0.056l0.012,0.195c0.057,1.289,0.016,8.689-8.35,9.781
			c0,0,7.763,1.819,9.459,8.456c0.69-6.815,8.648-9.343,8.648-9.343C139.555,84.327,138.696,75.85,138.638,75.121z"/>
		<path fill="#FFFFFF" d="M154.426,72.423c0-0.009-0.001-0.016-0.001-0.016l0.003,0.056c0.016,0.372,0.004,2.506-2.409,2.821
			c0,0,2.239,0.525,2.729,2.439c0.199-1.966,2.495-2.695,2.495-2.695C154.69,75.079,154.442,72.633,154.426,72.423z"/>
		<path fill="#FFFFFF" d="M154.006,83.215c-0.001-0.014-0.001-0.023-0.001-0.023l0.005,0.082c0.024,0.542,0.007,3.651-3.509,4.11
			c0,0,3.263,0.765,3.975,3.553c0.29-2.864,3.634-3.926,3.634-3.926C154.391,87.083,154.03,83.521,154.006,83.215z"/>
	</g>
	<g>
		<path fill="#FFFFFF" d="M439.613,348.604c-0.003-0.033-0.005-0.056-0.005-0.056l0.013,0.194c0.057,1.289,0.016,8.689-8.351,9.781
			c0,0,7.764,1.819,9.459,8.456c0.69-6.815,8.648-9.344,8.648-9.344C440.529,357.81,439.671,349.333,439.613,348.604z"/>
		<path fill="#FFFFFF" d="M455.4,345.906c0-0.009-0.001-0.016-0.001-0.016l0.004,0.057c0.016,0.371,0.004,2.506-2.409,2.821
			c0,0,2.239,0.524,2.729,2.438c0.199-1.966,2.495-2.695,2.495-2.695C455.665,348.563,455.417,346.117,455.4,345.906z"/>
		<path fill="#FFFFFF" d="M454.98,356.698c-0.001-0.014-0.002-0.022-0.002-0.022l0.006,0.081c0.023,0.542,0.006,3.651-3.51,4.11
			c0,0,3.263,0.765,3.976,3.554c0.29-2.864,3.634-3.927,3.634-3.927C455.366,360.566,455.005,357.005,454.98,356.698z"/>
	</g>
	<g>
		<g>
			<g>
				<path fill="#192E35" d="M325.042,432.943H171.975c-8.936,0-16.18-7.243-16.18-16.18V117.438c0-8.936,7.244-16.18,16.18-16.18
					h153.067c8.936,0,16.18,7.244,16.18,16.18v299.326C341.222,425.7,333.978,432.943,325.042,432.943z"/>
				<path fill="#FFFFFF" d="M331.078,395.876V124.104c0-7.156-5.802-12.958-12.958-12.958h-37.603l-5.559,4.775
					c-1.561,1.34-3.55,2.077-5.606,2.077h-43.884c-2.238,0-4.388-0.872-5.994-2.431l-4.553-4.421h-36.025
					c-7.156,0-12.958,5.801-12.958,12.958v271.772H331.078z"/>
				<circle cx="248.509" cy="411.73" r="10.068"/>
			</g>
			<g>
				<polyline opacity="0.4" fill="#EBE8FF" points="331.078,133.185 165.939,238.338 165.939,314.651 331.078,281.99 				"/>
				<polyline opacity="0.4" fill="#EBE8FF" points="165.75,350.43 331.078,322.388 331.078,376.135 165.75,376.135 				"/>
			</g>
		</g>
		<g>
			<path fill="#EBE8FF" d="M301.188,235.206H195.83c-5.35,0-9.687,4.336-9.687,9.686v38.028c0,5.35,4.337,9.687,9.687,9.687h0.575
				v13.667l19.484-13.667h85.299c5.35,0,9.687-4.337,9.687-9.687v-38.028C310.874,239.542,306.537,235.206,301.188,235.206z"/>
			<path fill="#D2CDEA" d="M302.899,252.973H194.07c-0.646,0-1.169-0.523-1.169-1.169l0,0c0-0.646,0.523-1.169,1.169-1.169h108.83
				c0.646,0,1.169,0.524,1.169,1.169l0,0C304.068,252.449,303.545,252.973,302.899,252.973z"/>
			<path fill="#D2CDEA" d="M302.899,261.683H194.07c-0.646,0-1.169-0.523-1.169-1.17l0,0c0-0.646,0.523-1.169,1.169-1.169h108.83
				c0.646,0,1.169,0.523,1.169,1.169l0,0C304.068,261.159,303.545,261.683,302.899,261.683z"/>
			<path fill="#D2CDEA" d="M302.899,270.392H194.07c-0.646,0-1.169-0.523-1.169-1.169l0,0c0-0.646,0.523-1.169,1.169-1.169h108.83
				c0.646,0,1.169,0.523,1.169,1.169l0,0C304.068,269.868,303.545,270.392,302.899,270.392z"/>
		</g>
		<g>
			<path opacity="0.4" fill="#EBE8FF" d="M230.475,156.284h-41.583c-2.758,0-4.994,2.236-4.994,4.994v36.76
				c0,2.758,2.236,4.994,4.994,4.994h41.583c2.758,0,4.994-2.236,4.994-4.994v-36.76
				C235.468,158.521,233.232,156.284,230.475,156.284z"/>
			<g>
				<path fill="#F7594F" d="M236.767,198.718h-41.583c-2.758,0-4.994-2.236-4.994-4.994v-36.76c0-2.758,2.236-4.994,4.994-4.994
					h41.583c2.758,0,4.994,2.236,4.994,4.994v36.76C241.761,196.482,239.525,198.718,236.767,198.718z"/>
				<path fill="#FFFFFF" d="M206.685,163.105v24.478c0,1.085,1.185,1.755,2.115,1.195l20.041-12.061
					c0.894-0.538,0.903-1.832,0.016-2.381l-20.041-12.417C207.885,161.343,206.685,162.012,206.685,163.105z"/>
			</g>
		</g>
		<g>
			<circle opacity="0.4" fill="#EBE8FF" cx="274.666" cy="179.659" r="28.777"/>
			<g>
				<circle fill="#EBE8FF" cx="280.282" cy="175.344" r="28.777"/>
				<g>
					<path fill="#5748AF" d="M273.94,187.762V167.25c0,0,6.802-0.065,9.068-8.032c2.268-7.967,4.683-4.671,4.664-3.498
						c-0.13,8-3.692,10.17-2.202,10.624c1.489,0.453,9.521-0.583,10.104,1.036c0.583,1.62,0.065,3.83-1.425,4.15
						c0,0,4.664,2.522,0.259,5.178c0,0,3.628,2.332,0,5.052c0,0,2.462,3.044,0.389,4.793
						C292.726,188.303,273.94,187.762,273.94,187.762z"/>
					<rect x="264.569" y="167.325" fill="#5748AF" width="8.032" height="20.437"/>
				</g>
			</g>
		</g>
		<g>
			<path opacity="0.1" fill="#29ABE2" d="M196.187,313.125h105.031c5.333,0,9.656,4.323,9.656,9.656v37.91
				c0,5.333-4.323,9.656-9.656,9.656h-0.573v13.625l-19.424-13.625h-85.034c-5.333,0-9.656-4.323-9.656-9.656v-37.91
				C186.53,317.448,190.854,313.125,196.187,313.125z"/>
			<g>
				<path opacity="0.26" fill="#29ABE2" d="M194.429,330.837h108.594c0.615,0,1.114-0.499,1.114-1.114v-0.102
					c0-0.616-0.499-1.115-1.114-1.115H194.429c-0.616,0-1.115,0.499-1.115,1.115v0.102
					C193.314,330.338,193.813,330.837,194.429,330.837z"/>
				<path opacity="0.26" fill="#29ABE2" d="M194.429,339.52h108.594c0.615,0,1.114-0.499,1.114-1.114v-0.103
					c0-0.615-0.499-1.114-1.114-1.114H194.429c-0.616,0-1.115,0.499-1.115,1.114v0.103
					C193.314,339.021,193.813,339.52,194.429,339.52z"/>
				<path opacity="0.26" fill="#29ABE2" d="M194.429,348.202h108.594c0.615,0,1.114-0.499,1.114-1.114v-0.103
					c0-0.615-0.499-1.114-1.114-1.114H194.429c-0.616,0-1.115,0.499-1.115,1.114v0.103
					C193.314,347.703,193.813,348.202,194.429,348.202z"/>
			</g>
		</g>
	</g>
</g>
</svg>
