<?xml version="1.0" encoding="utf-8"?>
<!-- Generator: Adobe Illustrator 16.0.0, SVG Export Plug-In . SVG Version: 6.00 Build 0)  -->
<!DOCTYPE svg PUBLIC "-//W3C//DTD SVG 1.1//EN" "http://www.w3.org/Graphics/SVG/1.1/DTD/svg11.dtd">
<svg version="1.1" id="Layer_1" xmlns="http://www.w3.org/2000/svg" xmlns:xlink="http://www.w3.org/1999/xlink" x="0px" y="0px"
	 width="3000px" height="2000px" viewBox="0 0 3000 2000" enable-background="new 0 0 3000 2000" xml:space="preserve">
<g>
	<g>
		<path fill="#B0C3EB" d="M818.851,752.962c-4.426,0-8.893-0.202-13.275-0.599c-1.196-0.11-2.078-1.167-1.969-2.363
			c0.108-1.197,1.163-2.07,2.362-1.97c8.58,0.779,17.414,0.767,25.973-0.019c1.194-0.104,2.255,0.77,2.365,1.965
			c0.11,1.196-0.77,2.255-1.966,2.365C827.892,752.753,823.354,752.961,818.851,752.962z M779.844,747.576
			c-0.196,0-0.396-0.027-0.593-0.083c-8.58-2.428-16.984-5.677-24.979-9.655c-1.075-0.535-1.513-1.841-0.978-2.916
			c0.535-1.076,1.842-1.508,2.916-0.979c7.754,3.859,15.905,7.01,24.226,9.364c1.156,0.327,1.827,1.529,1.5,2.685
			C781.665,746.951,780.792,747.576,779.844,747.576z M858.061,747.518c-0.947,0-1.818-0.625-2.09-1.58
			c-0.329-1.155,0.341-2.358,1.497-2.688c8.315-2.366,16.459-5.527,24.207-9.398c1.073-0.538,2.38-0.102,2.917,0.974
			c0.537,1.075,0.101,2.381-0.974,2.917c-7.988,3.99-16.386,7.251-24.96,9.691C858.458,747.49,858.258,747.518,858.061,747.518z
			 M732.813,724.183c-0.456,0-0.917-0.143-1.309-0.438c-7.117-5.373-13.779-11.435-19.8-18.021
			c-0.811-0.887-0.749-2.262,0.137-3.073c0.886-0.812,2.262-0.75,3.072,0.138c5.842,6.39,12.305,12.273,19.21,17.485
			c0.958,0.724,1.149,2.087,0.425,3.046C734.123,723.885,733.472,724.183,732.813,724.183z M905.049,724.062
			c-0.658,0-1.308-0.297-1.735-0.862c-0.725-0.958-0.536-2.321,0.421-3.046c6.897-5.221,13.352-11.113,19.185-17.512
			c0.809-0.885,2.186-0.948,3.072-0.142c0.888,0.809,0.952,2.185,0.142,3.073c-6.012,6.595-12.665,12.668-19.774,18.049
			C905.967,723.918,905.506,724.062,905.049,724.062z M697.381,685.413c-0.727,0-1.437-0.363-1.849-1.026
			c-4.718-7.584-8.748-15.64-11.978-23.941c-0.436-1.12,0.119-2.379,1.238-2.816c1.119-0.438,2.379,0.119,2.815,1.238
			c3.133,8.053,7.042,15.865,11.618,23.221c0.634,1.021,0.322,2.362-0.698,2.996C698.17,685.306,697.772,685.413,697.381,685.413z
			 M940.428,685.238c-0.392,0-0.787-0.105-1.145-0.326c-1.02-0.634-1.334-1.974-0.702-2.994c4.566-7.364,8.465-15.186,11.588-23.245
			c0.434-1.118,1.692-1.673,2.813-1.242c1.119,0.434,1.676,1.693,1.241,2.813c-3.219,8.31-7.238,16.373-11.946,23.965
			C941.867,684.873,941.156,685.238,940.428,685.238z M678.34,636.476c-1.026,0-1.939-0.729-2.135-1.774
			c-1.634-8.728-2.469-17.696-2.482-26.653c-0.002-1.201,0.97-2.176,2.171-2.178c0.001,0,0.002,0,0.003,0
			c1.2,0,2.173,0.972,2.174,2.171c0.013,8.692,0.823,17.392,2.408,25.859c0.221,1.181-0.557,2.317-1.737,2.538
			C678.607,636.464,678.472,636.476,678.34,636.476z M959.399,636.265c-0.132,0-0.266-0.012-0.399-0.036
			c-1.181-0.22-1.96-1.355-1.741-2.536c1.573-8.469,2.37-17.169,2.37-25.86c0-1.2,0.971-2.383,2.17-2.386c0.002,0,0.003,0,0.005,0
			c1.197,0,2.168,0.758,2.173,1.956c0,0.002,0,0.213,0,0.216c0,9.17-0.821,18.139-2.442,26.869
			C961.341,635.535,960.427,636.265,959.399,636.265z M678.268,583.957c-0.131,0-0.263-0.012-0.396-0.036
			c-1.181-0.218-1.962-1.351-1.744-2.533c1.616-8.778,4.063-17.446,7.271-25.767c0.432-1.12,1.69-1.674,2.812-1.247
			c1.121,0.433,1.679,1.692,1.247,2.812c-3.112,8.068-5.484,16.476-7.052,24.989C680.211,583.224,679.296,583.957,678.268,583.957z
			 M959.317,583.334c-1.025,0-1.938-0.727-2.134-1.771c-1.605-8.507-4.016-16.904-7.164-24.958c-0.437-1.119,0.115-2.38,1.234-2.817
			c1.119-0.437,2.38,0.116,2.817,1.233c3.246,8.305,5.731,16.964,7.387,25.735c0.223,1.181-0.553,2.317-1.733,2.54
			C959.586,583.323,959.451,583.334,959.317,583.334z M697.158,534.956c-0.39,0-0.785-0.105-1.141-0.325
			c-1.021-0.63-1.338-1.972-0.706-2.993c4.686-7.582,10.107-14.777,16.112-21.384c0.808-0.888,2.183-0.954,3.072-0.146
			c0.889,0.807,0.955,2.183,0.146,3.072c-5.826,6.409-11.085,13.389-15.631,20.745C698.599,534.59,697.887,534.956,697.158,534.956z
			 M940.213,534.425c-0.726,0-1.435-0.362-1.847-1.024c-4.577-7.333-9.866-14.291-15.72-20.675c-0.812-0.885-0.751-2.26,0.133-3.073
			c0.886-0.809,2.262-0.751,3.072,0.134c6.034,6.581,11.485,13.751,16.204,21.313c0.636,1.018,0.325,2.36-0.693,2.995
			C941.004,534.319,940.605,534.425,940.213,534.425z M732.486,496.082c-0.657,0-1.306-0.296-1.733-0.86
			c-0.727-0.957-0.539-2.32,0.417-3.046c7.113-5.4,14.758-10.164,22.722-14.157c1.074-0.535,2.381-0.104,2.919,0.97
			c0.538,1.073,0.104,2.38-0.969,2.919c-7.726,3.873-15.142,8.493-22.042,13.732C733.406,495.937,732.944,496.082,732.486,496.082z
			 M779.435,472.559c-0.946,0-1.816-0.622-2.089-1.577c-0.331-1.155,0.337-2.359,1.492-2.689c8.56-2.45,17.412-4.115,26.31-4.948
			c1.196-0.121,2.256,0.767,2.368,1.962c0.112,1.195-0.767,2.256-1.962,2.368c-8.631,0.808-17.216,2.423-25.519,4.799
			C779.834,472.531,779.633,472.559,779.435,472.559z"/>
	</g>
</g>
<g>
	<g>
		<g>
			<path fill="#B0C3EB" d="M471.698,1055.313l-0.226-0.518c-3.078-7.054-9.378-12.366-16.853-14.216l-0.55-0.136l4.427-17.246
				l0.542,0.135c12.717,3.189,23.455,12.257,28.725,24.256l0.225,0.514L471.698,1055.313z M455.438,1039.632
				c7.389,2.001,13.618,7.257,16.833,14.199l14.235-6.303c-5.131-11.26-15.235-19.791-27.2-22.967L455.438,1039.632z"/>
		</g>
	</g>
	<g>
		<g>
			<g>
				<path fill="#B0C3EB" d="M439.255,1116.133c-23.569,0-42.744-19.174-42.744-42.743s19.174-42.744,42.744-42.744
					c3.388,0,6.89,0.447,10.41,1.329l0.548,0.138l-4.426,17.242l-0.541-0.134c-2.028-0.501-4.044-0.756-5.991-0.756
					c-13.743,0-24.924,11.182-24.924,24.925s11.181,24.924,24.924,24.924c3.852,0,7.576-0.881,11.07-2.618l0.496-0.246l8.162,15.825
					l-0.505,0.255C452.43,1114.585,445.962,1116.133,439.255,1116.133z M439.255,1031.769c-22.95,0-41.621,18.672-41.621,41.621
					c0,22.95,18.671,41.62,41.621,41.62c6.343,0,12.466-1.423,18.209-4.23l-7.137-13.837c-3.506,1.655-7.228,2.494-11.072,2.494
					c-14.362,0-26.047-11.685-26.047-26.047s11.685-26.048,26.047-26.048c1.864,0,3.785,0.222,5.719,0.66l3.87-15.072
					C445.598,1032.158,442.375,1031.769,439.255,1031.769z"/>
			</g>
		</g>
		<g>
			<g>
				<path fill="#B0C3EB" d="M461.799,1109.672l-9.743-14.915l0.482-0.305c7.289-4.608,11.641-12.481,11.641-21.063
					c0-3.441-0.7-6.79-2.081-9.954l-0.223-0.512l16.287-7.21l0.227,0.515c2.396,5.456,3.61,11.229,3.61,17.161
					c0,14.612-7.376,28.064-19.731,35.981L461.799,1109.672z M453.617,1095.092l8.512,13.03
					c11.75-7.747,18.747-20.689,18.747-34.732c0-5.588-1.107-11.033-3.292-16.192l-14.237,6.304
					c1.298,3.154,1.956,6.479,1.956,9.889C465.302,1082.168,460.945,1090.239,453.617,1095.092z"/>
			</g>
		</g>
	</g>
</g>
<g>
	<g>
		<g>
			<path fill="#B0C3EB" d="M910.334,474.731h-11.668v-37.154h11.668V474.731z M899.789,473.608h9.422V438.7h-9.422V473.608z"/>
		</g>
	</g>
	<g>
		<g>
			<path fill="#B0C3EB" d="M892.367,474.731h-11.668v-50.19h11.668V474.731z M881.822,473.608h9.423v-47.944h-9.423V473.608z"/>
		</g>
	</g>
	<g>
		<g>
			<path fill="#B0C3EB" d="M874.4,474.731h-11.668V410.92H874.4V474.731z M863.855,473.608h9.422v-61.565h-9.422V473.608z"/>
		</g>
	</g>
	<g>
		<g>
			<path fill="#B0C3EB" d="M928.301,474.731h-11.668v-50.483h11.668V474.731z M917.755,473.608h9.422v-48.237h-9.422V473.608z"/>
		</g>
	</g>
	<g>
		<g>
			<path fill="#B0C3EB" d="M946.268,474.731h-11.668v-61.322h11.668V474.731z M935.722,473.608h9.422v-59.076h-9.422V473.608z"/>
		</g>
	</g>
	<g>
		<g>
			<path fill="#B0C3EB" d="M906.779,415.44c-0.051,0-0.104-0.008-0.154-0.022l-40.361-11.526c-0.298-0.084-0.471-0.396-0.386-0.694
				c0.085-0.299,0.397-0.475,0.694-0.385l40.14,11.463l39.849-21.597c0.273-0.148,0.614-0.047,0.761,0.226
				c0.148,0.273,0.047,0.613-0.226,0.761l-40.05,21.706C906.964,415.417,906.872,415.44,906.779,415.44z"/>
		</g>
	</g>
	<g>
		<g>
			<path fill="#B0C3EB" d="M945.254,401.57c-0.071,0-0.145-0.013-0.215-0.043c-0.287-0.119-0.422-0.447-0.304-0.733l3.597-8.671
				H938.7c-0.31,0-0.562-0.251-0.562-0.562c0-0.311,0.251-0.562,0.562-0.562h10.473c0.188,0,0.363,0.093,0.467,0.25
				c0.104,0.156,0.123,0.353,0.051,0.526l-3.918,9.447C945.683,401.439,945.474,401.57,945.254,401.57z"/>
		</g>
	</g>
</g>
<g>
	<g>
		<g>
			<path fill="#B0C3EB" d="M1733.755,1666.145h-18.933v-82.124h18.933V1666.145z M1717.774,1663.135h13.028v-76.104h-13.028
				V1663.135z"/>
		</g>
	</g>
	<g>
		<g>
			<path fill="#B0C3EB" d="M1717.774,1615.104h-17.2v-24.408h17.2V1615.104z M1703.526,1612.094h11.296v-18.389h-11.296V1612.094z"
				/>
		</g>
	</g>
	<g>
		<g>
			<path fill="#B0C3EB" d="M1793.249,1646.127l-62.446-31.596v-23.265l62.446-31.595V1646.127z M1733.755,1612.665l56.542,28.607
				v-76.747l-56.542,28.608V1612.665z"/>
		</g>
	</g>
	<g>
		<g>
			<path fill="#B0C3EB" d="M1790.297,1624.945v-44.093l9.99,17.304v9.486L1790.297,1624.945z M1793.249,1591.899v21.999l4.086-7.076
				v-7.846L1793.249,1591.899z"/>
		</g>
	</g>
	<g>
		<g>
			<path fill="#B0C3EB" d="M1801.434,1626.095l-1.993-2.221c0.789-0.74,19.14-18.423,0.995-41.731l2.313-1.872
				C1822.628,1605.81,1801.648,1625.895,1801.434,1626.095z"/>
		</g>
	</g>
	<g>
		<g>
			<path fill="#B0C3EB" d="M1819.313,1634.615l-2.327-1.854c0.198-0.259,19.549-26.274,1.035-59.516l2.568-1.486
				C1840.105,1606.802,1819.523,1634.341,1819.313,1634.615z"/>
		</g>
	</g>
</g>
<g>
	<g>
		<g>
			<path fill="#B0C3EB" d="M2003.201,496.499c-20.49,0-37.16-16.67-37.16-37.16c0-20.49,16.67-37.16,37.16-37.16
				s37.16,16.67,37.16,37.16C2040.361,479.829,2023.691,496.499,2003.201,496.499z M2003.201,425.131
				c-18.862,0-34.207,15.345-34.207,34.207c0,18.862,15.345,34.208,34.207,34.208s34.208-15.346,34.208-34.208
				C2037.409,440.477,2022.063,425.131,2003.201,425.131z"/>
		</g>
	</g>
	<g>
		<g>
			<path fill="#B0C3EB" d="M2003.201,443.358c-9.181,0-17.995-3.375-24.819-9.503l1.973-2.197
				c6.282,5.642,14.396,8.748,22.847,8.748c8.423,0,16.517-3.089,22.79-8.697l1.968,2.201
				C2021.144,440.003,2012.352,443.358,2003.201,443.358z"/>
		</g>
	</g>
	<g>
		<g>
			<path fill="#B0C3EB" d="M1980.867,487.552l-1.929-2.235c6.737-5.813,15.354-9.013,24.263-9.013
				c8.867,0,17.452,3.174,24.175,8.938l-1.922,2.241c-6.188-5.305-14.091-8.227-22.253-8.227
				C1995,479.256,1987.068,482.202,1980.867,487.552z"/>
		</g>
	</g>
	<g>
		<g>
			<path fill="#B0C3EB" d="M2003.201,496.499c-10.761,0-19.189-16.323-19.189-37.16c0-20.837,8.429-37.16,19.189-37.16
				s19.189,16.323,19.189,37.16C2022.391,480.176,2013.962,496.499,2003.201,496.499z M2003.201,425.131
				c-8.801,0-16.237,15.665-16.237,34.207c0,18.542,7.437,34.208,16.237,34.208c8.802,0,16.237-15.666,16.237-34.208
				C2019.438,440.796,2012.003,425.131,2003.201,425.131z"/>
		</g>
	</g>
	<g>
		<g>
			<rect x="2001.725" y="423.655" fill="#B0C3EB" width="2.953" height="71.367"/>
		</g>
	</g>
	<g>
		<g>
			<rect x="1967.518" y="457.862" fill="#B0C3EB" width="71.367" height="2.953"/>
		</g>
	</g>
</g>
<g>
	<g>
		<g>
			<path fill="#B0C3EB" d="M2406.344,893.419h-58.412l0.048-1.123c0.69-16.565,13.498-29.541,29.159-29.541
				c15.659,0,28.467,12.976,29.158,29.541L2406.344,893.419z M2350.201,891.263h53.873c-1.156-14.866-12.79-26.35-26.936-26.35
				C2362.992,864.913,2351.357,876.397,2350.201,891.263z"/>
		</g>
	</g>
	<g>
		<g>
			<path fill="#B0C3EB" d="M2377.139,859.831c-8.347,0-15.136-6.79-15.136-15.135s6.789-15.135,15.136-15.135
				c8.346,0,15.135,6.79,15.135,15.135S2385.484,859.831,2377.139,859.831z M2377.139,831.717c-7.156,0-12.979,5.822-12.979,12.979
				s5.822,12.979,12.979,12.979c7.155,0,12.978-5.822,12.978-12.979S2384.294,831.717,2377.139,831.717z"/>
		</g>
	</g>
</g>
<g>
	<g>
		<path fill="#B0C3EB" d="M1472.983,498.302c-0.588,0-1.175-0.186-1.688-0.558l-17.921-13.021c-0.25-0.182-0.588-0.182-0.838,0
			l-17.922,13.021c-1.025,0.746-2.349,0.744-3.375,0c-1.024-0.745-1.433-2.004-1.042-3.208l6.846-21.068
			c0.096-0.295-0.008-0.615-0.259-0.797l-17.922-13.021c-1.024-0.744-1.435-2.003-1.042-3.208c0.391-1.206,1.463-1.984,2.73-1.984
			h22.151c0.311,0,0.583-0.197,0.678-0.492l6.846-21.069c0.392-1.205,1.463-1.983,2.729-1.983c1.267,0,2.338,0.778,2.73,1.983
			l6.845,21.068c0.096,0.295,0.369,0.493,0.679,0.493h22.153c1.267,0,2.338,0.778,2.729,1.983c0.391,1.206-0.018,2.465-1.042,3.209
			l-17.921,13.021c-0.251,0.182-0.355,0.502-0.259,0.797l6.845,21.068c0.391,1.205-0.018,2.465-1.044,3.209
			C1474.157,498.116,1473.569,498.302,1472.983,498.302z M1420.55,456.612c-0.468,0-0.631,0.345-0.679,0.494
			c-0.048,0.148-0.12,0.522,0.259,0.797l17.921,13.021c1.009,0.733,1.428,2.023,1.042,3.208l-6.846,21.068
			c-0.145,0.444,0.132,0.706,0.259,0.797c0.127,0.092,0.461,0.275,0.839,0.001l17.922-13.021c1.009-0.732,2.365-0.732,3.374,0
			l17.921,13.021c0.377,0.273,0.712,0.092,0.838,0c0.125-0.092,0.403-0.353,0.259-0.798l-6.845-21.068
			c-0.386-1.186,0.034-2.475,1.042-3.208l17.921-13.021c0.378-0.275,0.308-0.649,0.259-0.798c-0.048-0.148-0.21-0.493-0.678-0.493
			h-22.153c-1.247,0-2.344-0.796-2.73-1.983l-6.845-21.068c-0.145-0.445-0.522-0.493-0.679-0.493c-0.155,0-0.534,0.048-0.678,0.493
			l-6.846,21.068c-0.385,1.186-1.481,1.983-2.73,1.983H1420.55z"/>
	</g>
</g>
<g>
	<g>
		<g>
			<path fill="#B0C3EB" d="M2685.228,1468.556c-3.852,0-6.985-3.134-6.985-6.985v-1.76c0-3.101-1.141-6.117-3.299-8.723
				c-2.133-2.575-3.213-5.84-3.04-9.192c0.349-6.765,5.922-12.31,12.688-12.624c3.688-0.171,7.186,1.133,9.848,3.675
				c2.665,2.542,4.132,5.971,4.132,9.652c0,3.172-1.136,6.246-3.197,8.655c-2.038,2.381-3.16,5.282-3.16,8.171v2.146
				C2692.213,1465.422,2689.079,1468.556,2685.228,1468.556z M2685.233,1430.712c-0.191,0-0.382,0.005-0.575,0.014
				c-6.026,0.28-10.99,5.22-11.301,11.244c-0.154,2.988,0.808,5.896,2.707,8.189c2.344,2.829,3.634,6.257,3.634,9.651v1.76
				c0,3.049,2.48,5.529,5.529,5.529s5.529-2.48,5.529-5.529v-2.146c0-3.235,1.247-6.474,3.51-9.118
				c1.837-2.146,2.848-4.883,2.848-7.708c0-3.28-1.308-6.334-3.681-8.6C2691.2,1431.867,2688.307,1430.712,2685.233,1430.712z"/>
		</g>
	</g>
	<g>
		<g>
			<rect x="2684.5" y="1416.919" fill="#B0C3EB" width="1.455" height="9.312"/>
		</g>
	</g>
	<g>
		<g>
			
				<rect x="2699.428" y="1423.227" transform="matrix(0.7071 0.7071 -0.7071 0.7071 1800.5232 -1491.0815)" fill="#B0C3EB" width="1.456" height="9.311"/>
		</g>
	</g>
	<g>
		<g>
			<rect x="2701.597" y="1442.171" fill="#B0C3EB" width="9.311" height="1.456"/>
		</g>
	</g>
	<g>
		<g>
			
				<rect x="2665.555" y="1426.942" transform="matrix(0.7071 0.7071 -0.7071 0.7071 1791.6018 -1469.9695)" fill="#B0C3EB" width="9.311" height="1.456"/>
		</g>
	</g>
	<g>
		<g>
			<rect x="2659.248" y="1441.871" fill="#B0C3EB" width="9.311" height="1.455"/>
		</g>
	</g>
	<g>
		<g>
			<rect x="2679.821" y="1456.738" fill="#B0C3EB" width="10.663" height="1.455"/>
		</g>
	</g>
	<g>
		<g>
			<rect x="2680.272" y="1461.093" fill="#B0C3EB" width="9.61" height="1.456"/>
		</g>
	</g>
</g>
<g>
	<g>
		<g>
			<g>
				<circle fill="#C3D1F0" cx="2146.112" cy="472.683" r="8.3"/>
			</g>
		</g>
		<g>
			<g>
				<circle fill="#C3D1F0" cx="2197.509" cy="472.683" r="8.3"/>
			</g>
		</g>
		<g>
			<g>
				<circle fill="#C3D1F0" cx="2248.907" cy="472.683" r="8.3"/>
			</g>
		</g>
		<g>
			<g>
				<circle fill="#C3D1F0" cx="2300.304" cy="472.683" r="8.3"/>
			</g>
		</g>
		<g>
			<g>
				<circle fill="#C3D1F0" cx="2351.702" cy="472.683" r="8.3"/>
			</g>
		</g>
	</g>
	<g>
		<g>
			<g>
				<circle fill="#C3D1F0" cx="2146.112" cy="524.08" r="8.3"/>
			</g>
		</g>
		<g>
			<g>
				<circle fill="#C3D1F0" cx="2197.509" cy="524.08" r="8.3"/>
			</g>
		</g>
		<g>
			<g>
				<circle fill="#C3D1F0" cx="2248.907" cy="524.08" r="8.3"/>
			</g>
		</g>
		<g>
			<g>
				<circle fill="#C3D1F0" cx="2300.304" cy="524.08" r="8.3"/>
			</g>
		</g>
		<g>
			<g>
				<circle fill="#C3D1F0" cx="2351.702" cy="524.08" r="8.3"/>
			</g>
		</g>
	</g>
	<g>
		<g>
			<g>
				<circle fill="#C3D1F0" cx="2146.112" cy="575.478" r="8.3"/>
			</g>
		</g>
		<g>
			<g>
				<circle fill="#C3D1F0" cx="2197.509" cy="575.478" r="8.3"/>
			</g>
		</g>
		<g>
			<g>
				<circle fill="#C3D1F0" cx="2248.907" cy="575.478" r="8.3"/>
			</g>
		</g>
		<g>
			<g>
				<circle fill="#C3D1F0" cx="2300.304" cy="575.478" r="8.3"/>
			</g>
		</g>
		<g>
			<g>
				<circle fill="#C3D1F0" cx="2351.702" cy="575.478" r="8.3"/>
			</g>
		</g>
	</g>
	<g>
		<g>
			<g>
				<circle fill="#C3D1F0" cx="2146.112" cy="626.875" r="8.3"/>
			</g>
		</g>
		<g>
			<g>
				<circle fill="#C3D1F0" cx="2197.509" cy="626.875" r="8.3"/>
			</g>
		</g>
		<g>
			<g>
				<circle fill="#C3D1F0" cx="2248.907" cy="626.875" r="8.3"/>
			</g>
		</g>
		<g>
			<g>
				<circle fill="#C3D1F0" cx="2300.304" cy="626.875" r="8.3"/>
			</g>
		</g>
		<g>
			<g>
				<circle fill="#C3D1F0" cx="2351.702" cy="626.875" r="8.3"/>
			</g>
		</g>
	</g>
	<g>
		<g>
			<g>
				<circle fill="#C3D1F0" cx="2146.112" cy="678.273" r="8.3"/>
			</g>
		</g>
		<g>
			<g>
				<circle fill="#C3D1F0" cx="2197.509" cy="678.273" r="8.3"/>
			</g>
		</g>
		<g>
			<g>
				<circle fill="#C3D1F0" cx="2248.907" cy="678.273" r="8.3"/>
			</g>
		</g>
		<g>
			<g>
				<circle fill="#C3D1F0" cx="2300.304" cy="678.273" r="8.3"/>
			</g>
		</g>
		<g>
			<g>
				<circle fill="#C3D1F0" cx="2351.702" cy="678.273" r="8.3"/>
			</g>
		</g>
	</g>
</g>
<g>
	<image overflow="visible" width="418" height="736" xlink:href="5345BB25.png"  transform="matrix(1 0 0 1 2227.5 1097)">
	</image>
	<g>
		<path fill="#4D6494" d="M2325.417,1818.449c1.415-0.142,2.607-1.226,2.829-2.696c67.535-450.261,199.093-595.037,242.324-642.611
			l3.657-4.036c1.177-1.307,1.071-3.32-0.235-4.497c-1.308-1.177-3.32-1.07-4.497,0.236l-3.638,4.015
			c-43.552,47.928-176.088,193.779-243.909,645.949c-0.261,1.738,0.938,3.359,2.677,3.621
			C2324.893,1818.47,2325.158,1818.475,2325.417,1818.449z"/>
	</g>
</g>
<g>
	<image overflow="visible" width="345" height="309" xlink:href="5345BB27.png"  transform="matrix(1 0 0 1 2382.5 1529)">
	</image>
	<g>
		<path fill="#4D6494" d="M2414.394,1816.982c0.712,0.259,1.537,0.015,1.983-0.641c136.803-200.715,233.573-239.797,265.373-252.639
			l2.693-1.092c0.867-0.355,1.283-1.348,0.929-2.216c-0.355-0.868-1.348-1.284-2.216-0.929l-2.678,1.086
			c-32.036,12.938-129.525,52.31-266.908,253.876c-0.528,0.775-0.328,1.832,0.447,2.36
			C2414.137,1816.87,2414.264,1816.935,2414.394,1816.982z"/>
	</g>
</g>
<g>
	<image overflow="visible" width="368" height="648" xlink:href="5345BB22.png"  transform="matrix(1 0 0 1 345.5 1203)">
	</image>
	<g>
		<path fill="#4D6494" d="M626.704,1838.296c-1.246-0.125-2.297-1.079-2.491-2.375c-59.49-396.617-175.374-524.145-213.455-566.051
			l-3.221-3.556c-1.036-1.15-0.943-2.924,0.208-3.961c1.151-1.037,2.925-0.943,3.961,0.208l3.204,3.536
			c38.364,42.218,155.109,170.692,214.851,568.991c0.229,1.532-0.826,2.96-2.358,3.189
			C627.166,1838.313,626.932,1838.318,626.704,1838.296z"/>
	</g>
</g>
<g>
	<image overflow="visible" width="304" height="271" xlink:href="5345BB23.png"  transform="matrix(1 0 0 1 272.5 1584)">
	</image>
	<g>
		<path fill="#4D6494" d="M548.329,1837.004c-0.628,0.229-1.354,0.014-1.748-0.564
			c-120.503-176.802-205.745-211.227-233.756-222.539l-2.372-0.962c-0.765-0.313-1.131-1.187-0.818-1.952
			c0.313-0.765,1.187-1.131,1.952-0.817l2.359,0.956c28.219,11.396,114.094,46.077,235.109,223.629
			c0.465,0.684,0.289,1.614-0.394,2.079C548.555,1836.905,548.443,1836.962,548.329,1837.004z"/>
	</g>
</g>
<g>
	<image overflow="visible" width="174" height="247" xlink:href="5345BB2D.png"  transform="matrix(1 0 0 1 677.5 1579)">
	</image>
	<g>
		<path fill="#4D6494" d="M707.031,1813.031c0.493,0.023,0.957-0.289,1.106-0.782c45.814-151.107,98.236-194.172,115.463-208.323
			l1.458-1.201c0.47-0.389,0.535-1.085,0.146-1.555s-1.085-0.534-1.555-0.145l-1.45,1.194
			c-17.354,14.256-70.167,57.64-116.175,209.389c-0.177,0.583,0.153,1.2,0.736,1.377
			C706.85,1813.013,706.941,1813.027,707.031,1813.031z"/>
	</g>
</g>
<g>
	<path fill="#BDCEF0" d="M2698.6,1855.353H324.3v-37.858c0-9.389,7.611-17,17-17H2681.6c9.389,0,17,7.611,17,17V1855.353z"/>
</g>
<g>
	<g>
		<rect x="1397.033" y="1452.934" fill="#303030" width="228.834" height="286.042"/>
	</g>
	<g>
		<polygon fill="#404040" points="1074.831,1800.502 1074.831,1766.32 1198.962,1738.976 1823.938,1738.976 1948.07,1766.141 
			1948.07,1800.502 		"/>
	</g>
	<g>
		<path fill="#404040" d="M784.17,1507.271V575.369c0-7.315,5.93-13.245,13.245-13.245h1428.069c7.315,0,13.246,5.93,13.246,13.245
			v931.901c0,7.315-5.931,13.245-13.246,13.245H797.416C790.101,1520.516,784.17,1514.586,784.17,1507.271z"/>
	</g>
	<g>
		<rect x="797.963" y="575.916" fill="#737373" width="1426.975" height="889.431"/>
	</g>
	<g>
		<rect x="810.376" y="588.33" fill="#E3ECFF" width="1402.148" height="864.604"/>
	</g>
	<g>
		<rect x="854.512" y="632.465" fill="#FFFFFF" width="1313.877" height="776.332"/>
	</g>
</g>
<g>
	<g>
		<g>
			<path fill="#EBE2DF" d="M1458.088,1191.023H885.231c-9.328,0-16.891-7.563-16.891-16.891v-104.729
				c0-9.328,7.563-16.891,16.891-16.891h572.856c9.329,0,16.891,7.563,16.891,16.891v104.729
				C1474.979,1183.461,1467.417,1191.023,1458.088,1191.023z"/>
		</g>
	</g>
	<g>
		<path fill="#E3ECFF" d="M1468.607,1184.595H895.751c-9.329,0-16.891-7.563-16.891-16.891v-104.729
			c0-9.328,7.563-16.891,16.891-16.891h572.856c9.329,0,16.891,7.563,16.891,16.891v104.729
			C1485.499,1177.032,1477.936,1184.595,1468.607,1184.595z"/>
	</g>
	<g>
		<circle fill="#FFFFFF" cx="951.622" cy="1115.34" r="47.339"/>
	</g>
	<g>
		<path fill="#FFFFFF" d="M1214.174,1106.573h-159.543c-2.181,0-3.948-1.768-3.948-3.947v-11.391c0-2.181,1.768-3.948,3.948-3.948
			h159.543c2.181,0,3.948,1.768,3.948,3.948v11.391C1218.122,1104.806,1216.354,1106.573,1214.174,1106.573z"/>
	</g>
	<g>
		<path fill="#FFFFFF" d="M1433.627,1153.62h-378.996c-2.181,0-3.948-1.768-3.948-3.948v-11.39c0-2.181,1.768-3.948,3.948-3.948
			h378.996c2.181,0,3.948,1.768,3.948,3.948v11.39C1437.575,1151.853,1435.808,1153.62,1433.627,1153.62z"/>
	</g>
</g>
<g>
	<g>
		<g>
			<path fill="#EBE2DF" d="M1458.088,1361.809H885.231c-9.328,0-16.891-7.563-16.891-16.891v-104.729
				c0-9.328,7.563-16.891,16.891-16.891h572.856c9.329,0,16.891,7.563,16.891,16.891v104.729
				C1474.979,1354.246,1467.417,1361.809,1458.088,1361.809z"/>
		</g>
	</g>
	<g>
		<path fill="#E3ECFF" d="M1468.607,1355.38H895.751c-9.329,0-16.891-7.563-16.891-16.891v-104.729
			c0-9.328,7.563-16.891,16.891-16.891h572.856c9.329,0,16.891,7.563,16.891,16.891v104.729
			C1485.499,1347.817,1477.936,1355.38,1468.607,1355.38z"/>
	</g>
	<g>
		<circle fill="#FFFFFF" cx="951.622" cy="1286.125" r="47.339"/>
	</g>
	<g>
		<path fill="#FFFFFF" d="M1214.174,1277.358h-159.543c-2.181,0-3.948-1.768-3.948-3.948v-11.39c0-2.181,1.768-3.948,3.948-3.948
			h159.543c2.181,0,3.948,1.768,3.948,3.948v11.39C1218.122,1275.591,1216.354,1277.358,1214.174,1277.358z"/>
	</g>
	<g>
		<path fill="#FFFFFF" d="M1433.627,1324.405h-378.996c-2.181,0-3.948-1.768-3.948-3.948v-11.391c0-2.18,1.768-3.947,3.948-3.947
			h378.996c2.181,0,3.948,1.768,3.948,3.947v11.391C1437.575,1322.638,1435.808,1324.405,1433.627,1324.405z"/>
	</g>
</g>
<g>
	<g>
		<rect x="854.219" y="632.637" fill="#3FA9F5" width="1314.118" height="59.73"/>
	</g>
	<g>
		<rect x="2023.486" y="666.217" fill="#FFFFFF" width="33.295" height="7.399"/>
	</g>
	<g>
		
			<rect x="2071.864" y="659.103" transform="matrix(0.7071 0.7071 -0.7071 0.7071 1080.3829 -1282.67)" fill="#FFFFFF" width="33.295" height="7.399"/>
	</g>
	<g>
		
			<rect x="2071.864" y="659.103" transform="matrix(-0.7071 0.7071 -0.7071 -0.7071 4033.9839 -345.3258)" fill="#FFFFFF" width="33.295" height="7.399"/>
	</g>
	<g>
		<path fill="#FFFFFF" d="M2116.7,646.835v30.354h30.354v-30.354H2116.7z M2141.173,671.309h-18.592v-18.592h18.592V671.309z"/>
	</g>
	<g>
		<circle fill="#FFFFFF" cx="961.194" cy="662.992" r="9.486"/>
	</g>
	<g>
		<circle fill="#FFFFFF" cx="921.783" cy="662.992" r="9.486"/>
	</g>
	<g>
		<circle fill="#FFFFFF" cx="882.371" cy="662.992" r="9.486"/>
	</g>
</g>
<g>
	<g>
		<g>
			<path fill="#C4C3DE" d="M1434.92,1012.538H912.815c-27.58,0-49.938-22.358-49.938-49.938V818.929
				c0-27.58,22.358-49.938,49.938-49.938h522.105c27.58,0,49.938,22.358,49.938,49.938V962.6
				C1484.858,990.18,1462.5,1012.538,1434.92,1012.538z"/>
		</g>
	</g>
	<g>
		<path fill="#3FA9F5" d="M1474.174,985.061H905.411c-14.696,0-26.609-11.913-26.609-26.609V768.123
			c0-14.696,11.913-26.609,26.609-26.609h568.763c14.696,0,26.609,11.913,26.609,26.609v190.329
			C1500.783,973.148,1488.87,985.061,1474.174,985.061z"/>
	</g>
	<g>
		<g>
			<g>
				<path fill="#BFBFBF" d="M1073.002,952.263H944.644c-8.112,0-14.688-6.576-14.688-14.688V801.002
					c0-8.112,6.576-14.688,14.688-14.688h128.359c8.112,0,14.688,6.576,14.688,14.688v136.574
					C1087.69,945.688,1081.114,952.263,1073.002,952.263z"/>
			</g>
		</g>
		<g>
			<path fill="#FFFFFF" d="M1068.65,943.292H926.568c-4.322,0-7.826-3.503-7.826-7.826V785.17c0-4.322,3.504-7.826,7.826-7.826
				h142.082c4.322,0,7.826,3.504,7.826,7.826v150.297C1076.477,939.789,1072.973,943.292,1068.65,943.292z"/>
		</g>
		<g>
			<circle fill="#76B7ED" cx="997.609" cy="835.736" r="22.427"/>
		</g>
		<g>
			<path fill="#76B7ED" d="M997.609,867.133c-22.982,0-41.614,18.265-41.614,55.56c0,2.442,0.084,4.852,0.24,7.227h82.748
				c0.156-2.375,0.24-4.785,0.24-7.227C1039.224,885.398,1020.592,867.133,997.609,867.133z"/>
		</g>
	</g>
	<g>
		<g>
			<path fill="#BFBFBF" d="M1428.53,868.928h-188.947c-16.629,0-30.11-13.48-30.11-30.11v-16.591c0-16.629,13.48-30.11,30.11-30.11
				h188.947c16.629,0,30.11,13.48,30.11,30.11v16.591C1458.64,855.448,1445.159,868.928,1428.53,868.928z"/>
		</g>
	</g>
	<g>
		<path fill="#FFFFFF" d="M1454.157,852.171h-240.202c-8.684,0-15.724-7.04-15.724-15.723v-45.364
			c0-8.684,7.04-15.724,15.724-15.724h240.202c8.684,0,15.723,7.04,15.723,15.724v45.364
			C1469.88,845.132,1462.841,852.171,1454.157,852.171z"/>
	</g>
	<g>
		<path fill="#76B7ED" d="M1334.882,794.008l4.447,13.687c0.116,0.358,0.45,0.6,0.826,0.6h14.391c0.841,0,1.191,1.076,0.51,1.571
			l-11.643,8.459c-0.305,0.221-0.432,0.613-0.315,0.971l4.447,13.687c0.26,0.8-0.655,1.465-1.336,0.971l-11.643-8.459
			c-0.305-0.221-0.717-0.221-1.021,0l-11.643,8.459c-0.681,0.495-1.597-0.171-1.336-0.971l4.447-13.687
			c0.116-0.358-0.011-0.75-0.315-0.971l-11.643-8.459c-0.681-0.495-0.331-1.571,0.511-1.571h14.391c0.376,0,0.709-0.242,0.826-0.6
			l4.447-13.687C1333.49,793.208,1334.622,793.208,1334.882,794.008z"/>
	</g>
	<g>
		<path fill="#76B7ED" d="M1409.091,794.008l4.447,13.687c0.116,0.358,0.45,0.6,0.826,0.6h14.391c0.841,0,1.191,1.076,0.511,1.571
			l-11.643,8.459c-0.305,0.221-0.432,0.613-0.315,0.971l4.447,13.687c0.26,0.8-0.656,1.465-1.336,0.971l-11.643-8.459
			c-0.304-0.221-0.716-0.221-1.021,0l-11.643,8.459c-0.681,0.495-1.597-0.171-1.337-0.971l4.447-13.687
			c0.116-0.358-0.011-0.75-0.315-0.971l-11.643-8.459c-0.681-0.495-0.331-1.571,0.511-1.571h14.391c0.376,0,0.709-0.242,0.826-0.6
			l4.447-13.687C1407.699,793.208,1408.831,793.208,1409.091,794.008z"/>
	</g>
	<g>
		<path fill="#76B7ED" d="M1263.067,794.008l4.447,13.687c0.116,0.358,0.45,0.6,0.826,0.6h14.392c0.841,0,1.19,1.076,0.51,1.571
			l-11.643,8.459c-0.305,0.221-0.432,0.613-0.315,0.971l4.447,13.687c0.26,0.8-0.656,1.465-1.336,0.971l-11.643-8.459
			c-0.304-0.221-0.716-0.221-1.021,0l-11.643,8.459c-0.681,0.495-1.596-0.171-1.336-0.971l4.447-13.687
			c0.116-0.358-0.011-0.75-0.315-0.971l-11.643-8.459c-0.681-0.495-0.331-1.571,0.51-1.571h14.391c0.376,0,0.709-0.242,0.826-0.6
			l4.447-13.687C1261.675,793.208,1262.807,793.208,1263.067,794.008z"/>
	</g>
	<g>
		<g>
			<path fill="#C4C3DE" d="M1244.512,901.693h-125.363c-5.475,0-9.914-4.438-9.914-9.914v-5.463c0-5.476,4.439-9.915,9.914-9.915
				h125.363c5.476,0,9.914,4.439,9.914,9.915v5.463C1254.426,897.254,1249.987,901.693,1244.512,901.693z"/>
		</g>
	</g>
	<g>
		<g>
			<path fill="#C4C3DE" d="M1411.248,951.964h-292.099c-5.475,0-9.914-4.439-9.914-9.915v-5.463c0-5.476,4.439-9.914,9.914-9.914
				h292.099c5.475,0,9.914,4.438,9.914,9.914v5.463C1421.162,947.525,1416.723,951.964,1411.248,951.964z"/>
		</g>
	</g>
</g>
<g>
	<g>
		<path fill="#FFD08E" d="M762.086,1224.16H506.957c-14.971,0-27.106,12.136-27.106,27.106v140.321
			c0,14.971,12.136,27.107,27.106,27.107h104.951c11.709,35.453,47.52,45.352,62.478,49.431
			c-19.562-17.214-22.801-35.385-21.031-49.431h108.731c14.971,0,27.107-12.137,27.107-27.107v-140.321
			C789.193,1236.296,777.057,1224.16,762.086,1224.16z"/>
	</g>
	<g>
		<path fill="#C3D1F0" d="M980.807,1104.432H660.194c-18.813,0-34.064,15.251-34.064,34.064v176.337
			c0,18.814,15.251,34.065,34.064,34.065h131.889c14.715,44.553,59.716,56.992,78.513,62.118
			c-24.582-21.632-28.653-44.467-26.429-62.118h136.639c18.814,0,34.065-15.251,34.065-34.065v-176.337
			C1014.873,1119.683,999.621,1104.432,980.807,1104.432z"/>
	</g>
	<g>
		<path fill="#FFEA8E" d="M1012.868,1075.376H692.256c-18.813,0-34.064,15.251-34.064,34.064v176.337
			c0,18.814,15.251,34.065,34.064,34.065h131.889c14.715,44.554,59.716,56.992,78.514,62.118
			c-24.582-21.632-28.653-44.467-26.429-62.118h136.639c18.814,0,34.065-15.251,34.065-34.065V1109.44
			C1046.934,1090.627,1031.683,1075.376,1012.868,1075.376z"/>
	</g>
	<g>
		<circle fill="#FFFFFF" cx="855.067" cy="1192.6" r="22.042"/>
	</g>
	<g>
		<circle fill="#FFFFFF" cx="953.004" cy="1192.6" r="22.042"/>
	</g>
	<g>
		<circle fill="#FFFFFF" cx="759.051" cy="1192.6" r="22.042"/>
	</g>
</g>
<g>
	<g>
		<path fill="#C3D1F0" d="M2273.303,723.891c-0.243-1.032-1.277-1.673-2.31-1.429c-255.46,60.183-485.556-47.268-552.239-181.337
			c-0.472-0.949-1.624-1.336-2.574-0.864c-0.949,0.472-1.336,1.625-0.864,2.574c5.065,10.185,11.184,20.325,18.248,30.314
			l-25.241,81.724l83.708-20.027c2.9,2.374,5.858,4.701,8.847,7.007l-3.16,86.318l75.729-41.156
			c4.73,2.355,9.539,4.638,14.403,6.866l14.771,84.793l65.252-55.732c5.05,1.394,10.134,2.708,15.242,3.962l30.282,80.989
			l53.915-66.865c4.604,0.431,9.217,0.828,13.851,1.154c2.314,0.163,4.634,0.292,6.951,0.428l42.957,74.165l42.129-75.07
			c3.812-0.301,7.623-0.639,11.438-1.009l54.662,66.832l29.508-80.627c1.021-0.236,2.045-0.459,3.067-0.7
			C2272.906,725.957,2273.546,724.923,2273.303,723.891z"/>
	</g>
	<g>
		<g>
			<polygon fill="#FFEA8E" points="2233.287,793.501 2177.871,725.747 2263.455,711.069 			"/>
		</g>
		<g>
			<polygon fill="#C9DBFF" points="2125.059,802.749 2081.188,727.006 2168.018,726.201 			"/>
		</g>
		<g>
			<polygon fill="#FFEA8E" points="2007.385,793.868 1976.729,711.881 2062.482,725.535 			"/>
		</g>
		<g>
			<polygon fill="#C9DBFF" points="1896.608,764.649 1881.586,678.417 1963.354,707.64 			"/>
		</g>
		<g>
			<polygon fill="#FFEA8E" points="1791.705,714.146 1794.907,626.674 1868.83,672.231 			"/>
		</g>
		<g>
			<polygon fill="#C9DBFF" points="1702.311,640.847 1728.142,557.215 1757.445,591.91 1787.68,620.423 			"/>
		</g>
		<g>
			<g>
				<path fill="#FFEA8E" d="M2117.878,729.651c-14.299,0-28.548-0.498-42.728-1.495c-57.37-4.034-112.469-16.096-163.765-35.848
					c-47.772-18.396-90.052-42.528-125.663-71.726c-33.994-27.871-60.419-59.605-76.419-91.774
					c-0.472-0.949-0.085-2.102,0.864-2.574c0.95-0.472,2.103-0.085,2.574,0.864c66.684,134.068,296.779,241.519,552.239,181.336
					c1.032-0.244,2.066,0.396,2.31,1.429s-0.396,2.066-1.429,2.31C2216.501,723.802,2166.896,729.651,2117.878,729.651z"/>
			</g>
		</g>
	</g>
</g>
<g>
	<path fill="#3FA9F5" d="M1870.996,1633.749c-0.411,0-0.814-0.025-1.224-0.031v164.288h428.512
		c43.196,0,78.213-35.016,78.213-78.212v-428.513h-164.276c0.002-0.245,0.019-0.488,0.019-0.734
		c0-49.211-39.894-89.105-89.104-89.105c-49.212,0-89.105,39.895-89.105,89.105c0,0.246,0.017,0.489,0.018,0.734h-164.274v164.288
		c0.409-0.006,0.813-0.03,1.224-0.03c49.211,0,89.105,39.894,89.105,89.104C1960.102,1593.855,1920.207,1633.749,1870.996,1633.749z
		"/>
</g>
<g>
	<path fill="#79A6FF" d="M899.955,1456.104c0-0.28,0.018-0.556,0.021-0.835H787.903v292.319c0,29.467,23.887,53.354,53.354,53.354
		h292.32v-112.064c0.167,0.001,0.333,0.013,0.501,0.013c33.571,0,60.785-27.215,60.785-60.785c0-33.571-27.214-60.785-60.785-60.785
		c-0.168,0-0.333,0.011-0.501,0.013V1455.27h-112.073c0.004,0.279,0.021,0.555,0.021,0.835c0,33.57-27.214,60.785-60.785,60.785
		C927.169,1516.89,899.955,1489.675,899.955,1456.104z"/>
</g>
<g>
	<g>
		<g>
			<circle fill="#FFD08E" cx="2321.358" cy="1653.072" r="137.96"/>
		</g>
		<g>
			<circle fill="#FFEA8E" cx="2341.769" cy="1653.072" r="137.96"/>
		</g>
		<g>
			<circle fill="#FFF7D4" cx="2341.769" cy="1653.072" r="95.942"/>
		</g>
		<g>
			<circle fill="#FFEA8E" cx="2341.769" cy="1653.072" r="53.223"/>
		</g>
	</g>
	<g>
		<path fill="#2743B3" d="M2342.254,1646.618c-0.95,0-1.9-0.362-2.625-1.087c-1.449-1.449-1.449-3.8,0-5.249l176.967-175.921
			c1.449-1.449,3.799-1.449,5.248,0s1.449,3.799,0,5.248l-176.967,175.922C2344.153,1646.256,2343.203,1646.618,2342.254,1646.618z"
			/>
	</g>
	<g>
		<polygon fill="#223B9E" points="2516.596,1464.361 2516.596,1439.112 2478.558,1477.15 2478.558,1501.558 		"/>
	</g>
	<g>
		<polygon fill="#223B9E" points="2520.439,1471.224 2545.687,1471.473 2507.273,1509.133 2482.868,1508.892 		"/>
	</g>
	<g>
		<polygon fill="#2743B3" points="2510.902,1480.761 2546.531,1481.227 2529.799,1497.207 2495.01,1496.749 		"/>
	</g>
</g>
<g>
	<g>
		<g>
			<path fill="#EBE2DF" d="M1672.11,1071.639c-0.55-2.99-0.853-6.068-0.853-9.219V898.71c0-27.96,22.666-50.626,50.626-50.626
				h297.429c27.96,0,50.626,22.666,50.626,50.626v163.709c0,27.96-22.666,50.626-50.626,50.626h-297.429h-126.015L1672.11,1071.639z
				"/>
		</g>
	</g>
	<g>
		<path fill="#E3ECFF" d="M1690.27,1048.527c-0.55-2.991-0.853-6.069-0.853-9.219v-163.71c0-27.96,22.667-50.626,50.626-50.626
			h297.429c27.96,0,50.626,22.666,50.626,50.626v163.71c0,27.96-22.666,50.626-50.626,50.626h-297.429h-126.014L1690.27,1048.527z"
			/>
	</g>
	<g>
		<g>
			<path fill="#FFFFFF" d="M1886.694,976.942c0.751,0,1.502-0.2,2.171-0.602l173.339-104.003c1.998-1.199,2.646-3.79,1.447-5.788
				c-1.198-1.999-3.79-2.648-5.788-1.447l-171.149,102.689l-165.382-101.021c-1.988-1.221-4.585-0.588-5.8,1.401
				c-1.215,1.988-0.587,4.584,1.401,5.799l167.562,102.352C1885.17,976.736,1885.932,976.942,1886.694,976.942z"/>
		</g>
	</g>
	<g>
		<g>
			<path fill="#FFFFFF" d="M2053.428,1057.835c1.237,0,2.464-0.542,3.297-1.583c1.455-1.82,1.16-4.475-0.658-5.93l-115.561-92.448
				c-1.818-1.455-4.474-1.16-5.93,0.658c-1.455,1.82-1.16,4.475,0.659,5.93l115.56,92.448
				C2051.572,1057.533,2052.504,1057.835,2053.428,1057.835z"/>
		</g>
	</g>
	<g>
		<g>
			<path fill="#FFFFFF" d="M1719.959,1064.438c0.978,0,1.959-0.337,2.757-1.026l118.036-101.94c1.763-1.523,1.958-4.187,0.435-5.951
				c-1.522-1.763-4.187-1.959-5.95-0.436l-118.036,101.94c-1.763,1.523-1.958,4.187-0.435,5.95
				C1717.6,1063.942,1718.776,1064.438,1719.959,1064.438z"/>
		</g>
	</g>
</g>
<g>
	<g>
		<g>
			<circle fill="#E6D4D4" cx="1634.374" cy="1214.966" r="48.015"/>
		</g>
	</g>
	<g>
		<circle fill="#3FA9F5" cx="1640.214" cy="1209.775" r="48.015"/>
	</g>
	<g>
		<g>
			<circle fill="#E6D4D4" cx="1784.852" cy="1214.966" r="48.015"/>
		</g>
	</g>
	<g>
		<circle fill="#E3ECFF" cx="1790.691" cy="1209.775" r="48.015"/>
	</g>
	<g>
		<g>
			<circle fill="#E6D4D4" cx="1634.374" cy="1340.571" r="48.015"/>
		</g>
	</g>
	<g>
		<circle fill="#E3ECFF" cx="1640.214" cy="1335.381" r="48.015"/>
	</g>
	<g>
		<g>
			<circle fill="#E6D4D4" cx="1784.852" cy="1340.571" r="48.015"/>
		</g>
	</g>
	<g>
		<circle fill="#E3ECFF" cx="1790.691" cy="1335.381" r="48.015"/>
	</g>
</g>
</svg>
