<?xml version="1.0" encoding="utf-8"?>
<!-- Generator: Adobe Illustrator 16.0.0, SVG Export Plug-In . SVG Version: 6.00 Build 0)  -->
<!DOCTYPE svg PUBLIC "-//W3C//DTD SVG 1.1//EN" "http://www.w3.org/Graphics/SVG/1.1/DTD/svg11.dtd">
<svg version="1.1" xmlns="http://www.w3.org/2000/svg" xmlns:xlink="http://www.w3.org/1999/xlink" x="0px" y="0px" width="1041px"
	 height="841.89px" viewBox="0 0 1041 841.89" enable-background="new 0 0 1041 841.89" xml:space="preserve">
<g id="Warstwa_1" display="none">
	
		<image display="inline" overflow="visible" width="1041" height="910" xlink:href="new-hero_nowe.png"  transform="matrix(1 0 0 1 0 -27)">
	</image>
</g>
<g id="Warstwa_5">
	<path fill="#FFFFFF" d="M141.333,366.667c-8,10-19.333,16,0,29.333s360.333,207.667,383,221.667s115.333,69.667,128.667,69
		s51.334-25,89.334-47s155.999-91.999,163.999-100.666s-14-15.333-67.666-47c-32.416-19.128-68.792-39.376-107.292-58.001
		c-0.241-0.116,1.515-10.057,2.75-17.625c1.205-7.386,1.971-12.458-0.375-14.125c-4.808-3.416-5.266-3.57-10.375-6.625
		c-11.5-6.875-29.963-18.176-42.125-24.5c-6.25-3.25-71.33-39.322-71.25-39.875c1.158-7.987,1.922-25.821-7-28.75
		c-26.063-8.557-58.34-32.363-79.25-46.25c-29.625-19.674-60.725-15.523-74.75-23.75c-5.525-3.241-6.667,33.207-8.833,31.833
		c-5.125-3.25,1.083-20.917,0.667-25.667c-0.125-1.421,1.833-5.667-9.083-11c-8.372-4.09-24.168-13.574-39.417-22.75
		c-8.723-5.249-17.222-10.771-24.167-14.167c-2.724-1.332-42-24.75-58.083-33.833c-3.407-1.924-7.724-1.73-9.167,2.5
		c-2.403,7.051-3.875,21.802-5.75,33.417c-1.484,9.193-2.683,17.216-2.917,18.667c-1.25,7.75-13.25,76-13.25,76
		C249.168,304.031,149.333,356.667,141.333,366.667z"/>
	<path fill="#E4EAEE" d="M277.621,296.355c0,0-113.121,65.812-126.621,74.645c-7.168,4.69-16.466,10.554,1.573,21.581
		c8.593,5.253,226.512,133.255,370.76,214.419c71.611,40.294,102.667,59,117.334,66c5.966,2.848,15.732,2.141,30.083-6.375
		C704.875,646.375,853.25,560.25,880.5,542c4.732-3.17,5.375-9.5-3.125-15c-3.767-2.437-16.875-9.75-16.875-9.75
		s-150.553,90.115-153.193,94.933s-5.743,12.777-20.108,6.714S557.333,544,557.333,544l-155.808-90.014
		c0,0-60.15-34.236-105.134-60.396c-22.409-13.032-29.425-13.902-30.308-23.34c-0.375-4.013,1.417-12.625,1.417-12.625
		L277.621,296.355z"/>
	<path fill="#D6DDE0" d="M715,630c0,0,0-59.333-0.4-81.333c-0.008-0.406-2.16,2.001-2.217,2.369
		c-2.633,16.964-3.216,22.13-10.216,55.797c-1.539,7.4-5.5,9.167-11.5,6.167c-9.198-4.599-117.5-59-117.5-59l-18.386-11.727
		L415.76,477.571c-14.663,8.263-39.759,22.411-42.887,24.21c-3.28,1.887-4.496,5.497-1.015,8.293
		c6.525,5.242,107.388,61.301,107.388,61.301S633.758,658.84,637,660.5c10.25,5.249,15.517,6.164,24,1.25
		C674.667,653.833,715,630,715,630z"/>
	<path fill="#585271" d="M910.25,534c0,0-2.125,19.805-2.25,25.59s-0.67,7.601-10,13.41c-8.92,5.56-23.68,14.81-55.17,33.17
		c-23.76,13.85-99.333,57.761-134.163,77.831c-28.97,16.69-33.284,19.391-47.166,25.666c-12.167,5.5-19.683,3.182-35.381-5.547
		c-36.786-20.453-337.96-195.91-365.67-212.061c-0.01,0-0.01,0-0.01,0c-0.03-0.029-0.07-0.04-0.1-0.06
		c-0.18-0.11-0.62-0.37-1.27-0.75c-0.08-0.05-0.17-0.1-0.27-0.16c-0.04-0.03-0.08-0.05-0.13-0.08c-7.2-4.26-34.29-20.31-42.61-25.13
		c-9.62-5.59-40.75-25.944-74.56-44.88c-4.167-2.333-15.45-8.658-15.5-14.833c-0.042-5.125-0.643-15.514-0.792-21.958
		c-0.138-5.972,0.458-7.375,0.458-7.375s0.003,9.747,11.833,17.787c6.08,4.14,441.5,256.3,441.5,256.3l47.763,26.763L642.5,686.5
		c0,0,4.91,3,15.17,0c9.25-2.7,24.74-10.87,55.66-28.5c58.17-33.17,139.82-82.16,159.939-93.91C896.67,550.42,910.25,534,910.25,534
		z"/>
	<g>
		<path fill="#3C3C3B" d="M651.244,689.602c-5.713,0.001-12.309-1.788-20.754-6.701c-15.811-9.197-64.015-37.127-125.043-72.487
			c-135.643-78.592-340.628-197.361-357.012-207.295c-14.414-8.741-23.341-15.751-23.309-23.685
			c0.038-9.243,11.42-16.017,32.083-28.316c27.747-16.514,121.985-70.214,122.915-70.742l-1.5,8.625
			c-0.93,0.528-90.148,51.654-117.835,68.133c-16.002,9.524-28.642,17.047-28.664,22.329c-0.02,4.934,10.645,12.035,19.939,17.67
			c16.324,9.898,221.272,128.646,356.891,207.224c61.031,35.361,109.238,63.293,125.054,72.493
			c15.642,9.1,22.215,5.975,33.105,0.797c1.348-0.641,2.738-1.302,4.191-1.96c20.675-9.362,197.519-114.545,222.604-130.039
			c8.548-5.28,9.81-8.423,9.8-9.826c-0.014-2.19-3.046-5.115-9.012-8.695c-9.738-5.843-52.555-30.084-93.962-53.527
			c-32.023-18.132-58.802-33.489-68.862-39.349l1-7.625c10.022,5.838,39.307,22.762,71.312,40.882
			c41.444,23.465,84.301,47.729,94.114,53.617c6.113,3.668,12.369,8.277,12.41,14.652c0.034,5.247-4.136,10.276-13.122,15.826
			c-19.74,12.193-200.953,120.298-223.396,130.461c-1.412,0.64-2.763,1.282-4.072,1.904
			C663.966,686.895,658.272,689.602,651.244,689.602z"/>
	</g>
	<polygon fill="#E6EAEE" points="228,542.166 275.582,516.375 317.861,543.375 273.162,568.336 	"/>
	<polygon fill="#C8D0DC" points="272.667,619.666 318.736,594.625 317.861,543.375 273.162,568.336 	"/>
	<path fill="#FFFFFF" d="M460.271,524.314c-0.359,2.149-5.252,30.604-5.797,34.462c-0.291,2.06-0.671,3.598,1.401,4.817
		s56.701,32.705,58.413,33.806c3.087,1.476,3.306-1.735,3.306-1.735s6.641-35.873,6.773-38.019S525.75,555,520.5,552
		c-2.988-1.708-50.252-28.865-54.625-31.111C462.272,519.038,460.63,522.165,460.271,524.314z"/>
	<path fill="none" d="M571.5,552.5l136,81c-41.019,24.69-37,23-48.5,29.5c-3.882,2.194-11.75,2.5-20.5-2
		c-19.986-10.279-268.125-156.5-268.125-156.5l44.75-28L571.5,552.5z"/>
	<g>
		<g>
			<g>
				<path fill="#F5D342" d="M496.904,557.078c1.478-4.883-1.283-10.037-6.164-11.515c-4.882-1.478-10.064,1.309-11.524,6.196
					c-0.726,2.427-0.404,4.919,0.702,6.989c0.861,1.614,1.303,3.419,1.247,5.246l-0.084,2.853l5.794,1.754l1.431-2.293
					c0.99-1.585,2.396-2.859,4.05-3.728C494.472,561.472,496.158,559.546,496.904,557.078z"/>
				<path fill="#5A5A5C" d="M484.434,571.232l-2.825-0.854c-0.801-0.243-1.307-1.042-1.126-1.805l0.638-2.968l6.41,1.896
					l-1.162,2.853C486.097,571.09,485.234,571.474,484.434,571.232z"/>
			</g>
			<path fill="#808183" d="M486.574,568.589c-1.81-0.464-3.577-1.099-5.387-1.56c-0.161-0.042-0.22,0.194-0.065,0.246
				c1.771,0.601,3.598,1.032,5.37,1.631C486.689,568.973,486.78,568.643,486.574,568.589z"/>
			<path fill="#808183" d="M486.339,569.365c-1.811-0.464-3.576-1.099-5.387-1.561c-0.162-0.041-0.219,0.195-0.065,0.246
				c1.771,0.602,3.597,1.034,5.37,1.633C486.455,569.749,486.545,569.418,486.339,569.365z"/>
		</g>
		<g>
			<path fill="#F5D342" d="M492.821,541.287c-0.172,0.569-1.096,2.525-1.469,2.412c-0.374-0.113-0.057-2.254,0.115-2.823
				c0.173-0.568,0.615-0.94,0.989-0.826C492.83,540.163,492.994,540.717,492.821,541.287z"/>
			<path fill="#F5D342" d="M500.298,546.981c-0.544,0.241-2.374,1.396-2.215,1.752c0.158,0.357,2.243-0.218,2.787-0.457
				c0.545-0.241,0.858-0.727,0.7-1.083C501.412,546.837,500.843,546.742,500.298,546.981z"/>
			<path fill="#F5D342" d="M500.819,557.116c-0.587-0.101-2.644-0.769-2.579-1.154c0.064-0.385,2.227-0.34,2.814-0.24
				c0.587,0.1,1.01,0.491,0.945,0.877C501.934,556.982,501.405,557.214,500.819,557.116z"/>
			<path fill="#F5D342" d="M483.066,541.025c0.342,0.486,1.313,2.419,0.994,2.644s-1.808-1.345-2.151-1.831
				c-0.341-0.487-0.36-1.064-0.041-1.288C482.188,540.326,482.724,540.538,483.066,541.025z"/>
			<path fill="#F5D342" d="M476.257,548.084c0.543,0.243,2.626,0.827,2.786,0.471c0.159-0.355-1.666-1.519-2.208-1.761
				c-0.544-0.242-1.113-0.151-1.273,0.207C475.402,547.356,475.713,547.843,476.257,548.084z"/>
		</g>
		<g>
			<path fill="#FFFFFF" d="M490.518,560.057c-0.221-0.292-0.359-0.631-0.428-0.986c0.441-0.298,0.743-0.787,0.952-1.265
				c0.127-0.292,0.229-0.592,0.326-0.895c0.093-0.292,0.13-0.553-0.063-0.811c-0.172-0.23-0.512-0.173-0.73-0.065
				c-0.251,0.122-0.437,0.392-0.587,0.618c-0.305,0.455-0.465,0.994-0.523,1.535c-0.021,0.188-0.023,0.379-0.012,0.568
				c-0.154,0.06-0.32,0.095-0.492,0.097c-0.53,0.009-0.813-0.381-0.911-0.86c-0.017-0.078-0.03-0.16-0.039-0.245
				c0.068-0.09,0.136-0.181,0.2-0.271c0.312-0.439,0.558-0.925,0.754-1.426c0.164-0.415,0.33-0.919-0.004-1.297
				c-0.106-0.12-0.273-0.104-0.391-0.014c-0.849,0.649-1.148,1.76-1.108,2.8c-0.181,0.219-0.377,0.425-0.584,0.617
				c-0.228,0.214-0.635,0.526-0.967,0.37c-0.31-0.145-0.445-0.63-0.53-0.929c-0.063-0.221-0.095-0.444-0.106-0.671
				c0.073-0.096,0.145-0.193,0.213-0.293c0.271-0.395,0.484-0.824,0.658-1.267c0.145-0.37,0.318-0.899-0.041-1.207
				c-0.105-0.09-0.285-0.138-0.392-0.014c-0.609,0.7-0.948,1.566-0.978,2.496c-0.001,0.03,0,0.063-0.001,0.095
				c-0.445,0.563-1.007,1.041-1.624,1.403c-0.277,0.163-0.048,0.597,0.236,0.441c0.542-0.297,1.031-0.673,1.458-1.112
				c0.035,0.174,0.08,0.345,0.139,0.512c0.156,0.456,0.39,0.911,0.868,1.086c0.449,0.161,0.934-0.11,1.281-0.369
				c0.167-0.123,0.323-0.266,0.469-0.417c0.116,0.422,0.352,0.801,0.771,0.994c0.387,0.179,0.814,0.172,1.212,0.051
				c0.093,0.388,0.253,0.76,0.471,1.092C490.262,560.798,490.791,560.42,490.518,560.057z M488.589,555.45
				c-0.045,0.217-0.173,0.464-0.224,0.588c-0.092,0.228-0.204,0.447-0.328,0.662C488.12,556.231,488.296,555.78,488.589,555.45z
				 M490.251,557.407c0.083-0.216,0.208-0.414,0.343-0.599c0.061-0.085,0.13-0.16,0.209-0.229c0.006-0.005,0.032-0.022,0.058-0.039
				c-0.002,0.017-0.002,0.037-0.009,0.067c-0.134,0.545-0.354,1.111-0.676,1.571c-0.04,0.058-0.083,0.11-0.13,0.163
				C490.067,558.021,490.137,557.703,490.251,557.407z"/>
			<path fill="#FFFFFF" d="M491.414,558.91c-1.808,2.584-3.661,5.14-5.578,7.643c-0.23,0.301,0.228,0.665,0.457,0.365
				c1.916-2.509,3.763-5.067,5.52-7.69C491.994,558.957,491.604,558.64,491.414,558.91z"/>
			<path fill="#FFFFFF" d="M482.92,556.142c-0.135,3.151-0.324,6.301-0.595,9.445c-0.032,0.375,0.551,0.437,0.583,0.061
				c0.265-3.145,0.448-6.295,0.519-9.452C483.435,555.87,482.935,555.812,482.92,556.142z"/>
		</g>
	</g>
	<path fill="#585271" d="M260.44,492.06c-0.03-0.029-0.07-0.04-0.1-0.06C260.41,492.04,260.44,492.06,260.44,492.06z"/>
	<path fill="#F2C2CC" d="M289.875,549.348c0.573-1.037,4.092-1.929,6.776-2.348c1.97-0.307,4.098-0.688,4.098-0.688
		s3.657,2.886,6.996,5.354c4.637,3.428,5.587,4.761,5.587,6.583c0,3.833-0.401,8.527-0.767,11.5
		c-1.258,10.21-1.596,12.366-2.129,18.125c-0.339,3.668-0.974,9.617-0.726,11.692c0.417,3.485,3.289,6.308,1.976,8.37
		c-2.312,3.633-7.188-7-7.063-8.188s1.105-9.629,1.188-13.188c0.25-10.801,0.238-14.655,1.271-20.479
		c1.187-6.689,0.225-8.229-4.126-10.417C300.238,554.3,289.875,549.348,289.875,549.348z"/>
	<polygon fill="#EDEDED" points="123.125,526.125 176.938,557.25 232,525.813 175.25,496.25 	"/>
	<polygon fill="#A9B7C9" points="228,542.166 273.162,568.336 272.667,619.666 228,594.082 	"/>
	<path fill="#DEAFB2" d="M303.815,595.765c0.31-6.015,0.252-11.328,0.228-15.079s-1.709-13.185-1.709-13.185
		s1.558-3.791,1.083-5.584c-1.046-3.953-5.902-7.408-8.208-8.791s-5.333-4.037-5.333-4.037s12.392,4.865,15.708,7.662
		s2.744,3.636,2.244,7.886s-1.41,14.656-1.41,20.114c0,3.404-1.792,14.999-1.792,14.999L303.815,595.765z"/>
	<path fill="#F2C2CC" d="M281.499,557.059c2.584-5.976,8.168-8.075,8.168-8.075s3.33,2.036,6.75,4.393
		c4.958,3.416,6.364,4.437,7.052,6.124s0.866,4.271-0.219,7.063c-2.318,5.967-7,20.75-7.938,24.313s-1.375,7.25-1.313,9.375
		s0.252,7.067,0.183,8.314s0.099,3.244-0.558,3.244c-1.512,0-2.938-0.121-3.563-1.934s-1.625-7.25-1.5-8.438s0.809-6.539,1.5-10.031
		c0.417-2.107,2.095-9.52,3.688-15.563c1.047-3.975,1.76-6.224,2.25-9.063c0.476-2.759,0.32-3.712-2.406-5.063
		S281.499,557.059,281.499,557.059z"/>
	<path fill="#5A5770" d="M290.083,548.918c-2.019,0.843,11.333-6.752,11.333-6.752l2.607,6.69
		C304.024,548.856,298.083,545.578,290.083,548.918z"/>
	<path fill="#3C3C3B" d="M414.159,686.062v6.751h4.779c0,0,1.536-2.47,2.681-2.786c2.132-0.589,6.12-0.37,6.12-0.37V683h-5.301
		C421.759,684.809,414.159,686.062,414.159,686.062z"/>
	<path fill="#3C3C3B" d="M428.096,695.187v6.751l5.841-0.313l0.375-2.563c-0.139,0.159-0.331-0.569,6.319-0.318
		c0,0,2.381-0.057,4.056-1.236c1.932-1.36,3.5-2.133,3.5-4.07c0-1.125-1.963-0.607-4.063-0.625
		c-3.319-0.028-7.353,0.266-7.353,0.266C436.094,694.887,428.096,695.187,428.096,695.187z"/>
	<path fill="#565469" d="M411.833,606.174c0,0,1.166,23.825,1.333,29.159s1,51.167,1,51.167s2.834,0.833,5.667-0.667
		s3.333-2.833,3.333-2.833l2.5-45.809h1.167l1,57.976c0,0,2.167,0.5,5,0.5s4.417-3.417,4.417-3.417l0.936-44.671L439,608.25
		c0,0-1.417,2.559-7.25,3.417C418.431,613.627,411.833,606.174,411.833,606.174z"/>
	<path fill="#B8DCF6" d="M411.13,551.904c-4.026,7.097-4.463,25.263-3.963,32.93s1.357,21.05,4.738,22.79
		c3.792,1.951,5.117,5.363,15.765,4.481c11.331-0.938,12.165-3.592,12.165-5.682c0-1.605,0.001-19.472,0.001-27.673
		c0-2.477,0.689-2.792,1.682-1.066c1.895,3.294,4.895,8.217,6.317,8.982c2.167,1.167,3.5,3,8,1.167s21.939-13.154,21.939-13.154
		L475,569.001c0,0-10.667,3.857-15.333,5.679s-9.667,0.654-13-8.179s-8.211-12.479-12.878-15.312S414.879,545.295,411.13,551.904z"
		/>
	<path fill="#F2C2CC" d="M422.74,542.546c-0.125,0.697-2.677,5.407-2.677,5.407s3.924,0.102,6.296,0.629
		c1.352,0.301,5.486,1.643,5.486,1.643s-0.997-3.267,0.156-3.287c1.19-0.021,1.5,0.313,3.125-0.188s2.25-3.75,2.125-5.5
		s0.78-1.961,0.995-2.97c0.63-2.968,0.63-2.968,0.88-10.8c0,0,0.75-2.105-1.5-2.105s-8.5-2.125-10.5,2.875
		S422.74,542.546,422.74,542.546z"/>
	<path fill="#4A4A49" d="M419.333,525.5c-0.75,3-0.75,9.917,0.167,12.5s2.089,4.948,4,5.178c2.688,0.322,6.583-1.678,6.667-5.178
		c0.056-2.334-0.655-3.771,1.583-2.75c1.154,0.526,2.5-0.25,2.25-2.25c-0.372-2.977-0.083-5.082,1.833-4.917
		c3.018,0.26,6.516-1.579,3.667-5.083c-1.524-1.874-5.279-2.663-9.083-3.167C423.5,518.917,420.083,522.5,419.333,525.5z"/>
	<path fill="#F2C2CC" d="M476,569c0.375-1.5,0.295-1.75,1.772-2.875s3.558-3.875,4.853-1.745c0.843,1.387,3.583-0.769,4.5,1.37
		c0.75,1.75,0.488,4.5,0.363,5s-1.726,1.656-3.738,2.375c-3.5,1.25-6.875,0.625-6.875,0.625l-1.434-3.846L476,569z"/>
	<path fill="#B8DCF6" d="M259.242,522.277c0.076,3.749-0.187,12.141-0.187,12.141s1.792,1.447,4.632,2.082
		c4.063,0.908,10.229,0.323,10.229,0.323s-1.967-4.447-0.029-5.295c2.989-1.307,6.862,4.682,6.862,4.682l7.057-3.147l-3.027-9.725
		c0,0-0.514-1.823-0.029-0.814c1.243,2.589,3.93,7.339,7.271,8.268c0.562-0.04,5.581-3.006,5.581-3.006s-4.277-1.229-6.578-6.118
		c-3.01-6.396-4.22-12.412-4.51-20.668c-0.25-7.125,0.36-11.336-2.89-12.707s-6.708-1.126-6.708-1.126s-0.627,6.584-2.833,5.959
		s-5.741-4.962-5.741-4.962s-0.691,1.024-4.232,2.274S259.242,522.277,259.242,522.277"/>
	<path fill="#D6DDE0" d="M394,462.75c-1.375-3.682,1.013-12.023,1.013-12.023l-87.186-50.477l-35.55-20.653
		c-7.228-3.903-7.11-10.014-5.934-16.262c0.5-2.653,5.196-30.995,5.196-30.995l-51.779,29.731
		c-14.663,8.263-39.759,22.411-42.887,24.21c-3.28,1.887-4.496,5.497-1.015,8.293c6.525,5.241,107.388,61.3,107.388,61.3
		s68.599,39.646,71.843,41.302s5.289,2.589,8.333,0.698s38.103-23.662,38.103-23.662S397.179,471.26,394,462.75z"/>
	<path fill="#706F6F" d="M326.195,220.674c-0.552,1.009-1.555,1.523-2.239,1.149l-4.248-2.325c-0.684-0.374-0.791-1.496-0.238-2.505
		l0,0c0.552-1.009,1.555-1.524,2.239-1.15l4.248,2.325C326.641,218.542,326.748,219.665,326.195,220.674L326.195,220.674z"/>
	<path fill="#706F6F" d="M324.028,232.174c-0.552,1.009-1.555,1.523-2.239,1.149l-4.248-2.325c-0.684-0.374-0.791-1.496-0.238-2.505
		l0,0c0.552-1.009,1.555-1.524,2.239-1.15l4.248,2.325C324.474,230.042,324.581,231.165,324.028,232.174L324.028,232.174z"/>
	<path fill="#706F6F" d="M322.361,243.674c-0.552,1.009-1.555,1.523-2.239,1.149l-4.248-2.325c-0.684-0.374-0.791-1.496-0.238-2.505
		l0,0c0.552-1.009,1.555-1.524,2.239-1.15l4.248,2.325C322.807,241.542,322.914,242.665,322.361,243.674L322.361,243.674z"/>
	<path fill="#706F6F" d="M320.528,255.174c-0.552,1.009-1.555,1.523-2.239,1.149l-4.248-2.325c-0.684-0.374-0.791-1.496-0.238-2.505
		l0,0c0.552-1.009,1.555-1.524,2.239-1.15l4.248,2.325C320.973,253.042,321.08,254.165,320.528,255.174L320.528,255.174z"/>
	<path fill="#706F6F" d="M318.861,267.174c-0.552,1.009-1.555,1.523-2.239,1.149l-4.248-2.325c-0.684-0.374-0.791-1.496-0.238-2.505
		l0,0c0.552-1.009,1.555-1.524,2.239-1.15l4.248,2.325C319.307,265.042,319.414,266.165,318.861,267.174L318.861,267.174z"/>
	<path fill="#706F6F" d="M311.03,310.674c-0.552,1.009-1.555,1.523-2.239,1.149l-4.248-2.325c-0.684-0.374-0.791-1.496-0.238-2.505
		l0,0c0.552-1.009,1.555-1.524,2.239-1.15l4.248,2.325C311.476,308.543,311.583,309.665,311.03,310.674L311.03,310.674z"/>
	<path fill="#706F6F" d="M308.863,322.174c-0.552,1.009-1.555,1.523-2.239,1.149l-4.248-2.325c-0.684-0.374-0.791-1.496-0.238-2.505
		l0,0c0.552-1.009,1.555-1.524,2.239-1.15l4.248,2.325C309.309,320.043,309.416,321.165,308.863,322.174L308.863,322.174z"/>
	<path fill="#706F6F" d="M307.196,333.674c-0.552,1.009-1.555,1.523-2.239,1.149l-4.248-2.325c-0.684-0.374-0.791-1.496-0.238-2.505
		l0,0c0.552-1.009,1.555-1.524,2.239-1.15l4.248,2.325C307.642,331.543,307.749,332.665,307.196,333.674L307.196,333.674z"/>
	<path fill="#706F6F" d="M305.363,345.174c-0.552,1.009-1.555,1.523-2.239,1.149l-4.248-2.325c-0.684-0.374-0.791-1.496-0.238-2.505
		l0,0c0.552-1.009,1.555-1.524,2.239-1.15l4.248,2.325C305.808,343.043,305.915,344.165,305.363,345.174L305.363,345.174z"/>
	<path fill="#706F6F" d="M303.696,357.174c-0.552,1.009-1.555,1.523-2.239,1.149l-4.248-2.325c-0.684-0.374-0.791-1.496-0.238-2.505
		l0,0c0.552-1.009,1.555-1.524,2.239-1.15l4.248,2.325C304.142,355.043,304.249,356.165,303.696,357.174L303.696,357.174z"/>
	<path fill="#706F6F" d="M367.697,343.341c-0.552,1.009-1.555,1.523-2.239,1.149l-4.248-2.325c-0.684-0.374-0.791-1.496-0.238-2.505
		l0,0c0.552-1.009,1.555-1.524,2.239-1.15l4.248,2.325C368.143,341.21,368.25,342.332,367.697,343.341L367.697,343.341z"/>
	<path fill="#706F6F" d="M365.53,354.841c-0.552,1.009-1.555,1.523-2.239,1.149l-4.248-2.325c-0.684-0.374-0.791-1.496-0.238-2.505
		l0,0c0.552-1.009,1.555-1.524,2.239-1.15l4.248,2.325C365.976,352.71,366.083,353.832,365.53,354.841L365.53,354.841z"/>
	<path fill="#706F6F" d="M363.863,366.341c-0.552,1.009-1.555,1.523-2.239,1.149l-4.248-2.325c-0.684-0.374-0.791-1.496-0.238-2.505
		l0,0c0.552-1.009,1.555-1.524,2.239-1.15l4.248,2.325C364.309,364.21,364.416,365.332,363.863,366.341L363.863,366.341z"/>
	<path fill="#706F6F" d="M362.03,377.841c-0.552,1.009-1.555,1.523-2.239,1.149l-4.248-2.325c-0.684-0.374-0.791-1.496-0.238-2.505
		l0,0c0.552-1.009,1.555-1.524,2.239-1.15l4.248,2.325C362.475,375.71,362.582,376.832,362.03,377.841L362.03,377.841z"/>
	<path fill="#706F6F" d="M360.363,389.841c-0.552,1.009-1.555,1.523-2.239,1.149l-4.248-2.325c-0.684-0.374-0.791-1.496-0.238-2.505
		l0,0c0.552-1.009,1.555-1.524,2.239-1.15l4.248,2.325C360.809,387.71,360.916,388.832,360.363,389.841L360.363,389.841z"/>
	<path fill="#A9B1BF" d="M338.486,326.295c-0.501,0.873-1.603,1.181-2.463,0.688l-19.444-11.159c-0.859-0.493-1.149-1.6-0.649-2.473
		l0,0c0.501-0.873,1.603-1.18,2.462-0.688l19.444,11.159C338.696,324.316,338.987,325.423,338.486,326.295L338.486,326.295z"/>
	<path fill="#DE5577" d="M333.395,301.602c-0.501,0.873-1.924,0.996-3.181,0.275l-28.417-16.308
		c-1.256-0.72-1.867-2.012-1.367-2.885l0,0c0.502-0.872,1.925-0.996,3.181-0.275l28.417,16.308
		C333.284,299.438,333.896,300.73,333.395,301.602L333.395,301.602z"/>
	<path fill="#EEB311" d="M390.895,335.352c-0.501,0.873-1.924,0.996-3.181,0.275l-28.417-16.308
		c-1.256-0.72-1.867-2.012-1.367-2.885l0,0c0.502-0.872,1.925-0.996,3.181-0.275l28.417,16.308
		C390.784,333.188,391.396,334.48,390.895,335.352L390.895,335.352z"/>
	<path fill="#A9B1BF" d="M394.133,358.639c-0.501,0.873-1.577,1.196-2.404,0.721l-18.709-10.737c-0.827-0.474-1.09-1.566-0.59-2.439
		l0,0c0.501-0.872,1.577-1.195,2.404-0.721l18.709,10.737C394.37,356.674,394.634,357.767,394.133,358.639L394.133,358.639z"/>
	<path fill="#A9B1BF" d="M383.932,365.683c-0.501,0.873-1.323,1.341-1.838,1.046l-11.64-6.68c-0.514-0.295-0.525-1.242-0.024-2.114
		l0,0c0.501-0.872,1.324-1.341,1.838-1.046l11.64,6.68C384.422,363.863,384.433,364.811,383.932,365.683L383.932,365.683z"/>
	<path fill="#A9B1BF" d="M390.233,381.409c-0.501,0.873-1.564,1.203-2.376,0.737l-18.364-10.539
		c-0.812-0.465-1.063-1.55-0.563-2.423l0,0c0.501-0.872,1.564-1.203,2.376-0.737l18.364,10.539
		C390.482,379.452,390.734,380.537,390.233,381.409L390.233,381.409z"/>
	<path fill="#E6C825" d="M543.837,444.046c-0.478,0.887-1.451,1.292-2.176,0.899l-16.379-8.822
		c-0.725-0.389-0.924-1.425-0.451-2.309l0,0c0.481-0.887,1.453-1.288,2.179-0.898l16.38,8.822
		C544.113,442.127,544.314,443.161,543.837,444.046L543.837,444.046z"/>
	<path fill="#6BB4E5" d="M536.102,483.361c-0.481,0.884-1.457,1.281-2.181,0.887l-16.329-8.915
		c-0.722-0.392-0.916-1.429-0.437-2.311l0,0c0.484-0.882,1.46-1.279,2.183-0.887l16.329,8.915
		C536.39,481.443,536.586,482.479,536.102,483.361L536.102,483.361z"/>
	<path fill="#DC4A75" d="M536.352,454.801c-0.479,0.882-1.292,1.368-1.814,1.083l-11.778-6.433c-0.519-0.286-0.55-1.229-0.066-2.114
		l0,0c0.483-0.881,1.293-1.368,1.814-1.083l11.779,6.43C536.806,452.971,536.839,453.915,536.352,454.801L536.352,454.801z"/>
	<path fill="#D9DBD6" d="M541.199,470.954c-0.473,0.887-1.527,1.25-2.352,0.809l-18.681-9.968c-0.823-0.44-1.109-1.518-0.637-2.406
		l0,0c0.474-0.886,1.527-1.249,2.353-0.809l18.679,9.969C541.387,468.989,541.673,470.067,541.199,470.954L541.199,470.954z"/>
	<path fill="#A9B1BF" d="M390.985,394.276c-0.501,0.873-1.665,1.146-2.601,0.608l-21.168-12.148
		c-0.935-0.537-1.287-1.679-0.787-2.552l0,0c0.501-0.872,1.665-1.145,2.6-0.608l21.168,12.148
		C391.134,392.261,391.486,393.404,390.985,394.276L390.985,394.276z"/>
	<path fill="#A9B1BF" d="M375.97,398.987c-0.501,0.873-1.286,1.363-1.754,1.094l-10.595-6.08c-0.468-0.269-0.441-1.194,0.059-2.066
		l0,0c0.501-0.873,1.287-1.362,1.754-1.094l10.595,6.08C376.498,397.189,376.471,398.115,375.97,398.987L375.97,398.987z"/>
	<path fill="#706F6F" d="M604.816,480.478c-0.53,1.021-1.522,1.556-2.214,1.196l-4.296-2.234c-0.691-0.359-0.823-1.479-0.292-2.5
		l0,0c0.531-1.02,1.522-1.557,2.214-1.196l4.296,2.234C605.216,478.338,605.348,479.456,604.816,480.478L604.816,480.478z"/>
	<path fill="#DC4A75" d="M602.894,492.021c-0.531,1.021-1.521,1.557-2.214,1.196l-4.297-2.234c-0.691-0.359-0.821-1.479-0.291-2.499
		l0,0c0.53-1.021,1.522-1.558,2.215-1.196l4.296,2.233C603.294,489.881,603.424,491,602.894,492.021L602.894,492.021z"/>
	<path fill="#6BB4E5" d="M601.47,503.554c-0.53,1.021-1.522,1.556-2.214,1.196l-4.296-2.234c-0.691-0.36-0.822-1.479-0.291-2.5l0,0
		c0.531-1.02,1.521-1.557,2.213-1.196l4.297,2.233C601.87,501.414,602.001,502.532,601.47,503.554L601.47,503.554z"/>
	<path fill="#E6C825" d="M599.88,515.09c-0.53,1.021-1.521,1.556-2.214,1.196l-4.297-2.234c-0.691-0.359-0.821-1.479-0.291-2.5l0,0
		c0.531-1.02,1.522-1.557,2.215-1.196l4.296,2.234C600.28,512.95,600.41,514.068,599.88,515.09L599.88,515.09z"/>
	<path fill="#6BB4E5" d="M598.468,527.122c-0.53,1.021-1.522,1.557-2.214,1.196l-4.296-2.234c-0.691-0.359-0.822-1.479-0.291-2.499
		l0,0c0.531-1.021,1.521-1.558,2.213-1.196l4.297,2.233C598.867,524.982,598.999,526.101,598.468,527.122L598.468,527.122z"/>
	<path fill="#A9B1BF" d="M631.57,495.213c-0.482,0.883-1.552,1.229-2.388,0.772l-18.932-10.34c-0.837-0.456-1.124-1.543-0.643-2.425
		l0,0c0.482-0.884,1.552-1.229,2.388-0.772l18.932,10.339C631.766,493.243,632.053,494.33,631.57,495.213L631.57,495.213z"/>
	<path fill="#A9B1BF" d="M621.521,502.471c-0.482,0.884-1.295,1.368-1.815,1.084l-11.778-6.433c-0.52-0.283-0.552-1.229-0.069-2.112
		l0,0c0.482-0.883,1.295-1.369,1.815-1.085l11.778,6.432C621.972,500.641,622.003,501.587,621.521,502.471L621.521,502.471z"/>
	<path fill="#A9B1BF" d="M628.152,518.061c-0.482,0.884-1.537,1.236-2.359,0.786l-18.583-10.147
		c-0.821-0.448-1.097-1.527-0.614-2.41l0,0c0.482-0.883,1.539-1.235,2.36-0.788l18.583,10.148
		C628.36,516.098,628.635,517.177,628.152,518.061L628.152,518.061z"/>
	<path fill="#A9B1BF" d="M629.178,530.908c-0.483,0.883-1.641,1.18-2.588,0.663l-21.421-11.698c-0.945-0.516-1.322-1.65-0.84-2.533
		l0,0c0.482-0.884,1.641-1.181,2.587-0.664l21.421,11.697C629.283,528.891,629.659,530.025,629.178,530.908L629.178,530.908z"/>
	<path fill="#A9B1BF" d="M614.265,535.937c-0.482,0.884-1.257,1.39-1.73,1.131l-10.722-5.854c-0.474-0.26-0.467-1.186,0.015-2.067
		l0,0c0.483-0.884,1.259-1.391,1.731-1.131l10.722,5.854C614.754,534.127,614.747,535.053,614.265,535.937L614.265,535.937z"/>
	<path fill="#6BB4E5" d="M659.271,512.437c-0.53,1.021-1.522,1.556-2.214,1.196l-4.296-2.234c-0.691-0.359-0.823-1.479-0.292-2.5
		l0,0c0.531-1.02,1.522-1.557,2.214-1.196l4.296,2.234C659.67,510.297,659.802,511.415,659.271,512.437L659.271,512.437z"/>
	<path fill="#E6C825" d="M657.348,523.979c-0.531,1.021-1.521,1.557-2.214,1.196l-4.297-2.234c-0.691-0.359-0.821-1.479-0.291-2.499
		l0,0c0.53-1.021,1.522-1.558,2.215-1.196l4.296,2.233C657.748,521.84,657.878,522.959,657.348,523.979L657.348,523.979z"/>
	<path fill="#706F6F" d="M655.924,535.513c-0.53,1.021-1.522,1.556-2.214,1.196l-4.296-2.234c-0.691-0.36-0.822-1.479-0.291-2.5l0,0
		c0.531-1.02,1.521-1.557,2.213-1.196l4.297,2.233C656.324,533.373,656.455,534.491,655.924,535.513L655.924,535.513z"/>
	<path fill="#DC4A75" d="M654.334,547.049c-0.53,1.021-1.521,1.556-2.214,1.196l-4.297-2.234c-0.691-0.359-0.821-1.479-0.291-2.5
		l0,0c0.531-1.02,1.522-1.557,2.215-1.196l4.296,2.234C654.734,544.909,654.864,546.027,654.334,547.049L654.334,547.049z"/>
	<path fill="#E6C825" d="M652.922,559.081c-0.53,1.021-1.522,1.557-2.214,1.196l-4.296-2.234c-0.691-0.359-0.822-1.479-0.291-2.499
		l0,0c0.531-1.021,1.521-1.558,2.213-1.196l4.297,2.233C653.321,556.941,653.453,558.06,652.922,559.081L652.922,559.081z"/>
	<path fill="#A9B1BF" d="M686.024,527.172c-0.482,0.883-1.552,1.229-2.388,0.772l-18.932-10.34
		c-0.837-0.456-1.124-1.543-0.643-2.425l0,0c0.482-0.884,1.552-1.229,2.388-0.772l18.932,10.339
		C686.22,525.202,686.507,526.289,686.024,527.172L686.024,527.172z"/>
	<path fill="#A9B1BF" d="M675.975,534.43c-0.482,0.884-1.295,1.368-1.815,1.084l-11.778-6.433c-0.52-0.283-0.552-1.229-0.069-2.112
		l0,0c0.482-0.883,1.295-1.369,1.815-1.085l11.778,6.432C676.426,532.6,676.457,533.546,675.975,534.43L675.975,534.43z"/>
	<path fill="#A9B1BF" d="M682.606,550.02c-0.482,0.884-1.537,1.236-2.359,0.786l-18.583-10.147c-0.821-0.448-1.097-1.527-0.614-2.41
		l0,0c0.482-0.883,1.539-1.235,2.36-0.788l18.583,10.148C682.814,548.057,683.089,549.136,682.606,550.02L682.606,550.02z"/>
	<path fill="#A9B1BF" d="M683.632,562.867c-0.483,0.883-1.641,1.18-2.588,0.663l-21.421-11.698c-0.945-0.516-1.322-1.65-0.84-2.533
		l0,0c0.482-0.884,1.641-1.181,2.587-0.664l21.421,11.697C683.737,560.85,684.113,561.984,683.632,562.867L683.632,562.867z"/>
	<path fill="#A9B1BF" d="M668.719,567.896c-0.482,0.884-1.257,1.39-1.73,1.131l-10.722-5.854c-0.474-0.26-0.467-1.186,0.015-2.067
		l0,0c0.483-0.884,1.259-1.391,1.731-1.131l10.722,5.854C669.208,566.086,669.201,567.012,668.719,567.896L668.719,567.896z"/>
	<path fill="#A9B1BF" d="M326.368,331.896c-0.501,0.873-1.322,1.342-1.834,1.048l-11.584-6.648c-0.512-0.293-0.521-1.239-0.02-2.112
		l0,0c0.501-0.873,1.321-1.342,1.833-1.048l11.584,6.648C326.86,330.079,326.869,331.024,326.368,331.896L326.368,331.896z"/>
	<path fill="#A9B1BF" d="M332.267,347.498c-0.501,0.873-1.524,1.226-2.287,0.789l-17.243-9.896
		c-0.763-0.437-0.973-1.499-0.473-2.372l0,0c0.501-0.873,1.524-1.226,2.287-0.789l17.243,9.896
		C332.556,345.563,332.768,346.625,332.267,347.498L332.267,347.498z"/>
	<path fill="#A9B1BF" d="M334.063,361.392c-0.501,0.873-1.662,1.147-2.595,0.612l-21.09-12.104
		c-0.933-0.535-1.281-1.676-0.781-2.548l0,0c0.501-0.873,1.662-1.146,2.594-0.612l21.09,12.104
		C334.214,359.378,334.563,360.52,334.063,361.392L334.063,361.392z"/>
	<path fill="#A9B1BF" d="M321.011,366.691c-0.501,0.873-1.311,1.349-1.81,1.063l-11.276-6.472c-0.499-0.286-0.496-1.225,0.004-2.098
		l0,0c0.501-0.873,1.31-1.348,1.809-1.063l11.276,6.472C321.514,364.879,321.512,365.819,321.011,366.691L321.011,366.691z"/>
	<path fill="none" stroke="#DADADA" stroke-miterlimit="10" d="M409.25,321.5c-0.833,4.167-2.75,8.25-10.5,3.75
		c0,0-80.083-46.917-87.625-51.375c-3.275-1.936-7.05-3.041-6.125-9.208c1.125-7.5,6.361-43.221,7.167-49.333
		c1-7.583,3.157-13.168,8.833-10c7.167,4,93.333,53,93.333,53c4.5,2.667,4.333,5.333,3,13.667
		C417.333,272,410.083,317.333,409.25,321.5z"/>
	<path fill="none" stroke="#DADADA" stroke-miterlimit="10" d="M338.5,368.833c-2,10.5-2.083,17.75-10.833,13
		c0,0-27.167-14.167-32.167-16.833s-7.333-4.167-6.5-11s8.737-52.967,8.737-52.967c0.496-3.092,2.263-6.283,7.763-3.783
		S341.25,316,341.25,316c8,4.5,5.75,7,4.25,16.75C344.074,342.019,340.007,360.922,338.5,368.833z"/>
	<path fill="none" stroke="#DADADA" stroke-miterlimit="10" d="M394.5,400c-2,11.75-1.75,18.75-7.5,15.25l-37.5-21
		c-5-2.25-4.5-4.75-3.25-13.25l8.5-48.25c0.496-3.092,2-7.5,7.5-5s34,20,34,20c8,4.5,5.917,6.25,4.25,18
		C399.183,375.035,395.976,391.332,394.5,400z"/>
	<path fill="none" stroke="#DADADA" stroke-miterlimit="10" d="M631.75,546.25c-0.66,4.404-1.082,9.751-7.582,6.251
		c0,0-32.417-16.709-37.167-19.334s-5.166-3.333-3.833-12.333s7.915-49.751,7.915-49.751c0.918-6.749,2.085-9.415,8.585-5.749
		c7.984,4.503,25.714,14.024,33.666,18c10,5,7.334,3.5,5.249,17.749C637.649,507.466,633.75,532.917,631.75,546.25z"/>
	<path fill="none" stroke="#DADADA" stroke-miterlimit="10" d="M687,577.167c-0.66,4.404-3,9.167-9.5,5.667
		c0,0-31.083-16.209-35.833-18.834s-4.167-4-2.834-13c0.802-5.41,1.167-6.834,7.5-49c0.834-5.333,1.725-9.945,9.334-5.999
		c9,4.667,25.901,13.166,34,16.833c8.834,4,6.333,4,4.5,18.167C693.339,537.398,689,563.834,687,577.167z"/>
	<polygon fill="none" stroke="#DADADA" stroke-miterlimit="10" points="558,415.667 445,351.667 458.032,277.286 458.667,273.667 
		462.378,275.747 571.667,337 	"/>
	<polygon fill="none" stroke="#DADADA" stroke-miterlimit="10" points="697.75,509 595,454.5 611.5,361.125 712.334,418.667 	"/>
	<polygon fill="none" stroke="#DADADA" stroke-miterlimit="10" points="541.566,506.635 428.959,441.948 442.443,367.647 
		443.1,364.033 446.799,366.136 555.714,428.052 	"/>
	<polyline fill="none" stroke="#E6332A" stroke-width="2" stroke-linecap="round" stroke-miterlimit="10" points="460.75,331 
		482.5,321 498.75,337.5 520,335.5 535.25,362.25 556.25,351.25 	"/>
	<polyline fill="none" stroke="#5BC5F2" stroke-width="2" stroke-linecap="round" stroke-miterlimit="10" points="462.5,322.5 
		485,346.75 503,321.25 516.75,354.5 535,334.75 553.75,364 	"/>
	<polyline fill="none" stroke="#FFDB7C" stroke-width="2" stroke-linecap="round" stroke-miterlimit="10" points="460,338.25 
		482,332.75 499.5,349 519.5,341 535.75,350.25 556.5,342.75 	"/>
	<polygon fill="#FFDB7C" points="457.375,345.125 464.375,349 464,354.625 456.875,350.875 	"/>
	<polygon fill="#FFDB7C" points="468,352.75 476,356.75 475.625,361.375 467.667,357.125 	"/>
	<polygon fill="#DC4F71" points="482,360.5 488.25,363.75 488.083,367.75 481.5,364.25 	"/>
	<polygon fill="#B2B2B2" points="505.667,373.417 511.5,375.875 511.5,380.917 505.25,377.875 	"/>
	<polygon fill="#36A9E1" points="529.125,387.125 535.375,390 535.5,394.667 529.25,391.625 	"/>
	<polygon fill="#36A9E1" points="540.75,394.625 547.125,397.75 547.125,400.667 540.875,397.625 	"/>
	<polygon fill="#B2B2B2" points="515.25,380.625 522.625,384 522.834,387.167 515.25,383.5 	"/>
	<polygon fill="#DC4F71" points="493,366.75 499.125,369.75 499,373.625 492.625,370.5 	"/>
</g>
<g id="Warstwa_4">
	<polygon fill="#FFFFFF" points="758.584,495.334 774.167,486.083 791.084,497.813 776.751,508.25 	"/>
	<path fill="#DEAFB2" d="M281.75,555.667c4.25,2.75,10.99,4.855,13.785,6.612c1.458,0.917,1.192,3.762,0.84,5.429
		c-0.284,1.346-4.437,16.141-5.351,20.667c-0.396,1.963-1.899,9.667-1.899,9.667s-0.224-1.496-0.167-2.584
		c0.151-2.888,1.055-9.923,1.625-16.167c0.517-5.667,2.494-11.125,2.75-12.749c0.25-1.583,0.483-1.579-3.917-2.209
		s-10.456-3.993-10.456-3.993L281.75,555.667z"/>
	<polygon fill="#EDEDED" points="603.501,222.083 613.75,227.75 641.875,211 611.752,204.375 593.084,211.375 	"/>
	<polygon fill="#F2C1CC" points="733.333,348.519 736,404.125 740.125,397.5 741.953,397.395 743.125,348.519 	"/>
	<polygon fill="#F2C1CC" points="743.125,344.831 745.711,398.75 750.563,396 751.875,394.938 752.917,344.831 	"/>
	<path fill="#F3C5CA" d="M733.417,241.736c-0.042,0.75-1.167,6.764-0.667,8.889s1.875,4.875,2.75,5.5s1.251,1.549,3.917,2.254
		s3.583,0.139,4.208-1.683s3.574-4.745,3.574-4.745l-10.699-7.827L733.417,241.736z"/>
	<path fill="#4BA9C7" d="M583.958,179.333l-1.75,9.792l1.333,11.125l8.417,12.583c0,0,2.662,2.975,3.871,1.163
		c0.525-0.787,5.076-3.58,5.076-3.58s-6.113-15.375-6.155-15.625s-5.125-9-5.125-9L583.958,179.333z"/>
	<path fill="#7FCEEE" d="M588.167,161.75c-1.916,1.083-7.249,4.917-9.166,6.667s-2.666,6-2.5,7.917s-1.167,10-1.667,13.333
		s-0.991,10.041-0.407,11.958s3.407,5.542,5.407,7.625s5.676,7.202,6.789,8.005s2.51,3.102,4.814,1.669
		c0.426-0.265,4.498-5.055,4.498-5.055s-1.912-2.849-3.768-4.703s-5.074-6.25-6.662-8.917s-1.339-4.666-1.422-8.583
		s0.5-9.75,0.5-9.75c0.854,8.051,1.401,12.672,1.791,13.646c0.869,2.172,1.664,6.545,3.459,9.021s3.896,5.766,7.391,8.244
		c0.16,0.114,2.574-0.954,5.109-1.598c3.064-0.78,6.406-1.219,7.5-1.812c2-1.083,2.667-2.333,2.667-2.333L611.584,185
		c0,0,5.583,11.833,9.789,13.307c0.699-0.383,6.275-3.438,6.275-3.438s-6.295-8.133-7.897-10.285
		c-2.917-3.917-3.501-9.75-5.25-13.583s-2.874-5.466-4.75-7.75c-2.876-3.5-8.095-2.594-8.095-2.594s0.055,4.489-3.629,4.182
		s-5.667-1.833-5.667-1.833L588.167,161.75z"/>
	<path fill="#4A4A49" d="M589.167,154.167c-3.479-1.167-5.021-9.5-4.354-12.667s2.854-7.458,6.938-8.958
		c5.53-2.032,8.305,0.088,9.625,0.958c2.563,1.688,4.688,5.708,4.688,6.875s-0.063,2.778-2.563,2.702s-4.125,0.298-6.833,0
		c-1.549-0.171-4.292-1.389-4.792-0.389s-0.916,2.167-0.25,3.5s0.813,3.483,0,2.938c-2.235-1.5-0.792-2.958-2.292-2.458
		s-2.332,1.834-1.166,3.167S589.662,154.333,589.167,154.167z"/>
	<path fill="#4A4A49" d="M735.75,232.25c-3.313,0.75-4.5,4-4,6.125s2.875,5,4.25,7.125s3.375,3.875,5.5,5.75s2.25,3.875,5.125,1.25
		s3.563-4.813,4.688-7.313s3.188-2.438,3.938-5.688s3.25-5.375,0-8.25s-2.563-4.438-6.688-4.063s-5.491,1.756-6.366,3.256
		S739.063,231.5,735.75,232.25z"/>
	<polygon fill="#858584" points="616,201.25 613.75,227.75 641.875,211 644.75,185.5 	"/>
	<path fill="#3C3C3B" d="M609.584,307.333L624.001,307c0,0,1.337-2.125-0.458-2.48c-3.042-0.603-12.459-5.603-12.459-5.603
		l-8.042,0.648l0.001,1.684L609.584,307.333z"/>
	<path fill="#58516C" d="M603.042,299.565l8.288-0.519l-0.246-73.38l-8.333-4.25c0,0-4.709,2.917-7.542,1.167
		c-1.715-1.059-3.375-4.5-3.375-4.5c-3.25,2.833-7.75-3.583-7.75-3.583l0.584,76.833l10,5.5l2.833-58.167l1.542-0.101
		L603.042,299.565z"/>
	<path fill="#F3C5CA" d="M606.027,141.17c0.162,2.008,0.778,12.713-0.159,14.088s-1.923,1.022-3.326,1.367
		c-1.047,0.257-0.965,2.083-1,3.25c-0.036,1.186,0.458,1.813-0.469,3.251c-0.356,0.554-1.167,2.124-3.792,1.499
		s-6.344-2.156-7-3.344c-0.393-0.71,0.433-5.365,0.344-6.364s-0.174-1.961-0.174-1.961s-1.025,0.269-1.576-1.039
		s-0.695-0.906-1.095-3.25c-0.314-1.847,1.187-2.963,2.437-1.463s2.061,0.988,1.811,0.113s-0.819-3.065-0.392-4.111
		s1.229-2.146,3.502-1.634s4.945,1.983,7.57,1.358S606.027,141.17,606.027,141.17z"/>
	<path fill="#FFFFFF" d="M590.167,160.167l-2,1.583c0,3.156,4.222,6.718,6.834,9.833l3-7
		C594.001,163.75,590.167,160.167,590.167,160.167z"/>
	<path fill="#FFFFFF" d="M601.521,160.486h2.896c0,3.156-0.004,6.188-2.616,9.303l-3.8-5.206
		C602.001,163.75,601.521,160.486,601.521,160.486z"/>
	<g>
		<polygon fill="none" stroke="#DBDB00" stroke-miterlimit="10" points="636,320.667 662.667,335.333 690.333,319.833 
			663.625,303.833 		"/>
		<line fill="none" stroke="#DBDB00" stroke-miterlimit="10" x1="636" y1="320.667" x2="635.875" y2="345.875"/>
		<polyline fill="none" stroke="#DBDB00" stroke-miterlimit="10" points="690.333,319.833 690.333,351.5 668.834,364.5 		"/>
		<line fill="none" stroke="#DBDB00" stroke-miterlimit="10" x1="662.667" y1="335.333" x2="663.001" y2="360.917"/>
		<g>
			<g>
				<line fill="none" stroke="#DBDB00" stroke-miterlimit="10" x1="662.667" y1="335.333" x2="661.813" y2="335.853"/>
				
					<line fill="none" stroke="#DBDB00" stroke-miterlimit="10" stroke-dasharray="1.9337,0.5801" x1="661.316" y1="336.154" x2="642.228" y2="347.747"/>
				<line fill="none" stroke="#DBDB00" stroke-miterlimit="10" x1="641.979" y1="347.898" x2="641.125" y2="348.417"/>
			</g>
		</g>
		<g>
			<g>
				<line fill="none" stroke="#DBDB00" stroke-miterlimit="10" x1="690.029" y1="351.081" x2="689.162" y2="350.583"/>
				
					<line fill="none" stroke="#DBDB00" stroke-miterlimit="10" stroke-dasharray="1.9858,0.5957" x1="688.646" y1="350.285" x2="664.291" y2="336.272"/>
				<line fill="none" stroke="#DBDB00" stroke-miterlimit="10" x1="664.033" y1="336.124" x2="663.166" y2="335.625"/>
			</g>
		</g>
		<g>
			<g>
				<line fill="none" stroke="#DBDB00" stroke-miterlimit="10" x1="662.916" y1="336.188" x2="662.938" y2="335.188"/>
				
					<line fill="none" stroke="#DBDB00" stroke-miterlimit="10" stroke-dasharray="2.0796,0.6239" x1="662.951" y1="334.564" x2="663.597" y2="305.145"/>
				<line fill="none" stroke="#DBDB00" stroke-miterlimit="10" x1="663.604" y1="304.833" x2="663.625" y2="303.833"/>
			</g>
		</g>
	</g>
	<path fill="#555368" d="M729.773,308.037c5.156,1.388,9.974,0.833,11.789,0.775c3.938-0.125,6.343-2.004,10.813-4.625
		c0,0,2.875,4,2.375,9.5S753.771,323,753.438,326s0.875,19.063,0.875,19.063s-3.746,3.271-6.5,4c-6.375,1.688-17.75,1-17.75,1
		s0.438-8.688,0.271-13.875S729.773,308.037,729.773,308.037z"/>
	<path fill="#F3C5CA" d="M731.167,264.583c-1-2.25-1.958-3.417-3.125-5.417s-2.124-1.917-2.541-2.584s-1.458-1.958,0.125-1.625
		c0.569,0.12,1,0.321,1.318,0.528c0.567,0.371,0.766,0.233,0.682-0.438c-0.118-0.952,0.812-1.423-0.753-2.396
		c-0.729-0.453-0.539-1.609-1.27-2.649c-0.422-0.601,0.03-1.284,0.397-1.184c1.583,0.431,2.73,2.353,4.562,2.994
		c0.625,0.219,0.656,0.5,0.656,1.063c0,1.31,2.198,8.042,2.198,8.042s-1.859,0.167-2.208,0.708S731.167,264.583,731.167,264.583z"/>
	<path fill="#FFFFFF" d="M733.417,260.917c0.687-1.507,1.333-4.583,1.333-4.583s4.37,1.205,6.333,1.292s3.667-0.929,3.667-0.929
		l6.801,4.22c0,0-3.177-0.883-6.489-1.133S733.417,260.917,733.417,260.917z"/>
	<polygon fill="#F3C5CA" points="705.75,267.563 708.25,271 711.5,268.083 711.625,265.25 	"/>
	<path fill="#7FCEEE" d="M711.5,268.083L708.25,271c0,0,4.455,6.993,5.875,9c1.813,2.563,7.125,7.25,9.443,8.712
		c0.951,0.6,2.549,0.301,3.682-0.212c2.023-0.917,3.829-3.649,3.829-3.649s-2.125,11.399-1.981,13.232s-0.191,10.01-0.191,10.01
		s4.57,1.655,8.011,1.656c6.25,0.003,9.319-0.909,11.166-1.917s4.548-3.58,4.548-3.58s-0.297-7.42-0.464-10.92s0.5-14.833,0.5-18
		s2.455-7.521,1.521-10.75c-1.182-4.083-2.138-4.262-5.688-4.958c-6.394-1.255-13.853,0.549-15.083,0.438s-2.421,1.531-2.835,3.315
		c-0.415,1.789,0.105,3.433-0.809,5.956c-2.075,5.726-2.771,9.638-4.023,9.667c-1.813,0.042-6.417-3.063-8.813-6.125
		C714.792,270.133,711.5,268.083,711.5,268.083z"/>
	<path fill="#3C3C3B" d="M745.669,397.873l6.3-3.811L751.875,404h-2.797l-0.297-2.031l-0.76,0.016V404h-6.037l-0.031-2.672
		c0,0,2.078-0.734,2.703-1.313S745.669,397.873,745.669,397.873z"/>
	<polygon fill="#3C3C3B" points="741.953,397.395 739.875,397.395 735.979,403.688 735.688,411.5 735.688,412 736.75,412 
		737.188,409.938 738.82,409.875 738.82,412 741.953,412 	"/>
	<path fill="#7FCEEE" d="M804,400.667l-32.333,18v6.5l33,18.333l30.5-18.583V419.5L804,400.667z M807.083,429.917l-18.25-11.75
		l14.584-8.417l16.75,11.195L807.083,429.917z"/>
	<path fill="#76B1E1" d="M609.25,313.25c-0.26-3.18-1.233-5.253-18.333-14.833c-13.46-7.55-32.75-18-32.75-18
		c1.26,11.88,2.167,22.25,2.167,22.25s21.916,11.917,25.796,14.293c3.443,2.109,2.69,4.17,0.96,14.71
		c-1.06,6.49-34.63,207.86-34.899,209.561l-131.07-75.48l-9.041-5.203c0.354-3.643,1.917-18.888,4.796-35.922
		c3.45-20.412,8.221-47.333,12.781-73.701c4.532-26.208,8.856-51.869,11.469-70.049c2.234-15.549,5.13-33.648,5.584-36.648
		c0.552-3.642,1.624-7.393,6.333-4.398c2.064,1.313,23.208,13.921,23.208,13.921c0.678-3.585,7.197-11.827,8.323-12.676
		c1.948-1.469,1.349-2.577,0.552-3.032c-0.929-0.531-32.479-19.542-41-24.042c-2.182-1.152-4.432-0.977-5.372-0.704
		c-6.333,1.833-7.087,7.704-7.087,14.454c0,0,7.125,2.609,8.589,6.341c0.347,0.884,1.161,2.227,0.882,4.159
		c-1.825,12.656-7.263,43.875-7.263,43.875l-12.125,70.5l-6.75,39.5c0,0-7.445,47.177-8.188,52.313
		c-1.085,7.506-3.319,10.479-6.813,8.468s-6.174-3.308-6.174-3.308s-1.436,3.822-1.446,7.212c-0.04,7.311,1.93,11.91,7.18,16
		c9.94,7.75,99.82,58.57,109.94,64.311c10.12,5.76,41.88,25.26,47.88,26.76s9.08-0.55,12.45-3.8c3.38-3.25,4.67-6,4.67-6
		l-15.21-8.76c0,0,10.46-67.07,12.96-81.32s14.75-91.12,18-108.38c3.25-17.24,3.909-22.744,4.086-24.503
		c0.497-4.95,4.217-5.854,7.831-3.923c1.899,1.015,7.208,3.431,7.208,3.431S609.88,320.67,609.25,313.25z"/>
	<path fill="#5464AC" d="M612.334,312.25c-0.91-5.5-3.734-7.86-8.544-11c-1.987-1.305-9.764-5.725-18.956-10.875
		c-9.635-5.398-19.8-11.25-25.209-14.25c-1.893-1.05-2.533-2.407-3.708-7.125C551.25,250.25,531.5,233,501,235.5
		c-6.728,0.551-9.875,1.375-11.5,0.125c-1.35-1.039-32.073-18.695-36.553-21.085c-5-2.67-8.697-2.709-13.447-1.24
		c0,0,2.032-0.357,4,0.638c4.702,2.378,6.43,3.426,12.47,7.033c5.298,3.174,23.212,13.592,29.263,17.108
		c1.269,0.737,1.326,1.618,0.283,2.491c-1.802,1.507-4.658,4.287-6.834,8.24c-3.488,6.333-5.335,11.804-5.805,16.454
		c-0.68,6.68,1.29,6.487,10.624,11.487c21.055,11.279,67.332,36.812,68.75,37.417c11.334,4.833,11-15.167,10-21.833
		c-0.634-4.227-1.104-6.395-1.667-8.083c-0.729-2.19-0.146-2.914,1.667-1.917c2.162,1.188,5.455,3.249,10.22,5.876
		c8.761,4.82,17.58,10.25,24.61,14.08c7.43,4.04,11.34,7.04,11.8,13.36c0.271,3.66-0.505,14.288-0.505,14.288l3.625,2.125
		C612,332.063,613.284,317.99,612.334,312.25z M524.53,278.68c-4.32,1.92-9.79-0.97-12.22-6.45s-0.9-11.48,3.42-13.39
		c4.31-1.92,9.779,0.97,12.21,6.46C530.37,270.78,528.84,276.77,524.53,278.68z"/>
	<path fill="#F3C5CA" d="M591.834,218.083c1.366,2.337,1.583,4.708,5.873,5.417c1.617,0.267,5.253-0.958,5.794-1.417
		s0.726-2.167-0.096-3.5s-3.154-4-4.321-4.583s-2.276-0.868-2.276-0.868s-1.058,1.034-1.891,1.868S591.834,218.083,591.834,218.083z
		"/>
	<polygon fill="#706F6F" points="604.131,219.788 614,226 615,213.5 613.959,213.125 604.072,218.905 	"/>
	<polygon fill="#4A5BA5" points="771.667,420.945 771.667,425.334 804.667,443.5 835.167,424.917 835.167,420.563 804.625,439.438 	
		"/>
	<polygon fill="#D28B2C" points="741.875,498.195 741.875,502.584 774.875,520.75 805.375,502.167 805.375,497.813 774.833,516.688 
			"/>
	<polygon fill="#4A5BA5" points="611.125,360.375 609.375,371 710.834,429.833 712.625,418.125 	"/>
	<g>
		<polygon fill="none" stroke="#478C33" stroke-miterlimit="10" points="331.941,607.258 358.608,621.924 386.274,606.424 
			358.857,590.425 		"/>
		<line fill="none" stroke="#478C33" stroke-miterlimit="10" x1="331.941" y1="607.258" x2="331.941" y2="637.672"/>
		<line fill="none" stroke="#478C33" stroke-miterlimit="10" x1="331.667" y1="637.191" x2="359.566" y2="654.566"/>
		<polyline fill="none" stroke="#478C33" stroke-miterlimit="10" points="386.274,606.424 386.274,638.091 359.211,654.191 		"/>
		<line fill="none" stroke="#478C33" stroke-miterlimit="10" x1="358.608" y1="621.924" x2="358.608" y2="653.97"/>
		<g>
			<g>
				<line fill="none" stroke="#478C33" stroke-miterlimit="10" x1="358.608" y1="621.924" x2="357.751" y2="622.439"/>
				
					<line fill="none" stroke="#478C33" stroke-miterlimit="10" stroke-dasharray="1.9549,0.5865" x1="357.249" y1="622.742" x2="333.547" y2="637.005"/>
				<line fill="none" stroke="#478C33" stroke-miterlimit="10" x1="333.296" y1="637.156" x2="332.439" y2="637.672"/>
			</g>
		</g>
		<g>
			<g>
				<line fill="none" stroke="#478C33" stroke-miterlimit="10" x1="385.97" y1="637.672" x2="385.104" y2="637.173"/>
				
					<line fill="none" stroke="#478C33" stroke-miterlimit="10" stroke-dasharray="1.9858,0.5957" x1="384.587" y1="636.876" x2="360.232" y2="622.863"/>
				<line fill="none" stroke="#478C33" stroke-miterlimit="10" x1="359.974" y1="622.715" x2="359.107" y2="622.216"/>
			</g>
		</g>
		<g>
			<g>
				<line fill="none" stroke="#478C33" stroke-miterlimit="10" x1="358.608" y1="621.924" x2="358.616" y2="620.924"/>
				
					<line fill="none" stroke="#478C33" stroke-miterlimit="10" stroke-dasharray="2.0205,0.6062" x1="358.621" y1="620.317" x2="358.847" y2="591.728"/>
				<line fill="none" stroke="#478C33" stroke-miterlimit="10" x1="358.849" y1="591.425" x2="358.857" y2="590.425"/>
			</g>
		</g>
	</g>
	<polygon fill="#83C0EA" points="143.5,462.938 156.125,470.229 167.875,463.417 156.125,455.875 	"/>
	<path fill="#3C3C3B" d="M289.125,598.25c-1.125-0.125-1.938,1.438-1.938,2.938c0,5.111,0.169,9.628,3.65,13.733
		c0.921,1.087,3.412,1.392,3.787-0.921c0.381-2.352,0.188-5.063,0.188-5.063l-0.625-0.719c0,0,0.001,1.171-0.125,2.031
		c-0.227,1.55-2.688,1.25-3.563-0.375S289.125,598.25,289.125,598.25z"/>
	<path fill="#3C3C3B" d="M303.815,595.765c-1.132,0.026-0.888,1.499-0.687,2.985c0.684,5.065,1.774,8.869,5.773,12.472
		c1.058,0.953,3.418,0.913,3.629-1.42c0.282-3.114-1.208-5.671-1.208-5.671s0.158,1.16,0.148,2.03
		c-0.018,1.565-2.496,1.599-3.581,0.104C306.806,604.772,303.815,595.765,303.815,595.765z"/>
	<path fill="#7FCEEE" d="M267.815,488.496c-6.44,1.379-8.788,2.629-8.565,5.004c0.14,1.493-0.5,25.125,0,27.25s5.25,7.375,7.5,8.75
		s6,3.708,6,3.708s1.037-2.707,4.958-2.416c0.542,0.04-2.484-2.858-5.208-4.917c-4.516-3.412-7.25-10.75-6.875-15.75
		s1.5-10.125,1.5-10.125L267.815,488.496z"/>
	<path fill="#7FCEEE" d="M281.958,492.458c-0.08,1.497,1.917,27.5,2.417,29.625s3.25,6.209,5.5,7.584s2.917,1.791,2.917,1.791
		s5.917-2.875,5.833-3.458c-0.077-0.537-1.708,0.251-5.458-3.333c-2.006-1.917-3.05-5.1-4.083-8.25c-1.074-3.275-1.708-5.958-2-9.5
		c-0.589-7.155-0.321-12.343-1.083-16.209c-0.583-2.958-5.992-3.459-5.875-3.333C281.125,488.458,282.167,488.542,281.958,492.458z"
		/>
	<polygon fill="#FFFFFF" points="267.438,488.496 273.375,496.25 274.75,493.125 269.125,487.875 	"/>
	<path fill="#FFFFFF" d="M274.75,493.125l3.313,0.625v-6.625h-1.656c0,0-0.115,2.375-0.521,3.188S274.75,493.125,274.75,493.125z"/>
	<path fill="#5A5770" d="M259.056,533.669c-2.056,3.333-3.889,6.999-2.389,11.666s6.875,7.334,10.771,9.334
		s13.007,6.442,13.007,6.442s0.285-3.069,1.68-5.236c0.359-0.559,2.358-3.279,2.358-3.279s-13.59-6.761-14.183-7.971l8.029-6
		l-2.012-1.911c-0.795-0.166-6.178-0.118-10.034-0.521C263.628,535.915,259.056,533.669,259.056,533.669z"/>
	<path fill="#F3C5CA" d="M272.75,472.5c-1.625-0.75-5.403-0.999-4.408,1.125s0.445,2.889,0.533,4
		c0.053,0.668,0.455,4.118,0.375,5.813c-0.059,1.25-0.125,4.438-0.125,4.438l5.625,5.25c0,0,1.059-1.063,1.656-3.042
		c0.543-1.799,0.077-4.692,0.648-5.263s1.235-0.131,2.106-0.047c2.34,0.227,3.025-0.016,3.34-0.398
		c0.925-1.127,2.913-3.002,3.163-6.502s1.852-5.125,2.293-8.349s-0.331-2.865-2.081-2.774c-3.531,0.184-4.292,0.25-7.896,2.75
		S272.75,472.5,272.75,472.5z"/>
	<path fill="#4A4A49" d="M269.573,481.479c-4.75-2.25-5.636-4.541-5.761-6.916s-2.25-3.517,0.125-6.938
		c1.563-2.25,2.559-0.504,5.363-4.783c4.074-6.217,12.887-4.154,15.137-1.654s2.483,2.404,3.625,4.375
		c0.692,1.194-0.106,3.962-0.106,3.962s-0.769-3.899-4.519-0.087c-1.246,1.267-2.438,1.563-5.313,3.438
		c-2.532,1.651-5.188,1.125-6.563,0s-2.813-0.625-2.688,1s0.938,2.563,0.938,3.563S269.573,481.479,269.573,481.479z"/>
	<polygon fill="#F0B93F" points="198.875,485.125 211.5,478.5 211.5,530.501 198.875,536.375 	"/>
	<polygon fill="#EFD46B" points="187.167,478.125 198.875,485.125 211.5,478.5 199.333,472 	"/>
	<polygon fill="#F7D88F" points="187.167,478.125 186.708,503.084 190.932,504.665 190.875,532.563 198.875,536 198.875,485.125 	
		"/>
	<polygon fill="#BFC6D7" points="167.875,463.375 167.875,468.167 176.667,472.304 187.917,465.167 176.667,458.744 	"/>
	<polygon fill="#A8BAC2" points="176.667,472.304 176.667,498.25 187.125,503.251 187.167,478.125 187.894,477.758 187.917,465.167 
			"/>
	<polygon fill="#D7D8DC" points="167.875,468.167 176.667,472.304 176.667,498.25 167.875,504.209 	"/>
	<polygon fill="#DE5A78" points="166.023,505.224 166.023,540.438 178.958,548.5 178.958,511.547 	"/>
	<polygon fill="#BC4C4C" points="178.958,511.559 190.932,504.677 190.902,542.096 178.958,548.512 	"/>
	<polygon fill="#B2B2B2" points="123.125,526.125 123.125,531.875 177.25,563.375 176.938,557.25 	"/>
	<polygon fill="#C6C6C6" points="176.938,557.25 232,525.813 232,531.563 177.25,563.375 	"/>
	<polyline fill="#429FD9" points="155.813,534.313 156.125,470.042 167.875,463.417 167.938,504.078 166.023,505.224 
		166.083,530.458 155.813,534.417 	"/>
	<polygon fill="#DC4663" points="166.023,505.221 176.667,498.247 190.932,504.662 178.958,511.544 	"/>
	<polygon fill="#EDEDED" points="267.438,544.75 283.688,553 288.905,549.019 303.438,538.415 289.875,532.127 	"/>
	<polygon fill="#B2B2B2" points="280.5,536.25 283.688,553 308,539.5 305.75,523.5 	"/>
	<path fill="#E4EAEE" d="M730.333,442.333c5.842,3.334,60.268,34.47,78.917,45.167c24.625,14.125,41.25,23.75,66,38.25
		c6.833,4.003,5.068,6.359,5.068,6.359L874,534.418l-145.499-82.334L730.333,442.333z"/>
	<polygon fill="#D6DDE0" points="728.501,451.167 714.667,539.667 760.333,510.667 743.902,499.333 774.833,479.834 
		776.167,478.834 	"/>
	<path fill="#3C3C3B" d="M885.92,521.58c0,0,2.04,0.939,4.78,2.47l-0.2,0.2L885.92,521.58z"/>
	<path fill="#D6DDE0" d="M713.083,547.333l1.146,0.926l91.522-52.461c0,0,61.395,34.74,64.057,36.247
		c3.211,1.817,5.252,4.306,1.252,7.056c-2.165,1.488-163.56,95.149-163.56,95.149l-6.917-11.475l1.584-9.858L713.083,547.333z"/>
	<g>
		<polygon fill="none" stroke="#5C79BB" stroke-miterlimit="10" points="732.099,544.382 758.766,559.048 786.432,543.548 
			759.015,527.549 		"/>
		<line fill="none" stroke="#5C79BB" stroke-miterlimit="10" x1="732.099" y1="544.382" x2="732.099" y2="574.796"/>
		<line fill="none" stroke="#5C79BB" stroke-miterlimit="10" x1="731.825" y1="574.315" x2="759.724" y2="591.69"/>
		<polyline fill="none" stroke="#5C79BB" stroke-miterlimit="10" points="786.432,543.548 786.432,575.215 759.369,591.315 		"/>
		<line fill="none" stroke="#5C79BB" stroke-miterlimit="10" x1="758.766" y1="559.048" x2="758.766" y2="591.094"/>
		<g>
			<g>
				<line fill="none" stroke="#5C79BB" stroke-miterlimit="10" x1="758.766" y1="559.048" x2="757.909" y2="559.563"/>
				
					<line fill="none" stroke="#5C79BB" stroke-miterlimit="10" stroke-dasharray="1.9549,0.5865" x1="757.406" y1="559.866" x2="733.705" y2="574.129"/>
				<line fill="none" stroke="#5C79BB" stroke-miterlimit="10" x1="733.453" y1="574.28" x2="732.597" y2="574.796"/>
			</g>
		</g>
		<g>
			<g>
				<line fill="none" stroke="#5C79BB" stroke-miterlimit="10" x1="786.128" y1="574.796" x2="785.261" y2="574.297"/>
				
					<line fill="none" stroke="#5C79BB" stroke-miterlimit="10" stroke-dasharray="1.9858,0.5957" x1="784.745" y1="574" x2="760.39" y2="559.987"/>
				<line fill="none" stroke="#5C79BB" stroke-miterlimit="10" x1="760.132" y1="559.839" x2="759.265" y2="559.34"/>
			</g>
		</g>
		<g>
			<g>
				<line fill="none" stroke="#5C79BB" stroke-miterlimit="10" x1="758.766" y1="559.048" x2="758.773" y2="558.048"/>
				
					<line fill="none" stroke="#5C79BB" stroke-miterlimit="10" stroke-dasharray="2.0206,0.6062" x1="758.778" y1="557.441" x2="759.004" y2="528.852"/>
				<line fill="none" stroke="#5C79BB" stroke-miterlimit="10" x1="759.007" y1="528.549" x2="759.015" y2="527.549"/>
			</g>
		</g>
	</g>
	<g>
		<polygon fill="none" stroke="#DB5197" stroke-miterlimit="10" points="179.163,351.585 205.83,366.251 233.496,350.751 
			206.079,334.752 		"/>
		<line fill="none" stroke="#DB5197" stroke-miterlimit="10" x1="179.163" y1="351.585" x2="179.163" y2="382"/>
		<line fill="none" stroke="#DB5197" stroke-miterlimit="10" x1="178.889" y1="381.519" x2="206.788" y2="398.894"/>
		<polyline fill="none" stroke="#DB5197" stroke-miterlimit="10" points="233.496,350.751 233.496,382.418 206.433,398.519 		"/>
		<line fill="none" stroke="#DB5197" stroke-miterlimit="10" x1="205.83" y1="366.251" x2="205.83" y2="398.297"/>
		<g>
			<g>
				<line fill="none" stroke="#DB5197" stroke-miterlimit="10" x1="205.83" y1="366.251" x2="204.973" y2="366.767"/>
				
					<line fill="none" stroke="#DB5197" stroke-miterlimit="10" stroke-dasharray="1.9549,0.5865" x1="204.47" y1="367.069" x2="180.769" y2="381.333"/>
				<line fill="none" stroke="#DB5197" stroke-miterlimit="10" x1="180.518" y1="381.484" x2="179.661" y2="382"/>
			</g>
		</g>
		<g>
			<g>
				<line fill="none" stroke="#DB5197" stroke-miterlimit="10" x1="233.192" y1="382" x2="232.325" y2="381.501"/>
				
					<line fill="none" stroke="#DB5197" stroke-miterlimit="10" stroke-dasharray="1.9858,0.5957" x1="231.809" y1="381.204" x2="207.454" y2="367.191"/>
				<line fill="none" stroke="#DB5197" stroke-miterlimit="10" x1="207.195" y1="367.042" x2="206.329" y2="366.543"/>
			</g>
		</g>
		<g>
			<g>
				<line fill="none" stroke="#DB5197" stroke-miterlimit="10" x1="205.83" y1="366.251" x2="205.837" y2="365.251"/>
				
					<line fill="none" stroke="#DB5197" stroke-miterlimit="10" stroke-dasharray="2.0206,0.6062" x1="205.842" y1="364.646" x2="206.068" y2="336.056"/>
				<line fill="none" stroke="#DB5197" stroke-miterlimit="10" x1="206.071" y1="335.752" x2="206.079" y2="334.752"/>
			</g>
		</g>
	</g>
	<path fill="#EDA91A" d="M774.208,477.916l-32.333,18v6.501l32.959,19.166l30.917-19.666v-6.119L774.208,477.916z M777.291,507.167
		l-18.25-11.75L773.625,487l16.75,11.195L777.291,507.167z"/>
	<path fill="#FCEA10" d="M774.208,477.916l-32.333,18l32.376,18.917l31.5-19.035L774.208,477.916z M776.125,506.25l-17.084-10.833
		L773.625,487l16.75,11.195L776.125,506.25z"/>
	<g>
		<path fill="#BE3E59" d="M509.791,665.25l-32.333,18v6.501l32.959,19.166l30.917-19.666v-6.119L509.791,665.25z M512.874,694.501
			l-18.25-11.75l14.584-8.417l16.75,11.195L512.874,694.501z"/>
		<path fill="#DB4B69" d="M509.791,665.25l-32.333,18l32.376,18.917l31.5-19.035L509.791,665.25z M511.708,693.584l-17.084-10.833
			l14.584-8.417l16.75,11.195L511.708,693.584z"/>
	</g>
	<path fill="none" stroke="#D6DDE0" stroke-miterlimit="10" d="M561.269,546.467C564.022,548.063,663.183,609.672,687,617
		c16.25,5,16.484-7.172,17.5-13.75c0.236-1.531,4.219-26.101,9.252-57.482c7.032-43.855,16.117-101.015,19.898-127.199
		c0.559-3.866,0.992-5.286,1.351-7.651c0.833-5.5,1.332-7.917-6.168-12.25c-20.282-11.718-103.82-59.787-126.666-71.473
		c-2.005-1.025-7.045-0.786-7.702,3.05c-0.607,3.546-30.158,184.38-34.615,211.648C559.486,544.118,559.29,545.32,561.269,546.467z"
		/>
	<path fill="none" stroke="#D6DDE0" stroke-miterlimit="10" d="M271.249,379c2.754,1.596,106.807,62.097,128.751,73.905
		c5.013,2.697,5.743-3.804,6.5-8.155c0.691-3.975,28.437-172.615,34.11-202.431c0.75-3.945,1.723-8.998-5.108-12.735
		c-18.643-10.2-114.557-66.87-126.252-73.095c-4.951-2.635-7.851-0.159-8.508,3.677C297.858,177.006,268.128,352.006,265.91,366
		C264.827,372.837,269.27,377.854,271.249,379z"/>
	<path fill="#72A8D9" d="M403.955,241.723c-0.469,0.846-1.535,1.151-2.381,0.682l-82.109-45.507
		c-0.846-0.47-1.152-1.536-0.683-2.382l0,0c0.469-0.846,1.535-1.152,2.381-0.682l82.109,45.507
		C404.118,239.811,404.424,240.876,403.955,241.723L403.955,241.723z"/>
	<path fill="#4F5EA7" d="M404.608,303.722c-0.621,1.073-1.757,1.578-2.539,1.126l-75.817-43.807
		c-0.781-0.452-0.912-1.688-0.291-2.763l0,0c0.621-1.074,1.757-1.579,2.539-1.127l75.817,43.808
		C405.098,301.411,405.229,302.646,404.608,303.722L404.608,303.722z"/>
	<path fill="#4F5EA7" d="M383.852,304.571c-0.621,1.074-1.622,1.657-2.237,1.301l-59.658-34.47c-0.614-0.356-0.61-1.514,0.011-2.589
		l0,0c0.621-1.074,1.622-1.657,2.237-1.301l59.658,34.471C384.478,302.338,384.474,303.495,383.852,304.571L383.852,304.571z"/>
	<path fill="#4F5EA7" d="M405.394,266.151c-0.64,1.105-1.762,1.653-2.507,1.221l-72.37-41.815c-0.745-0.432-0.833-1.677-0.193-2.783
		l0,0c0.639-1.106,1.762-1.653,2.507-1.222l72.37,41.816C405.946,263.799,406.034,265.044,405.394,266.151L405.394,266.151z"/>
	<path fill="#4F5EA7" d="M394.093,272.681c-0.64,1.105-1.686,1.697-2.337,1.32l-63.244-36.542c-0.651-0.377-0.662-1.579-0.022-2.685
		l0,0c0.639-1.106,1.686-1.697,2.337-1.32l63.243,36.543C394.722,270.373,394.733,271.573,394.093,272.681L394.093,272.681z"/>
	<path fill="#4F5EA7" d="M399.911,288.032c-0.64,1.105-1.744,1.663-2.468,1.244l-70.298-40.618
		c-0.724-0.419-0.794-1.655-0.154-2.761l0,0c0.639-1.106,1.745-1.663,2.469-1.244l70.298,40.619
		C400.481,285.69,400.551,286.924,399.911,288.032L399.911,288.032z"/>
	<path fill="#F3C5CA" d="M272.75,533.208c-0.137,0.625,0.576,3.584,2,4.431c1.75,1.041,6.419,1.511,6.749,0.361
		c0.334-1.167,1.292-1.208,1.501-2s0.333-0.352,0-1.238s-2.181-0.158-3.215-1.835s-2.076-2.135-2.076-2.135
		S273.53,529.656,272.75,533.208z"/>
	<ellipse fill="#494A5A" cx="265.742" cy="314.75" rx="6.583" ry="3.917"/>
	<polyline fill="#706F6F" points="275,544.25 281.417,540.958 282.875,548.583 	"/>
	<g>
		<g id="XMLID_74_">
			<g>
				<path fill="#E9515B" d="M699.181,234.35c-0.613,0.212-0.94,0.882-0.729,1.496l0.492,1.425l2.225-0.767
					c0,0-0.392-1.131-0.491-1.425C700.465,234.465,699.795,234.139,699.181,234.35z M699.785,236.1
					c-0.346,0.119-0.722-0.063-0.84-0.408c-0.119-0.345,0.064-0.721,0.409-0.839c0.344-0.119,0.719,0.064,0.838,0.409
					C700.311,235.606,700.129,235.982,699.785,236.1z"/>
			</g>
		</g>
		<g id="XMLID_82_" opacity="0.45">
			<g>
				<path fill="#B13E45" d="M700.192,235.262c-0.119-0.345-0.494-0.528-0.838-0.409c-0.033,0.011-0.063,0.027-0.092,0.042
					c0.082-0.069,0.078-0.095,0.233-0.148c0.344-0.119,0.72,0.064,0.839,0.408c0.107,0.313,0.006,0.537-0.213,0.682
					C700.215,235.677,700.258,235.452,700.192,235.262z M699.233,237.012l-0.49-1.425c-0.134-0.387-0.083-0.785,0.148-1.087
					c-0.421,0.293-0.615,0.838-0.44,1.346l0.492,1.425l2.225-0.767c0,0-0.02-0.055-0.05-0.142L699.233,237.012z"/>
			</g>
		</g>
		<path fill="#4189C9" d="M719.479,263.427l-18.786,6.477c-0.601,0.207-1.254-0.111-1.46-0.71l-9.468-27.461
			c-0.206-0.599,0.111-1.253,0.711-1.459l18.787-6.477c0.599-0.207,1.252,0.112,1.459,0.711l9.469,27.461
			C720.397,262.567,720.079,263.221,719.479,263.427z"/>
		
			<rect id="XMLID_67_" x="695.179" y="237.408" transform="matrix(0.9454 -0.326 0.326 0.9454 -43.5898 243.554)" fill="#C4E7F9" width="19.598" height="28.884"/>
		
			<rect x="695.932" y="238.291" transform="matrix(0.9454 -0.3259 0.3259 0.9454 -43.5896 243.5239)" fill="#FFFFFF" width="18.091" height="27.119"/>
		<path id="XMLID_198_" fill="#E9515B" d="M706.779,235.202l0.384,1.113l-13.48,4.648l-0.385-1.113
			c-0.027-0.082-0.042-0.164-0.043-0.246c-0.012-0.353,0.206-0.686,0.556-0.806l11.917-4.109
			C706.16,234.54,706.63,234.769,706.779,235.202z"/>
		<path id="XMLID_195_" opacity="0.45" fill="#B13E45" d="M707.068,236.037l0.095,0.278l-13.48,4.648l-0.278-0.806
			c-0.075-0.216-0.124-0.399-0.149-0.553c-0.012-0.353,0.206-0.686,0.556-0.806l0.096-0.033c-0.138,0.27-0.184,0.624-0.076,0.934
			l0.277,0.807L707.068,236.037z"/>
		<g>
			<g id="XMLID_87_">
				<g id="XMLID_88_" opacity="0.15">
					
						<line id="XMLID_89_" fill="none" stroke="#1265AF" stroke-width="0.3677" stroke-linecap="round" stroke-linejoin="round" stroke-miterlimit="10" x1="697.689" y1="243.07" x2="700.467" y2="242.112"/>
					
						<line id="XMLID_90_" fill="none" stroke="#1265AF" stroke-width="0.3677" stroke-linecap="round" stroke-linejoin="round" stroke-miterlimit="10" x1="707.007" y1="240.848" x2="709.119" y2="240.12"/>
					
						<line id="XMLID_91_" fill="none" stroke="#1265AF" stroke-width="0.3677" stroke-linecap="round" stroke-linejoin="round" stroke-miterlimit="10" x1="697.995" y1="243.956" x2="706.093" y2="241.164"/>
					
						<line id="XMLID_92_" fill="none" stroke="#1265AF" stroke-width="0.3677" stroke-linecap="round" stroke-linejoin="round" stroke-miterlimit="10" x1="698.301" y1="244.842" x2="709.425" y2="241.006"/>
					
						<line id="XMLID_93_" fill="none" stroke="#1265AF" stroke-width="0.3677" stroke-linecap="round" stroke-linejoin="round" stroke-miterlimit="10" x1="706.195" y1="243.11" x2="709.73" y2="241.892"/>
					
						<line id="XMLID_94_" fill="none" stroke="#1265AF" stroke-width="0.3677" stroke-linecap="round" stroke-linejoin="round" stroke-miterlimit="10" x1="698.605" y1="245.728" x2="705.314" y2="243.414"/>
					
						<line id="XMLID_95_" fill="none" stroke="#1265AF" stroke-width="0.3677" stroke-linecap="round" stroke-linejoin="round" stroke-miterlimit="10" x1="701.38" y1="241.797" x2="708.813" y2="239.234"/>
				</g>
			</g>
			<g id="XMLID_96_">
				<g id="XMLID_97_" opacity="0.15">
					
						<line id="XMLID_98_" fill="none" stroke="#1265AF" stroke-width="0.3677" stroke-linecap="round" stroke-linejoin="round" stroke-miterlimit="10" x1="699.885" y1="249.437" x2="702.663" y2="248.479"/>
					
						<line id="XMLID_99_" fill="none" stroke="#1265AF" stroke-width="0.3677" stroke-linecap="round" stroke-linejoin="round" stroke-miterlimit="10" x1="709.202" y1="247.215" x2="711.314" y2="246.487"/>
					
						<line id="XMLID_100_" fill="none" stroke="#1265AF" stroke-width="0.3677" stroke-linecap="round" stroke-linejoin="round" stroke-miterlimit="10" x1="700.19" y1="250.322" x2="708.287" y2="247.531"/>
					
						<line id="XMLID_101_" fill="none" stroke="#1265AF" stroke-width="0.3677" stroke-linecap="round" stroke-linejoin="round" stroke-miterlimit="10" x1="700.496" y1="251.208" x2="711.621" y2="247.373"/>
					
						<line id="XMLID_102_" fill="none" stroke="#1265AF" stroke-width="0.3677" stroke-linecap="round" stroke-linejoin="round" stroke-miterlimit="10" x1="708.39" y1="249.477" x2="711.926" y2="248.258"/>
					
						<line id="XMLID_103_" fill="none" stroke="#1265AF" stroke-width="0.3677" stroke-linecap="round" stroke-linejoin="round" stroke-miterlimit="10" x1="700.801" y1="252.094" x2="707.51" y2="249.781"/>
					
						<line id="XMLID_104_" fill="none" stroke="#1265AF" stroke-width="0.3677" stroke-linecap="round" stroke-linejoin="round" stroke-miterlimit="10" x1="703.574" y1="248.165" x2="711.01" y2="245.602"/>
				</g>
			</g>
			<g id="XMLID_105_">
				<g id="XMLID_106_" opacity="0.15">
					
						<line id="XMLID_107_" fill="none" stroke="#1265AF" stroke-width="0.3677" stroke-linecap="round" stroke-linejoin="round" stroke-miterlimit="10" x1="702.003" y1="255.581" x2="704.781" y2="254.623"/>
					
						<line id="XMLID_108_" fill="none" stroke="#1265AF" stroke-width="0.3677" stroke-linecap="round" stroke-linejoin="round" stroke-miterlimit="10" x1="711.321" y1="253.359" x2="713.434" y2="252.631"/>
					
						<line id="XMLID_109_" fill="none" stroke="#1265AF" stroke-width="0.3677" stroke-linecap="round" stroke-linejoin="round" stroke-miterlimit="10" x1="702.309" y1="256.467" x2="710.406" y2="253.675"/>
					
						<line id="XMLID_110_" fill="none" stroke="#1265AF" stroke-width="0.3677" stroke-linecap="round" stroke-linejoin="round" stroke-miterlimit="10" x1="702.614" y1="257.353" x2="713.738" y2="253.517"/>
					
						<line id="XMLID_111_" fill="none" stroke="#1265AF" stroke-width="0.3677" stroke-linecap="round" stroke-linejoin="round" stroke-miterlimit="10" x1="710.509" y1="255.622" x2="714.044" y2="254.403"/>
					
						<line id="XMLID_112_" fill="none" stroke="#1265AF" stroke-width="0.3677" stroke-linecap="round" stroke-linejoin="round" stroke-miterlimit="10" x1="702.92" y1="258.238" x2="709.628" y2="255.926"/>
					
						<line id="XMLID_113_" fill="none" stroke="#1265AF" stroke-width="0.3677" stroke-linecap="round" stroke-linejoin="round" stroke-miterlimit="10" x1="705.694" y1="254.309" x2="713.127" y2="251.746"/>
				</g>
			</g>
			<g id="XMLID_114_">
				<g id="XMLID_115_" opacity="0.15">
					
						<line id="XMLID_116_" fill="none" stroke="#1265AF" stroke-width="0.3677" stroke-linecap="round" stroke-linejoin="round" stroke-miterlimit="10" x1="704.161" y1="261.837" x2="706.938" y2="260.879"/>
					
						<line id="XMLID_117_" fill="none" stroke="#1265AF" stroke-width="0.3677" stroke-linecap="round" stroke-linejoin="round" stroke-miterlimit="10" x1="713.479" y1="259.615" x2="715.591" y2="258.887"/>
					
						<line id="XMLID_118_" fill="none" stroke="#1265AF" stroke-width="0.3677" stroke-linecap="round" stroke-linejoin="round" stroke-miterlimit="10" x1="704.466" y1="262.723" x2="712.563" y2="259.931"/>
					
						<line id="XMLID_119_" fill="none" stroke="#1265AF" stroke-width="0.3677" stroke-linecap="round" stroke-linejoin="round" stroke-miterlimit="10" x1="704.771" y1="263.608" x2="715.896" y2="259.772"/>
					
						<line id="XMLID_120_" fill="none" stroke="#1265AF" stroke-width="0.3677" stroke-linecap="round" stroke-linejoin="round" stroke-miterlimit="10" x1="712.665" y1="261.877" x2="716.201" y2="260.658"/>
					
						<line id="XMLID_121_" fill="none" stroke="#1265AF" stroke-width="0.3677" stroke-linecap="round" stroke-linejoin="round" stroke-miterlimit="10" x1="705.076" y1="264.494" x2="711.784" y2="262.181"/>
					
						<line id="XMLID_122_" fill="none" stroke="#1265AF" stroke-width="0.3677" stroke-linecap="round" stroke-linejoin="round" stroke-miterlimit="10" x1="707.85" y1="260.565" x2="715.285" y2="258.001"/>
				</g>
			</g>
			<g id="XMLID_123_">
				<path id="XMLID_124_" fill="none" stroke="#2596B5" stroke-width="0.1363" stroke-miterlimit="10" d="M697.304,245.754
					l-2.078,0.717c-0.131,0.044-0.271-0.024-0.315-0.154l-0.718-2.079c-0.044-0.129,0.025-0.27,0.154-0.315l2.078-0.716
					c0.13-0.044,0.271,0.024,0.315,0.153l0.717,2.079C697.502,245.568,697.433,245.709,697.304,245.754z"/>
				<path id="XMLID_125_" fill="none" stroke="#2596B5" stroke-width="0.1363" stroke-miterlimit="10" d="M699.491,252.1
					l-2.079,0.717c-0.129,0.044-0.271-0.024-0.314-0.154l-0.717-2.079c-0.044-0.129,0.024-0.27,0.153-0.314l2.079-0.717
					c0.129-0.045,0.271,0.023,0.315,0.153l0.717,2.079C699.69,251.914,699.621,252.056,699.491,252.1z"/>
				<path id="XMLID_126_" fill="none" stroke="#2596B5" stroke-width="0.1363" stroke-miterlimit="10" d="M701.68,258.446
					l-2.079,0.717c-0.13,0.045-0.271-0.024-0.314-0.154l-0.717-2.079c-0.044-0.128,0.024-0.27,0.153-0.315l2.079-0.716
					c0.129-0.044,0.271,0.024,0.315,0.153l0.716,2.079C701.878,258.26,701.809,258.402,701.68,258.446z"/>
				<path id="XMLID_127_" fill="none" stroke="#2596B5" stroke-width="0.1363" stroke-miterlimit="10" d="M703.868,264.792
					l-2.079,0.717c-0.129,0.044-0.271-0.024-0.314-0.153l-0.717-2.079c-0.045-0.129,0.024-0.27,0.153-0.315l2.078-0.716
					c0.129-0.045,0.271,0.023,0.315,0.152l0.717,2.079C704.066,264.606,703.997,264.748,703.868,264.792z"/>
				
					<polyline id="XMLID_130_" fill="none" stroke="#F7A630" stroke-width="0.4088" stroke-linecap="round" stroke-linejoin="round" stroke-miterlimit="10" points="
					694.71,244.721 696.07,245.55 696.912,241.999 				"/>
				
					<polyline id="XMLID_133_" fill="none" stroke="#F7A630" stroke-width="0.4088" stroke-linecap="round" stroke-linejoin="round" stroke-miterlimit="10" points="
					696.881,251.015 698.24,251.843 699.082,248.292 				"/>
			</g>
		</g>
	</g>
	<g>
		<g>
			<g>
				<path fill="#E6C825" d="M497.297,444.808c4.311-6.598,4.75-15.846,1.388-24.834c-1.451-3.877-3.608-7.708-6.465-11.26
					c-8.877-11.028-21.836-16.03-32.105-13.337c-2.658,0.693-5.132,1.904-7.308,3.656c-8.608,6.927-9.921,20.217-4.116,32.4
					c1.34,2.812,3.058,5.563,5.153,8.167c2.997,3.724,6.458,6.766,10.126,9.044c10.003,6.234,21.532,6.881,29.285,0.643
					C494.855,447.998,496.207,446.489,497.297,444.808z M468.63,435.664c-1.694-1.067-3.291-2.477-4.677-4.198
					c-0.992-1.233-1.804-2.54-2.432-3.867c-0.044-0.088-0.085-0.177-0.127-0.266c-2.602-5.693-1.94-11.839,2.066-15.066
					c1.033-0.83,2.203-1.399,3.462-1.726c4.858-1.277,10.992,1.093,15.189,6.309c1.237,1.536,2.194,3.183,2.875,4.855
					c1.724,4.246,1.647,8.665-0.264,11.877c-0.552,0.937-1.261,1.766-2.127,2.462C478.9,439.018,473.384,438.686,468.63,435.664z"/>
			</g>
		</g>
		<path fill="none" d="M492.219,408.713c-11.169-13.879-28.815-18.212-39.411-9.685c-10.599,8.532-10.135,26.693,1.034,40.572
			c11.169,13.877,28.813,18.214,39.411,9.683C503.852,440.756,503.389,422.588,492.219,408.713z M463.951,431.465
			c-5.285-6.566-5.504-15.16-0.49-19.197c5.017-4.038,13.364-1.984,18.65,4.581c5.284,6.566,5.502,15.162,0.489,19.199
			C477.585,440.081,469.236,438.032,463.951,431.465z"/>
		<path fill="#DC4A75" d="M497.297,444.808l-12.576-11.225c1.911-3.212,1.987-7.631,0.264-11.877l13.7-1.732
			C502.047,428.962,501.608,438.21,497.297,444.808z"/>
		<path fill="#D9DBD6" d="M493.255,449.286c-7.753,6.238-19.281,5.592-29.285-0.643c1.417-3.957,3.115-8.682,4.66-12.979
			c4.754,3.021,10.27,3.354,13.964,0.381c0.866-0.696,1.575-1.525,2.127-2.462l12.576,11.225
			C496.207,446.489,494.855,447.998,493.255,449.286z"/>
		<path fill="#4A5BA5" d="M463.971,448.644c-3.667-2.278-7.129-5.32-10.126-9.044c-2.096-2.604-3.813-5.355-5.153-8.167l12.702-4.1
			c0.647,1.419,1.501,2.817,2.56,4.133c1.386,1.722,2.983,3.131,4.677,4.198L463.971,448.644z"/>
		<path fill="#6BB4E5" d="M461.521,427.599l-12.83,3.834c-5.805-12.184-4.493-25.473,4.116-32.4c2.176-1.752,4.65-2.963,7.308-3.656
			l6.807,15.166c-1.259,0.327-2.429,0.896-3.462,1.726c-4.007,3.227-4.668,9.373-2.066,15.066
			C461.436,427.422,461.477,427.511,461.521,427.599z"/>
	</g>
	<g>
		<polygon fill="#E6C825" points="513.45,422.596 512.649,430.053 520.032,435.058 520.854,427.413 		"/>
		<polygon fill="#DC4A75" points="510.827,435.286 510.026,442.744 517.409,447.748 518.23,440.104 		"/>
		<polygon fill="#D9DBD6" points="508.378,448.718 507.578,456.176 514.961,461.181 515.781,453.536 		"/>
		<polygon fill="#6BB4E5" points="505.976,461.822 505.174,469.279 512.558,474.283 513.379,466.641 		"/>
	</g>
</g>
<g id="Warstwa_3">
	<line fill="#429FD9" x1="143.5" y1="462.938" x2="156.125" y2="470.042"/>
	<polygon fill="#36A9E1" points="143.5,462.938 156.125,470.042 155.813,534.417 143.5,528.688 	"/>
</g>
<g id="Warstwa_6">
	<polygon fill="none" stroke="#DADADA" stroke-miterlimit="10" points="689.25,494.75 606.25,447.5 616.5,385.25 698,432.75 	"/>
	<line fill="none" stroke="#DADADA" stroke-miterlimit="10" x1="627.333" y1="391.5" x2="618.167" y2="453.834"/>
	<line fill="none" stroke="#DADADA" stroke-miterlimit="10" x1="639.667" y1="398.667" x2="630.667" y2="460.834"/>
	<line fill="none" stroke="#DADADA" stroke-miterlimit="10" x1="651.667" y1="405.5" x2="642.667" y2="467.834"/>
	<line fill="none" stroke="#DADADA" stroke-miterlimit="10" x1="663.5" y1="412.833" x2="654.501" y2="475.834"/>
	<line fill="none" stroke="#DADADA" stroke-miterlimit="10" x1="686.834" y1="426.334" x2="677.833" y2="488"/>
	<line fill="none" stroke="#DADADA" stroke-miterlimit="10" x1="674.833" y1="419" x2="666.168" y2="481.001"/>
	<line fill="none" stroke="#DADADA" stroke-miterlimit="10" x1="614.667" y1="398.833" x2="695.667" y2="445.334"/>
	<line fill="none" stroke="#DADADA" stroke-miterlimit="10" x1="612.917" y1="410.833" x2="693.917" y2="457.334"/>
	<line fill="none" stroke="#DADADA" stroke-miterlimit="10" x1="610.167" y1="422.584" x2="692.5" y2="469.667"/>
	
		<line fill="none" stroke="#DADADA" stroke-width="1.0265" stroke-miterlimit="10" x1="608.667" y1="435.584" x2="691.5" y2="483.5"/>
	<polygon fill="#E6C825" points="658.334,449.833 646.334,443.167 647.834,430.833 659.834,437.5 	"/>
	<polygon fill="#E6C825" points="691,482.667 679.667,476.5 681.334,463.5 692.5,470 	"/>
	<polygon fill="#6BB1E2" points="695.833,445.166 685.083,439.249 686.75,426.249 697.916,432.749 	"/>
	<polygon fill="#6BB1E2" points="632.25,448.916 620.25,442.082 621.917,429.082 634.166,436.333 	"/>
	<polygon fill="#5A5569" points="649.417,418.249 638.084,412.082 639.751,399.082 650.917,405.582 	"/>
	<polygon fill="#5A5569" points="666.166,481.25 654.833,474.916 656.5,463.666 667.583,469.748 	"/>
	<polygon fill="#DC4A75" points="623.333,416.417 612.75,410.5 614.583,399.333 625,405.25 	"/>
</g>
</svg>
