<?xml version="1.0" encoding="utf-8"?>
<!-- Generator: Adobe Illustrator 16.0.0, SVG Export Plug-In . SVG Version: 6.00 Build 0)  -->
<!DOCTYPE svg PUBLIC "-//W3C//DTD SVG 1.1//EN" "http://www.w3.org/Graphics/SVG/1.1/DTD/svg11.dtd">
<svg version="1.1" id="Warstwa_1" xmlns="http://www.w3.org/2000/svg" xmlns:xlink="http://www.w3.org/1999/xlink" x="0px" y="0px"
	 width="792px" height="398.625px" viewBox="0 0 792 398.625" enable-background="new 0 0 792 398.625" xml:space="preserve">
<path fill="#2F2E41" d="M635.057,79.822h-58c-2.484-0.003-4.497-2.017-4.5-4.5v-21c0-18.502,14.998-33.5,33.5-33.5
	c18.501,0,33.5,14.998,33.5,33.5v21C639.554,77.805,637.54,79.819,635.057,79.822z"/>
<polygon fill="#A0616A" points="544.851,385.91 533.108,382.388 541.102,335.418 558.434,340.615 "/>
<path fill="#2F2E41" d="M544.433,398.191l-37.865-11.354l0.144-0.479c2.44-8.14,11.018-12.76,19.157-10.319l0,0h0.001l23.126,6.936
	L544.433,398.191z"/>
<polygon fill="#A0616A" points="681.636,386.307 669.376,386.307 663.544,339.019 681.638,339.02 "/>
<path fill="#2F2E41" d="M684.763,398.191l-39.531-0.001v-0.5c0-8.498,6.889-15.387,15.386-15.387c0.001,0,0.001,0,0.001,0h0.001
	l24.144,0.001V398.191z"/>
<circle fill="#A0616A" cx="607.403" cy="55.054" r="24.561"/>
<path fill="#2F2E41" d="M578.109,358.463c-0.443,0-0.884-0.057-1.313-0.168l-49.22-12.798c-2.824-0.735-4.519-3.621-3.783-6.446
	c0.046-0.173,0.1-0.343,0.161-0.51c29.841-80.262,54.276-149.493,51-183.797c-4.629-9.322-6.992-19.605-6.898-30.014l0.35-34.68
	c0.038-3.752,3.108-6.762,6.859-6.725c0.483,0.005,0.964,0.061,1.435,0.168l55.066,12.467L632.078,97
	c4.399,14.776,3.957,30.572-1.263,45.078c32.463,29.308,54.229,125.521,66.784,201.199c0.401,2.467-0.973,4.88-3.299,5.795
	l-0.155,0.038l-38.607,3.816c-2.736,1.015-5.776-0.381-6.791-3.117c-0.038-0.101-0.072-0.203-0.104-0.306l-33.172-109.466
	l-32.259,114.575C582.558,356.888,580.478,358.458,578.109,358.463z"/>
<path fill="#2F2E41" d="M630.748,55.822h-32.426c-1.261-0.002-2.323-0.94-2.481-2.19l-0.42-3.358
	c-0.103-0.822-0.852-1.405-1.674-1.303c-0.512,0.063-0.955,0.387-1.174,0.854l-2.125,4.555c-0.413,0.878-1.295,1.439-2.266,1.442
	h-4.926c-1.38,0-2.5-1.119-2.5-2.499c0-0.08,0.004-0.16,0.012-0.239l1.941-20.286c0.085-0.884,0.628-1.656,1.429-2.036
	c14.851-6.933,29.91-6.924,44.761,0.026c0.765,0.359,1.297,1.081,1.414,1.919l2.909,20.26c0.197,1.366-0.751,2.633-2.117,2.829
	C630.987,55.813,630.868,55.822,630.748,55.822z"/>
<path fill="#CCCCCC" d="M557.583,364.776l-307.917-25.85c-4.675-0.398-8.146-4.505-7.759-9.182l11.628-138.513
	c0.397-4.675,4.505-8.146,9.181-7.759l307.917,25.85c4.676,0.397,8.146,4.505,7.76,9.181l-11.628,138.514
	C566.366,361.692,562.259,365.164,557.583,364.776z"/>
<path fill="#FFFFFF" d="M553.354,355.389l-297.952-25.014c-2.475-0.21-4.313-2.385-4.108-4.86l10.792-128.548
	c0.21-2.475,2.385-4.313,4.86-4.107l297.952,25.013c2.476,0.211,4.313,2.385,4.108,4.861l-10.792,128.548
	C558.003,353.757,555.829,355.594,553.354,355.389z"/>
<path fill="#3F3D56" d="M476.604,307.134c0.02,0.001,0.039,0.002,0.058,0.003c21.347,0.433,39.003-16.521,39.436-37.868
	c0.395-19.455-13.731-36.171-32.98-39.025c-0.243-0.037-0.49,0.029-0.683,0.183c-0.191,0.15-0.311,0.374-0.33,0.616l-6.308,75.138
	C475.757,306.666,476.118,307.093,476.604,307.134L476.604,307.134z"/>
<path fill="#E6E6E6" d="M451.055,240.413c0.3,0.026,0.577,0.169,0.771,0.398l23.964,28.356c0.195,0.229,0.29,0.526,0.264,0.826
	l-3.018,35.953c-0.025,0.313-0.18,0.6-0.426,0.793c-0.247,0.196-0.563,0.281-0.875,0.234c-21.259-3.152-35.936-22.941-32.783-44.2
	c1.242-8.37,5.178-16.107,11.212-22.039c0.226-0.222,0.533-0.339,0.849-0.324L451.055,240.413z"/>
<path fill="#00CCFF" d="M478.305,229.584c0.288,0.025,0.558,0.158,0.751,0.373c0.211,0.232,0.315,0.542,0.288,0.854l-2.724,32.439
	c-0.053,0.624-0.601,1.087-1.225,1.035c-0.299-0.025-0.576-0.169-0.771-0.398l-20.911-24.744c-0.404-0.479-0.344-1.195,0.136-1.601
	c0.015-0.012,0.029-0.023,0.044-0.035c6.99-5.306,15.566-8.099,24.341-7.926C478.258,229.581,478.281,229.583,478.305,229.584z"/>
<path fill="#00CCFF" d="M459.919,321.596c-0.321,3.821-3.679,6.659-7.5,6.339c-3.822-0.321-6.66-3.679-6.339-7.5
	c0.32-3.822,3.679-6.66,7.5-6.339C457.399,314.422,460.235,317.776,459.919,321.596z"/>
<path fill="#3F3D56" d="M479.688,323.257c-0.321,3.821-3.679,6.659-7.501,6.338c-3.821-0.32-6.659-3.679-6.338-7.5
	c0.32-3.821,3.679-6.659,7.5-6.339C477.169,316.081,480.005,319.436,479.688,323.257z"/>
<path fill="#E6E6E6" d="M499.458,324.916c-0.321,3.821-3.679,6.659-7.501,6.339c-3.821-0.321-6.659-3.679-6.338-7.5
	c0.32-3.822,3.679-6.66,7.5-6.339C496.938,317.741,499.774,321.095,499.458,324.916z"/>
<path fill="#E6E6E6" d="M376.025,240.607l-63.486-5.329c-2.601-0.219-4.886,1.712-5.104,4.313c-0.219,2.601,1.713,4.886,4.313,5.104
	l63.487,5.329c2.6,0.222,4.887-1.707,5.108-4.307c0.222-2.601-1.707-4.888-4.308-5.109
	C376.033,240.608,376.029,240.608,376.025,240.607L376.025,240.607z"/>
<path fill="#E6E6E6" d="M373.865,266.337l-63.486-5.329c-2.598-0.224-4.885,1.702-5.107,4.3c-0.16,1.857,0.788,3.634,2.419,4.536
	c0.583,0.327,1.23,0.525,1.898,0.58l63.486,5.33c2.6,0.222,4.888-1.707,5.108-4.308c0.222-2.6-1.707-4.887-4.307-5.108
	C373.873,266.338,373.869,266.337,373.865,266.337L373.865,266.337z"/>
<path fill="#E6E6E6" d="M371.706,292.066l-63.487-5.329c-2.6-0.221-4.887,1.708-5.107,4.309c-0.221,2.6,1.708,4.887,4.309,5.107
	c0.003,0,0.006,0,0.009,0l63.486,5.33c2.601,0.222,4.888-1.707,5.108-4.307c0.222-2.601-1.707-4.888-4.307-5.109
	C371.713,292.067,371.709,292.067,371.706,292.066L371.706,292.066z"/>
<path fill="#00CCFF" d="M357.959,239.091l-45.42-3.813c-2.601-0.219-4.886,1.713-5.104,4.313c-0.219,2.601,1.713,4.886,4.313,5.104
	l44.474,3.733c2.834-0.893,4.407-3.913,3.516-6.747C359.415,240.66,358.796,239.759,357.959,239.091L357.959,239.091z"/>
<path fill="#00CCFF" d="M334.823,263.059l-24.444-2.052c-2.598-0.224-4.885,1.702-5.107,4.3c-0.16,1.857,0.788,3.634,2.419,4.536
	l22.451,1.885c2.96,0.247,5.562-1.951,5.811-4.911C336.073,265.466,335.669,264.12,334.823,263.059z"/>
<path fill="#00CCFF" d="M366.962,291.668l-58.743-4.931c-2.6-0.221-4.887,1.708-5.107,4.309c-0.221,2.6,1.708,4.887,4.309,5.107
	c0.003,0,0.006,0,0.009,0l59.121,4.964c2.671-1.288,3.791-4.496,2.504-7.166C368.596,293.001,367.868,292.207,366.962,291.668
	L366.962,291.668z"/>
<path fill="#A0616A" d="M530.991,215.842c5.779-1.342,9.376-7.115,8.033-12.895c-0.143-0.616-0.34-1.218-0.589-1.8l34.621-90.825
	l-17.674-4.353l-31.804,89.742c-5.316,2.706-7.432,9.21-4.725,14.525C521.119,214.685,526.137,217.003,530.991,215.842z"/>
<path fill="#2F2E41" d="M574.719,128.632c-0.778,0-1.548-0.172-2.254-0.501l0,0l-22.033-10.313c-2.66-1.246-3.807-4.413-2.561-7.072
	c0.11-0.236,0.237-0.463,0.381-0.681l13.391-20.223c1.546-3.291,4.347-5.825,7.776-7.035c7.209-2.606,15.166,1.124,17.773,8.332
	c1.251,3.46,1.078,7.274-0.482,10.605l-6.897,23.095C579.139,127.09,577.068,128.631,574.719,128.632L574.719,128.632z"/>
<path fill="#A0616A" d="M560.503,217.391c5.93-0.196,10.577-5.163,10.381-11.093c-0.021-0.632-0.098-1.262-0.229-1.88l56.196-80.098
	l-16.794-8.999l-52.923,80.884c-5.739,1.625-9.075,7.595-7.451,13.334C551.042,214.343,555.516,217.589,560.503,217.391
	L560.503,217.391z"/>
<path fill="#2F2E41" d="M621.338,140.414c-1.131-0.001-2.232-0.361-3.145-1.03l-19.615-14.39c-2.368-1.736-2.88-5.063-1.144-7.431
	c0.154-0.211,0.324-0.409,0.508-0.595l17.057-17.243c2.154-2.93,5.394-4.874,8.993-5.396c7.577-1.16,14.66,4.042,15.82,11.62
	c0.557,3.636-0.353,7.344-2.528,10.311l-11.244,21.318C625.119,139.322,623.31,140.413,621.338,140.414z"/>
<path fill="#FFB8B8" d="M265.569,198.182c-5.221-1.894-7.919-7.66-6.026-12.882c0.202-0.557,0.452-1.094,0.749-1.606l-23.359-27.044
	l18.415-2.396l19.359,26.048c4.638,3.109,5.877,9.39,2.769,14.028C274.873,198.211,269.951,199.803,265.569,198.182L265.569,198.182
	z"/>
<path fill="#FFB8B8" d="M133.905,203.896c-3.662-4.176-3.245-10.528,0.931-14.19c0.445-0.39,0.924-0.74,1.431-1.047l-7.425-34.954
	l17.289,6.778l4.4,32.154c2.564,4.96,0.622,11.061-4.338,13.624C142.042,208.407,136.962,207.429,133.905,203.896z"/>
<polygon fill="#FFB8B8" points="217.569,386.069 229.829,386.068 235.661,338.78 217.567,338.781 "/>
<path fill="#2F2E41" d="M214.441,382.066l24.144-0.001h0.001c8.498,0,15.386,6.888,15.386,15.386c0,0,0,0,0,0.001v0.5l-39.53,0.001
	L214.441,382.066z"/>
<polygon fill="#FFB8B8" points="157.569,386.069 169.829,386.068 175.661,338.78 157.567,338.781 "/>
<path fill="#2F2E41" d="M154.441,382.066l24.144-0.001h0.001c8.498,0,15.386,6.888,15.386,15.386c0,0,0,0,0,0.001v0.5l-39.53,0.001
	L154.441,382.066z"/>
<path fill="#2F2E41" d="M216.114,361.38c-2.272-0.011-4.184-1.703-4.469-3.957l-12.538-103.33c-0.099-0.822-0.846-1.409-1.668-1.31
	c-0.646,0.077-1.167,0.563-1.292,1.2L176.21,355.392c-0.418,2.108-2.266,3.628-4.416,3.632h-14.634c-2.485,0-4.5-2.014-4.5-4.499
	c0-0.028,0-0.058,0.001-0.086l2.929-156.202l0.238-0.143c21.348-12.711,46.51-13.543,76.926-2.54l0.319,0.115l4.889,160.379
	c0.068,2.465-1.854,4.527-4.318,4.634l-17.354,0.694C216.232,361.379,216.172,361.38,216.114,361.38z"/>
<circle fill="#FFB8B8" cx="199.408" cy="30.461" r="24.561"/>
<path fill="#00CCFF" d="M256.253,178.929c-1.266,0.18-2.548-0.187-3.528-1.008l-25.185-21.135
	c-8.612-7.225-14.306-17.331-16.024-28.44l-5.665-36.602c-2.915-7.457,0.768-15.864,8.225-18.779
	c7.457-2.915,15.864,0.768,18.779,8.225c0.004,0.012,0.009,0.022,0.014,0.034l11.986,57.512l19.132,25.968
	c1.12,1.527,1.167,3.592,0.119,5.169l-4.746,7.102c-0.509,0.762-1.238,1.35-2.09,1.686
	C256.941,178.79,256.601,178.88,256.253,178.929z"/>
<path fill="#00CCFF" d="M134.013,180.797c-1.069-0.701-1.79-1.823-1.982-3.087l-4.941-32.505
	c-1.69-11.113,0.713-22.462,6.764-31.936l19.931-31.218c2.744-7.521,11.065-11.394,18.587-8.649
	c7.521,2.743,11.394,11.065,8.65,18.586c-0.002,0.006-0.004,0.012-0.007,0.018l-29.001,51.09l-2.796,32.133
	c-0.168,1.887-1.497,3.468-3.327,3.959l-8.254,2.194c-0.885,0.235-1.821,0.195-2.683-0.115
	C134.623,181.147,134.307,180.99,134.013,180.797z"/>
<path fill="#00CCFF" d="M226.272,74.078c-8.545-9.37-20.88-14.357-33.537-13.56c-0.411,0.025-0.819,0.055-1.227,0.086h0
	c-11.981,0.948-22.972,7.015-30.16,16.646c-7.307,9.768-10.049,22.211-7.525,34.145c4.763,22.545,3.557,45.941-3.497,67.877
	l-6.589,20.459c-0.762,2.364,0.537,4.899,2.902,5.661c0.37,0.119,0.753,0.189,1.14,0.211l33.685,1.811l8.62-14.89v15.354
	l40.941,2.201c0.082,0.005,0.163,0.007,0.243,0.007c2.485-0.001,4.5-2.017,4.499-4.502c0-0.12-0.005-0.24-0.015-0.359l-4.627-57.382
	l5.804-38.973C238.833,96.257,234.914,83.462,226.272,74.078z"/>
<path fill="#2F2E41" d="M182.338,53.908c2.274,1.309,11.262,2.176,11.902-0.368l0.014-0.056c0.445-1.864,0.075-3.811-0.053-5.724
	c-0.128-1.912,0.06-4.013,1.362-5.419c2.428-2.621,6.748-1.231,10.259-1.895c4.254-0.949,7.141-4.912,6.74-9.253
	c-0.05-0.397-0.128-0.795-0.216-1.193c-0.785-3.601,1.498-7.155,5.099-7.94c0.6-0.131,1.215-0.178,1.828-0.141
	c3.548,0.203,7.378,1.278,10.313-1.35c2.27-2.032,2.824-7.323,1.827-10.202C229.737,5.53,219,2.997,214.312,1.604
	c-11.743-3.393-24.388-1.317-34.431,5.65c-2.961,2.087-5.727,4.709-6.989,8.105c-1.262,3.396-0.653,7.68,2.193,9.922
	c-4.49,4.754-6.107,11.538-4.246,17.807C172.245,47.618,178.953,51.961,182.338,53.908z"/>
<path fill="#CCCCCC" d="M791,398.625H1c-0.552,0-1-0.448-1-1c0-0.553,0.448-1,1-1h790c0.553,0,1,0.447,1,1
	C792,398.177,791.553,398.625,791,398.625z"/>
<path fill="#F2F2F2" d="M714.713,218.92L714.713,218.92c-6.252,0.504-11.729-4.156-12.232-10.409
	c-0.504-6.252,4.156-11.729,10.409-12.232c6.252-0.504,11.729,4.156,12.232,10.409C725.626,212.939,720.966,218.416,714.713,218.92z
	 M714.573,217.178L714.573,217.178c5.29-0.427,9.233-5.061,8.808-10.352c-0.427-5.29-5.061-9.233-10.352-8.808
	c-5.29,0.427-9.233,5.061-8.808,10.352C704.648,213.661,709.282,217.604,714.573,217.178L714.573,217.178z"/>
<circle fill="#F2F2F2" cx="753.822" cy="182.788" r="6.989"/>
<circle fill="#F2F2F2" cx="788.178" cy="160.829" r="3.671"/>
<path fill="#F2F2F2" d="M401.342,137.027c5.285-3.378,12.309-1.831,15.686,3.454c3.378,5.285,1.831,12.309-3.454,15.687
	s-12.309,1.831-15.687-3.454l0,0l0,0C394.517,147.427,396.062,140.409,401.342,137.027z M412.633,154.695
	c4.472-2.857,5.78-8.801,2.923-13.272c-2.858-4.473-8.801-5.781-13.273-2.924c-4.473,2.858-5.781,8.801-2.923,13.273l0,0l0,0
	C402.221,156.239,408.159,157.547,412.633,154.695L412.633,154.695z"/>
<circle fill="#F2F2F2" cx="403.035" cy="99.718" r="6.989"/>
<circle fill="#F2F2F2" cx="399.765" cy="59.075" r="3.671"/>
<path fill="#F2F2F2" d="M92.07,265.707c-3.529-5.186-2.186-12.251,3-15.779c5.186-3.529,12.25-2.187,15.78,2.999
	c3.529,5.186,2.186,12.251-3,15.779l0,0C102.663,272.228,95.604,270.886,92.07,265.707z M109.405,253.91
	c-2.986-4.388-8.964-5.524-13.352-2.538c-4.388,2.986-5.524,8.964-2.538,13.352c2.986,4.389,8.964,5.524,13.352,2.538l0,0l0,0
	C111.25,264.272,112.385,258.299,109.405,253.91L109.405,253.91z"/>
<circle fill="#F2F2F2" cx="54.728" cy="265.093" r="6.989"/>
<circle fill="#F2F2F2" cx="14.197" cy="269.536" r="3.671"/>
</svg>
